{
.appVersion = "911";
DisplayStrings = (

glyphs = (
{
color = 3;
glyphname = A;
lastChange = "2016-08-03 21:57:39 +0000";
layers = (
{
anchors = (
{
name = bottom;
position = "{384, 0}";
},
{
name = ogonek;
position = "{722, 10}";
},
{
name = top;
position = "{592, 840}";
}
);
background = {
paths = (
{
closed = 1;
nodes = (
"809 142 OFFCURVE",
"775 114 OFFCURVE",
"731 114 CURVE SMOOTH",
"688 114 OFFCURVE",
"666 144 OFFCURVE",
"666 217 CURVE SMOOTH",
"666 305 OFFCURVE",
"705 496 OFFCURVE",
"735 610 CURVE SMOOTH",
"749 663 OFFCURVE",
"711 680 OFFCURVE",
"667 680 CURVE SMOOTH",
"632 680 OFFCURVE",
"603 669 OFFCURVE",
"595 628 CURVE SMOOTH",
"521 247 OFFCURVE",
"450 112 OFFCURVE",
"329 112 CURVE SMOOTH",
"259 112 OFFCURVE",
"208 173 OFFCURVE",
"208 290 CURVE SMOOTH",
"208 516 OFFCURVE",
"335 732 OFFCURVE",
"601 732 CURVE SMOOTH",
"658 732 OFFCURVE",
"704 724 OFFCURVE",
"768 709 CURVE SMOOTH",
"841 692 OFFCURVE",
"886 800 OFFCURVE",
"817 820 CURVE SMOOTH",
"756 838 OFFCURVE",
"690 848 OFFCURVE",
"623 848 CURVE SMOOTH",
"252 848 OFFCURVE",
"61 576 OFFCURVE",
"61 280 CURVE SMOOTH",
"61 100 OFFCURVE",
"167 -5 OFFCURVE",
"305 -5 CURVE SMOOTH",
"403 -5 OFFCURVE",
"475 49 OFFCURVE",
"523 150 CURVE",
"538 53 OFFCURVE",
"595 -5 OFFCURVE",
"690 -5 CURVE SMOOTH",
"789 -5 OFFCURVE",
"846 49 OFFCURVE",
"901 116 CURVE SMOOTH",
"918 137 OFFCURVE",
"920 159 OFFCURVE",
"920 178 CURVE SMOOTH",
"920 205 OFFCURVE",
"910 223 OFFCURVE",
"892 223 CURVE SMOOTH",
"884 223 OFFCURVE",
"875 221 OFFCURVE",
"865 209 CURVE SMOOTH"
);
}
);
};
layerId = "ECEFE970-1BBB-4E0A-A452-CEB55884B4A3";
paths = (
{
closed = 1;
nodes = (
"398 -5 OFFCURVE",
"470 49 OFFCURVE",
"518 150 CURVE",
"533 53 OFFCURVE",
"590 -5 OFFCURVE",
"685 -5 CURVE SMOOTH",
"784 -5 OFFCURVE",
"841 49 OFFCURVE",
"896 116 CURVE SMOOTH",
"913 137 OFFCURVE",
"915 159 OFFCURVE",
"915 178 CURVE SMOOTH",
"915 205 OFFCURVE",
"905 223 OFFCURVE",
"887 223 CURVE SMOOTH",
"879 223 OFFCURVE",
"870 221 OFFCURVE",
"860 209 CURVE SMOOTH",
"804 142 OFFCURVE",
"770 114 OFFCURVE",
"726 114 CURVE SMOOTH",
"683 114 OFFCURVE",
"661 144 OFFCURVE",
"661 217 CURVE SMOOTH",
"661 305 OFFCURVE",
"700 496 OFFCURVE",
"730 610 CURVE SMOOTH",
"744 663 OFFCURVE",
"706 676 OFFCURVE",
"662 676 CURVE SMOOTH",
"627 676 OFFCURVE",
"598 669 OFFCURVE",
"590 628 CURVE SMOOTH",
"516 247 OFFCURVE",
"445 112 OFFCURVE",
"324 112 CURVE SMOOTH",
"254 112 OFFCURVE",
"203 173 OFFCURVE",
"203 290 CURVE SMOOTH",
"203 516 OFFCURVE",
"330 732 OFFCURVE",
"596 732 CURVE SMOOTH",
"653 732 OFFCURVE",
"699 724 OFFCURVE",
"763 709 CURVE SMOOTH",
"805 699 OFFCURVE",
"840 744 OFFCURVE",
"840 780 CURVE SMOOTH",
"840 798 OFFCURVE",
"832 814 OFFCURVE",
"812 820 CURVE SMOOTH",
"752 839 OFFCURVE",
"675 848 OFFCURVE",
"618 848 CURVE SMOOTH",
"247 848 OFFCURVE",
"56 576 OFFCURVE",
"56 280 CURVE SMOOTH",
"56 100 OFFCURVE",
"162 -5 OFFCURVE",
"300 -5 CURVE SMOOTH"
);
}
);
width = 786;
}
);
leftKerningGroup = A;
leftMetricsKey = O;
note = A;
rightKerningGroup = N;
unicode = 0041;
},
{
color = 3;
glyphname = Aogonek;
lastChange = "2016-08-02 07:43:40 +0000";
layers = (
{
anchors = (
{
name = _ogonek;
position = "{722, 10}";
},
{
name = bottom;
position = "{384, 0}";
},
{
name = ogonek;
position = "{722, 10}";
},
{
name = top;
position = "{592, 840}";
}
);
background = {
paths = (
{
closed = 1;
nodes = (
"884 223 OFFCURVE",
"875 221 OFFCURVE",
"865 209 CURVE SMOOTH",
"809 142 OFFCURVE",
"773 105 OFFCURVE",
"746 105 CURVE SMOOTH",
"730 105 OFFCURVE",
"719 118 OFFCURVE",
"719 138 CURVE SMOOTH",
"719 214 OFFCURVE",
"757 352 OFFCURVE",
"757 398 CURVE SMOOTH",
"757 416 OFFCURVE",
"746 433 OFFCURVE",
"708 433 CURVE SMOOTH",
"694 433 OFFCURVE",
"680 432 OFFCURVE",
"664 429 CURVE",
"658 455 OFFCURVE",
"654 468 OFFCURVE",
"622 468 CURVE SMOOTH",
"481 468 OFFCURVE",
"356 320 OFFCURVE",
"356 158 CURVE SMOOTH",
"356 61 OFFCURVE",
"408 -5 OFFCURVE",
"492 -5 CURVE SMOOTH",
"555 -5 OFFCURVE",
"597 37 OFFCURVE",
"623 79 CURVE",
"629 62 OFFCURVE",
"639 44 OFFCURVE",
"654 27 CURVE",
"605 -6 OFFCURVE",
"571 -60 OFFCURVE",
"571 -118 CURVE SMOOTH",
"571 -199 OFFCURVE",
"629 -250 OFFCURVE",
"721 -250 CURVE SMOOTH",
"742 -250 OFFCURVE",
"771 -246 OFFCURVE",
"788 -240 CURVE SMOOTH",
"825 -227 OFFCURVE",
"836 -206 OFFCURVE",
"835 -181 CURVE SMOOTH",
"834 -150 OFFCURVE",
"821 -140 OFFCURVE",
"782 -153 CURVE SMOOTH",
"764 -159 OFFCURVE",
"749 -160 OFFCURVE",
"735 -160 CURVE SMOOTH",
"704 -160 OFFCURVE",
"673 -142 OFFCURVE",
"673 -101 CURVE SMOOTH",
"673 -65 OFFCURVE",
"699 -35 OFFCURVE",
"760 0 CURVE SMOOTH",
"805 26 OFFCURVE",
"852 59 OFFCURVE",
"901 116 CURVE SMOOTH",
"918 136 OFFCURVE",
"920 159 OFFCURVE",
"920 178 CURVE SMOOTH",
"920 205 OFFCURVE",
"910 223 OFFCURVE",
"892 223 CURVE SMOOTH"
);
},
{
closed = 1;
nodes = (
"587 131 OFFCURVE",
"556 96 OFFCURVE",
"528 96 CURVE SMOOTH",
"499 96 OFFCURVE",
"481 115 OFFCURVE",
"481 157 CURVE SMOOTH",
"481 270 OFFCURVE",
"551 373 OFFCURVE",
"636 375 CURVE",
"599 191 LINE SMOOTH"
);
}
);
};
layerId = "ECEFE970-1BBB-4E0A-A452-CEB55884B4A3";
paths = (
{
closed = 1;
nodes = (
"737 -254 OFFCURVE",
"766 -250 OFFCURVE",
"783 -244 CURVE SMOOTH",
"820 -231 OFFCURVE",
"831 -210 OFFCURVE",
"830 -181 CURVE SMOOTH",
"829 -150 OFFCURVE",
"816 -140 OFFCURVE",
"777 -153 CURVE SMOOTH",
"759 -159 OFFCURVE",
"744 -160 OFFCURVE",
"730 -160 CURVE SMOOTH",
"699 -160 OFFCURVE",
"668 -142 OFFCURVE",
"668 -101 CURVE SMOOTH",
"668 -65 OFFCURVE",
"694 -35 OFFCURVE",
"755 0 CURVE SMOOTH",
"800 26 OFFCURVE",
"847 59 OFFCURVE",
"896 116 CURVE SMOOTH",
"914 136 OFFCURVE",
"915 159 OFFCURVE",
"915 178 CURVE SMOOTH",
"915 205 OFFCURVE",
"905 223 OFFCURVE",
"887 223 CURVE SMOOTH",
"879 223 OFFCURVE",
"870 221 OFFCURVE",
"860 209 CURVE SMOOTH",
"804 142 OFFCURVE",
"770 114 OFFCURVE",
"726 114 CURVE SMOOTH",
"683 114 OFFCURVE",
"661 144 OFFCURVE",
"661 217 CURVE SMOOTH",
"661 305 OFFCURVE",
"700 496 OFFCURVE",
"730 610 CURVE SMOOTH",
"744 663 OFFCURVE",
"706 676 OFFCURVE",
"662 676 CURVE SMOOTH",
"627 676 OFFCURVE",
"598 669 OFFCURVE",
"590 628 CURVE SMOOTH",
"516 247 OFFCURVE",
"445 112 OFFCURVE",
"324 112 CURVE SMOOTH",
"254 112 OFFCURVE",
"203 173 OFFCURVE",
"203 290 CURVE SMOOTH",
"203 516 OFFCURVE",
"330 732 OFFCURVE",
"596 732 CURVE SMOOTH",
"653 732 OFFCURVE",
"699 724 OFFCURVE",
"763 709 CURVE SMOOTH",
"805 699 OFFCURVE",
"840 744 OFFCURVE",
"840 780 CURVE SMOOTH",
"840 798 OFFCURVE",
"832 814 OFFCURVE",
"812 820 CURVE SMOOTH",
"752 839 OFFCURVE",
"675 848 OFFCURVE",
"618 848 CURVE SMOOTH",
"247 848 OFFCURVE",
"56 576 OFFCURVE",
"56 280 CURVE SMOOTH",
"56 100 OFFCURVE",
"162 -5 OFFCURVE",
"300 -5 CURVE SMOOTH",
"398 -5 OFFCURVE",
"470 49 OFFCURVE",
"518 150 CURVE",
"529 77 OFFCURVE",
"565 26 OFFCURVE",
"622 5 CURVE",
"581 -29 OFFCURVE",
"562 -69 OFFCURVE",
"562 -118 CURVE SMOOTH",
"562 -199 OFFCURVE",
"624 -254 OFFCURVE",
"716 -254 CURVE SMOOTH"
);
}
);
width = 786;
}
);
leftKerningGroup = A;
leftMetricsKey = A;
widthMetricsKey = A;
rightKerningGroup = N;
unicode = 0104;
},
{
color = 3;
glyphname = Aringacute;
lastChange = "2016-08-03 16:50:14 +0000";
layers = (
{
components = (
{
name = A;
}
);
layerId = "ECEFE970-1BBB-4E0A-A452-CEB55884B4A3";
paths = (
{
closed = 1;
nodes = (
"684 912 OFFCURVE",
"752 966 OFFCURVE",
"752 1060 CURVE SMOOTH",
"752 1146 OFFCURVE",
"689 1192 OFFCURVE",
"623 1192 CURVE SMOOTH",
"550 1192 OFFCURVE",
"482 1138 OFFCURVE",
"482 1044 CURVE SMOOTH",
"482 958 OFFCURVE",
"545 912 OFFCURVE",
"611 912 CURVE SMOOTH"
);
},
{
closed = 1;
nodes = (
"593 1000 OFFCURVE",
"571 1018 OFFCURVE",
"571 1049 CURVE SMOOTH",
"571 1083 OFFCURVE",
"594 1104 OFFCURVE",
"619 1104 CURVE SMOOTH",
"641 1104 OFFCURVE",
"663 1086 OFFCURVE",
"663 1055 CURVE SMOOTH",
"663 1021 OFFCURVE",
"640 1000 OFFCURVE",
"615 1000 CURVE SMOOTH"
);
},
{
closed = 1;
nodes = (
"799 1127 OFFCURVE",
"806 1128 OFFCURVE",
"812 1131 CURVE SMOOTH",
"929 1183 LINE SMOOTH",
"961 1197 OFFCURVE",
"974 1222 OFFCURVE",
"974 1243 CURVE SMOOTH",
"974 1272 OFFCURVE",
"949 1297 OFFCURVE",
"919 1297 CURVE SMOOTH",
"908 1297 OFFCURVE",
"894 1293 OFFCURVE",
"882 1282 CURVE SMOOTH",
"778 1188 LINE SMOOTH",
"767 1178 OFFCURVE",
"762 1168 OFFCURVE",
"762 1158 CURVE SMOOTH",
"762 1141 OFFCURVE",
"775 1127 OFFCURVE",
"794 1127 CURVE SMOOTH"
);
}
);
width = 786;
}
);
leftKerningGroup = A;
rightKerningGroup = N;
unicode = 01FA;
},
{
color = 3;
glyphname = AE;
lastChange = "2016-08-03 16:52:56 +0000";
layers = (
{
anchors = (
{
name = bottom;
position = "{576, 0}";
},
{
name = top;
position = "{703, 840}";
}
);
background = {
paths = (
{
closed = 1;
nodes = (
"1630 -5 OFFCURVE",
"1725 64 OFFCURVE",
"1779 237 CURVE",
"1875 626 LINE",
"1755 431 LINE",
"1707 257 OFFCURVE",
"1650 112 OFFCURVE",
"1529 112 CURVE SMOOTH",
"1459 112 OFFCURVE",
"1408 174 OFFCURVE",
"1408 290 CURVE SMOOTH",
"1408 514 OFFCURVE",
"1528 704 OFFCURVE",
"1764 730 CURVE SMOOTH",
"1791 733 OFFCURVE",
"1802 754 OFFCURVE",
"1802 780 CURVE SMOOTH",
"1802 821 OFFCURVE",
"1783 850 OFFCURVE",
"1716 842 CURVE SMOOTH",
"1452 810 OFFCURVE",
"1261 576 OFFCURVE",
"1261 280 CURVE SMOOTH",
"1261 100 OFFCURVE",
"1367 -5 OFFCURVE",
"1517 -5 CURVE SMOOTH"
);
},
{
closed = 1;
nodes = (
"2135 -5 OFFCURVE",
"2245 27 OFFCURVE",
"2304 69 CURVE",
"2296 182 LINE",
"2209 139 OFFCURVE",
"2139 115 OFFCURVE",
"2067 115 CURVE SMOOTH",
"1898 115 OFFCURVE",
"1857 212 OFFCURVE",
"1891 361 CURVE",
"2000 363 OFFCURVE",
"2054 366 OFFCURVE",
"2149 368 CURVE SMOOTH",
"2192 369 OFFCURVE",
"2215 401 OFFCURVE",
"2215 441 CURVE SMOOTH",
"2215 471 OFFCURVE",
"2204 490 OFFCURVE",
"2162 490 CURVE SMOOTH",
"2084 490 OFFCURVE",
"2004 486 OFFCURVE",
"1915 483 CURVE",
"1931 556 OFFCURVE",
"1953 650 OFFCURVE",
"1973 710 CURVE",
"2014 715 OFFCURVE",
"2121 720 OFFCURVE",
"2213 720 CURVE SMOOTH",
"2265 720 OFFCURVE",
"2285 759 OFFCURVE",
"2285 795 CURVE SMOOTH",
"2285 832 OFFCURVE",
"2270 849 OFFCURVE",
"2221 849 CURVE SMOOTH",
"2125 849 OFFCURVE",
"2055 844 OFFCURVE",
"1971 840 CURVE SMOOTH",
"1904 837 OFFCURVE",
"1856 801 OFFCURVE",
"1836 727 CURVE SMOOTH",
"1755 431 LINE",
"1746 264 LINE",
"1740 121 OFFCURVE",
"1822 -5 OFFCURVE",
"2044 -5 CURVE SMOOTH"
);
},
{
closed = 1;
nodes = (
"862 -5 OFFCURVE",
"1002 18 OFFCURVE",
"1082 56 CURVE SMOOTH",
"1131 79 OFFCURVE",
"1146 107 OFFCURVE",
"1146 145 CURVE SMOOTH",
"1146 177 OFFCURVE",
"1129 199 OFFCURVE",
"1089 182 CURVE SMOOTH",
"1008 148 OFFCURVE",
"872 115 OFFCURVE",
"755 115 CURVE SMOOTH",
"582 115 OFFCURVE",
"513 160 OFFCURVE",
"513 240 CURVE SMOOTH",
"513 309 OFFCURVE",
"578 382 OFFCURVE",
"754 386 CURVE SMOOTH",
"802 387 OFFCURVE",
"813 417 OFFCURVE",
"814 449 CURVE SMOOTH",
"815 480 OFFCURVE",
"805 492 OFFCURVE",
"774 493 CURVE SMOOTH",
"649 497 OFFCURVE",
"610 548 OFFCURVE",
"610 604 CURVE SMOOTH",
"610 685 OFFCURVE",
"684 737 OFFCURVE",
"797 737 CURVE SMOOTH",
"887 737 OFFCURVE",
"914 698 OFFCURVE",
"914 656 CURVE SMOOTH",
"914 621 OFFCURVE",
"904 603 OFFCURVE",
"904 574 CURVE SMOOTH",
"904 540 OFFCURVE",
"928 524 OFFCURVE",
"964 524 CURVE SMOOTH",
"1018 524 OFFCURVE",
"1047 579 OFFCURVE",
"1047 656 CURVE SMOOTH",
"1047 762 OFFCURVE",
"972 848 OFFCURVE",
"799 848 CURVE SMOOTH",
"616 848 OFFCURVE",
"462 753 OFFCURVE",
"462 605 CURVE SMOOTH",
"462 527 OFFCURVE",
"517 450 OFFCURVE",
"628 441 CURVE",
"639 460 LINE",
"456 432 OFFCURVE",
"365 341 OFFCURVE",
"365 215 CURVE SMOOTH",
"365 92 OFFCURVE",
"484 -5 OFFCURVE",
"744 -5 CURVE SMOOTH"
);
}
);
};
guideLines = (
{
angle = 254.6088;
position = "{575, 602}";
}
);
layerId = "ECEFE970-1BBB-4E0A-A452-CEB55884B4A3";
paths = (
{
closed = 1;
nodes = (
"425 -5 OFFCURVE",
"520 64 OFFCURVE",
"574 237 CURVE",
"670 626 LINE",
"550 431 LINE",
"502 257 OFFCURVE",
"445 112 OFFCURVE",
"324 112 CURVE SMOOTH",
"254 112 OFFCURVE",
"203 174 OFFCURVE",
"203 290 CURVE SMOOTH",
"203 514 OFFCURVE",
"323 704 OFFCURVE",
"559 730 CURVE SMOOTH",
"586 733 OFFCURVE",
"597 754 OFFCURVE",
"597 780 CURVE SMOOTH",
"597 821 OFFCURVE",
"578 850 OFFCURVE",
"511 842 CURVE SMOOTH",
"247 810 OFFCURVE",
"56 576 OFFCURVE",
"56 280 CURVE SMOOTH",
"56 100 OFFCURVE",
"162 -5 OFFCURVE",
"312 -5 CURVE SMOOTH"
);
},
{
closed = 1;
nodes = (
"930 -5 OFFCURVE",
"1040 27 OFFCURVE",
"1099 69 CURVE SMOOTH",
"1132 93 OFFCURVE",
"1141 118 OFFCURVE",
"1141 146 CURVE SMOOTH",
"1141 176 OFFCURVE",
"1122 198 OFFCURVE",
"1091 182 CURVE SMOOTH",
"1004 139 OFFCURVE",
"934 115 OFFCURVE",
"862 115 CURVE SMOOTH",
"693 115 OFFCURVE",
"652 212 OFFCURVE",
"686 361 CURVE",
"795 363 OFFCURVE",
"849 366 OFFCURVE",
"944 368 CURVE SMOOTH",
"987 369 OFFCURVE",
"1010 401 OFFCURVE",
"1010 441 CURVE SMOOTH",
"1010 471 OFFCURVE",
"999 490 OFFCURVE",
"957 490 CURVE SMOOTH",
"879 490 OFFCURVE",
"799 486 OFFCURVE",
"710 483 CURVE",
"726 556 OFFCURVE",
"748 650 OFFCURVE",
"768 710 CURVE",
"809 715 OFFCURVE",
"916 720 OFFCURVE",
"1008 720 CURVE SMOOTH",
"1060 720 OFFCURVE",
"1080 759 OFFCURVE",
"1080 795 CURVE SMOOTH",
"1080 832 OFFCURVE",
"1065 849 OFFCURVE",
"1016 849 CURVE SMOOTH",
"920 849 OFFCURVE",
"850 844 OFFCURVE",
"766 840 CURVE SMOOTH",
"699 837 OFFCURVE",
"651 801 OFFCURVE",
"631 727 CURVE SMOOTH",
"550 431 LINE",
"541 264 LINE",
"535 121 OFFCURVE",
"617 -5 OFFCURVE",
"839 -5 CURVE SMOOTH"
);
}
);
width = 1015;
}
);
leftKerningGroup = A;
leftMetricsKey = A;
note = AE;
rightKerningGroup = AE;
unicode = 00C6;
},
{
color = 3;
glyphname = B;
lastChange = "2016-08-03 20:38:32 +0000";
layers = (
{
background = {
paths = (
{
closed = 1;
nodes = (
"612 3 OFFCURVE",
"764 104 OFFCURVE",
"764 261 CURVE SMOOTH",
"764 338 OFFCURVE",
"707 402 OFFCURVE",
"587 414 CURVE",
"586 395 LINE",
"775 423 OFFCURVE",
"873 516 OFFCURVE",
"873 640 CURVE SMOOTH",
"873 765 OFFCURVE",
"767 862 OFFCURVE",
"514 862 CURVE SMOOTH",
"357 862 OFFCURVE",
"198 825 OFFCURVE",
"93 764 CURVE SMOOTH",
"28 726 OFFCURVE",
"25 704 OFFCURVE",
"25 676 CURVE SMOOTH",
"25 642 OFFCURVE",
"49 611 OFFCURVE",
"123 655 CURVE SMOOTH",
"202 702 OFFCURVE",
"341 748 OFFCURVE",
"493 748 CURVE SMOOTH",
"657 748 OFFCURVE",
"725 696 OFFCURVE",
"725 623 CURVE SMOOTH",
"725 529 OFFCURVE",
"614 471 OFFCURVE",
"473 468 CURVE SMOOTH",
"428 467 OFFCURVE",
"418 438 OFFCURVE",
"417 406 CURVE SMOOTH",
"416 377 OFFCURVE",
"425 364 OFFCURVE",
"453 363 CURVE SMOOTH",
"581 359 OFFCURVE",
"616 307 OFFCURVE",
"616 256 CURVE SMOOTH",
"616 179 OFFCURVE",
"544 112 OFFCURVE",
"345 112 CURVE SMOOTH",
"301 112 OFFCURVE",
"253 117 OFFCURVE",
"228 119 CURVE",
"226 9 LINE",
"244 7 OFFCURVE",
"282 3 OFFCURVE",
"341 3 CURVE SMOOTH"
);
},
{
closed = 1;
nodes = (
"224 -50 OFFCURVE",
"261 -33 OFFCURVE",
"261 8 CURVE SMOOTH",
"261 15 OFFCURVE",
"263 39 OFFCURVE",
"263 47 CURVE SMOOTH",
"270 227 OFFCURVE",
"319 472 OFFCURVE",
"356 582 CURVE SMOOTH",
"361 597 OFFCURVE",
"362 603 OFFCURVE",
"362 614 CURVE SMOOTH",
"362 641 OFFCURVE",
"335 650 OFFCURVE",
"301 650 CURVE SMOOTH",
"260 650 OFFCURVE",
"228 639 OFFCURVE",
"218 603 CURVE SMOOTH",
"165 411 OFFCURVE",
"129 199 OFFCURVE",
"117 13 CURVE SMOOTH",
"114 -26 OFFCURVE",
"127 -50 OFFCURVE",
"178 -50 CURVE SMOOTH"
);
}
);
};
layerId = "ECEFE970-1BBB-4E0A-A452-CEB55884B4A3";
paths = (
{
closed = 1;
nodes = (
"607 3 OFFCURVE",
"759 104 OFFCURVE",
"759 261 CURVE SMOOTH",
"759 338 OFFCURVE",
"702 402 OFFCURVE",
"582 414 CURVE",
"581 395 LINE",
"770 423 OFFCURVE",
"868 516 OFFCURVE",
"868 640 CURVE SMOOTH",
"868 765 OFFCURVE",
"762 862 OFFCURVE",
"509 862 CURVE SMOOTH",
"352 862 OFFCURVE",
"193 825 OFFCURVE",
"81 760 CURVE SMOOTH",
"23 726 OFFCURVE",
"20 704 OFFCURVE",
"20 676 CURVE SMOOTH",
"20 642 OFFCURVE",
"44 611 OFFCURVE",
"111 651 CURVE SMOOTH",
"197 702 OFFCURVE",
"336 748 OFFCURVE",
"488 748 CURVE SMOOTH",
"652 748 OFFCURVE",
"720 696 OFFCURVE",
"720 623 CURVE SMOOTH",
"720 529 OFFCURVE",
"609 471 OFFCURVE",
"468 468 CURVE SMOOTH",
"423 467 OFFCURVE",
"413 438 OFFCURVE",
"412 406 CURVE SMOOTH",
"411 377 OFFCURVE",
"420 364 OFFCURVE",
"448 363 CURVE SMOOTH",
"576 359 OFFCURVE",
"611 307 OFFCURVE",
"611 256 CURVE SMOOTH",
"611 179 OFFCURVE",
"539 112 OFFCURVE",
"340 112 CURVE SMOOTH",
"296 112 OFFCURVE",
"248 117 OFFCURVE",
"223 119 CURVE",
"221 9 LINE",
"239 7 OFFCURVE",
"277 3 OFFCURVE",
"336 3 CURVE SMOOTH"
);
},
{
closed = 1;
nodes = (
"219 -50 OFFCURVE",
"256 -33 OFFCURVE",
"256 8 CURVE SMOOTH",
"256 15 OFFCURVE",
"258 39 OFFCURVE",
"258 47 CURVE SMOOTH",
"265 227 OFFCURVE",
"314 472 OFFCURVE",
"351 582 CURVE SMOOTH",
"356 597 OFFCURVE",
"357 603 OFFCURVE",
"357 614 CURVE SMOOTH",
"357 641 OFFCURVE",
"330 648 OFFCURVE",
"296 648 CURVE SMOOTH",
"255 648 OFFCURVE",
"223 639 OFFCURVE",
"213 603 CURVE SMOOTH",
"160 411 OFFCURVE",
"124 199 OFFCURVE",
"112 13 CURVE SMOOTH",
"109 -26 OFFCURVE",
"122 -50 OFFCURVE",
"173 -50 CURVE SMOOTH"
);
}
);
width = 827;
}
);
leftKerningGroup = B;
note = B;
rightKerningGroup = B;
unicode = 0042;
},
{
color = 3;
glyphname = C;
lastChange = "2016-08-03 20:17:21 +0000";
layers = (
{
anchors = (
{
name = bottom;
position = "{384, 0}";
},
{
name = top;
position = "{480, 840}";
}
);
layerId = "ECEFE970-1BBB-4E0A-A452-CEB55884B4A3";
paths = (
{
closed = 1;
nodes = (
"538 -5 OFFCURVE",
"645 11 OFFCURVE",
"746 55 CURVE SMOOTH",
"794 76 OFFCURVE",
"812 107 OFFCURVE",
"812 145 CURVE SMOOTH",
"812 177 OFFCURVE",
"795 199 OFFCURVE",
"755 182 CURVE SMOOTH",
"651 138 OFFCURVE",
"566 115 OFFCURVE",
"476 115 CURVE SMOOTH",
"299 115 OFFCURVE",
"211 208 OFFCURVE",
"211 366 CURVE SMOOTH",
"211 606 OFFCURVE",
"343 734 OFFCURVE",
"471 734 CURVE SMOOTH",
"541 734 OFFCURVE",
"568 698 OFFCURVE",
"568 643 CURVE SMOOTH",
"568 611 OFFCURVE",
"558 584 OFFCURVE",
"558 562 CURVE SMOOTH",
"558 528 OFFCURVE",
"582 511 OFFCURVE",
"618 511 CURVE SMOOTH",
"672 511 OFFCURVE",
"701 567 OFFCURVE",
"701 646 CURVE SMOOTH",
"701 762 OFFCURVE",
"630 848 OFFCURVE",
"481 848 CURVE SMOOTH",
"249 848 OFFCURVE",
"64 649 OFFCURVE",
"64 348 CURVE SMOOTH",
"64 134 OFFCURVE",
"212 -5 OFFCURVE",
"453 -5 CURVE SMOOTH"
);
}
);
width = 686;
}
);
leftKerningGroup = O;
note = C;
rightKerningGroup = C;
unicode = 0043;
},
{
color = 3;
glyphname = D;
lastChange = "2016-08-03 20:38:36 +0000";
layers = (
{
anchors = (
{
name = bottom;
position = "{332, 0}";
},
{
name = center;
position = "{419, 420}";
},
{
name = top;
position = "{442, 840}";
}
);
background = {
paths = (
{
closed = 1;
nodes = (
"636 -5 OFFCURVE",
"822 194 OFFCURVE",
"822 495 CURVE SMOOTH",
"822 729 OFFCURVE",
"670 860 OFFCURVE",
"426 860 CURVE SMOOTH",
"319 860 OFFCURVE",
"182 830 OFFCURVE",
"85 764 CURVE SMOOTH",
"18 718 OFFCURVE",
"37 604 OFFCURVE",
"115 655 CURVE SMOOTH",
"194 706 OFFCURVE",
"303 746 OFFCURVE",
"415 746 CURVE SMOOTH",
"581 746 OFFCURVE",
"675 655 OFFCURVE",
"675 497 CURVE SMOOTH",
"675 273 OFFCURVE",
"571 108 OFFCURVE",
"327 108 CURVE SMOOTH",
"311 108 OFFCURVE",
"279 109 OFFCURVE",
"259 111 CURVE",
"274 279 OFFCURVE",
"314 479 OFFCURVE",
"348 582 CURVE SMOOTH",
"353 597 OFFCURVE",
"354 603 OFFCURVE",
"354 614 CURVE SMOOTH",
"354 641 OFFCURVE",
"327 650 OFFCURVE",
"293 650 CURVE SMOOTH",
"252 650 OFFCURVE",
"220 639 OFFCURVE",
"210 603 CURVE SMOOTH",
"157 411 OFFCURVE",
"123 199 OFFCURVE",
"114 78 CURVE SMOOTH",
"111 29 OFFCURVE",
"129 12 OFFCURVE",
"182 5 CURVE SMOOTH",
"233 -2 OFFCURVE",
"272 -5 OFFCURVE",
"313 -5 CURVE SMOOTH"
);
}
);
};
layerId = "ECEFE970-1BBB-4E0A-A452-CEB55884B4A3";
paths = (
{
closed = 1;
nodes = (
"631 -5 OFFCURVE",
"817 194 OFFCURVE",
"817 495 CURVE SMOOTH",
"817 729 OFFCURVE",
"665 860 OFFCURVE",
"421 860 CURVE SMOOTH",
"314 860 OFFCURVE",
"177 830 OFFCURVE",
"80 764 CURVE SMOOTH",
"54 746 OFFCURVE",
"45 727 OFFCURVE",
"45 696 CURVE SMOOTH",
"45 659 OFFCURVE",
"71 630 OFFCURVE",
"110 655 CURVE SMOOTH",
"189 706 OFFCURVE",
"298 746 OFFCURVE",
"410 746 CURVE SMOOTH",
"576 746 OFFCURVE",
"670 655 OFFCURVE",
"670 497 CURVE SMOOTH",
"670 273 OFFCURVE",
"566 108 OFFCURVE",
"322 108 CURVE SMOOTH",
"306 108 OFFCURVE",
"274 109 OFFCURVE",
"254 111 CURVE",
"269 279 OFFCURVE",
"309 479 OFFCURVE",
"343 582 CURVE SMOOTH",
"348 597 OFFCURVE",
"349 603 OFFCURVE",
"349 614 CURVE SMOOTH",
"349 641 OFFCURVE",
"322 648 OFFCURVE",
"288 648 CURVE SMOOTH",
"247 648 OFFCURVE",
"215 639 OFFCURVE",
"205 603 CURVE SMOOTH",
"152 411 OFFCURVE",
"118 199 OFFCURVE",
"109 78 CURVE SMOOTH",
"106 29 OFFCURVE",
"124 12 OFFCURVE",
"177 5 CURVE SMOOTH",
"228 -2 OFFCURVE",
"267 -5 OFFCURVE",
"308 -5 CURVE SMOOTH"
);
}
);
width = 836;
}
);
leftKerningGroup = D;
note = D;
rightKerningGroup = O;
rightMetricsKey = O;
unicode = 0044;
},
{
color = 3;
glyphname = Eth;
lastChange = "2016-08-02 20:43:47 +0000";
layers = (
{
background = {
paths = (
{
closed = 1;
nodes = (
"622 -5 OFFCURVE",
"808 209 OFFCURVE",
"808 494 CURVE SMOOTH",
"808 714 OFFCURVE",
"671 860 OFFCURVE",
"429 860 CURVE SMOOTH",
"377 860 OFFCURVE",
"333 857 OFFCURVE",
"296 848 CURVE SMOOTH",
"268 841 OFFCURVE",
"256 823 OFFCURVE",
"248 798 CURVE SMOOTH",
"176 579 OFFCURVE",
"115 314 OFFCURVE",
"94 78 CURVE SMOOTH",
"90 29 OFFCURVE",
"109 12 OFFCURVE",
"160 5 CURVE SMOOTH",
"211 -2 OFFCURVE",
"243 -5 OFFCURVE",
"299 -5 CURVE SMOOTH"
);
},
{
closed = 1;
nodes = (
"496 381 OFFCURVE",
"505 414 OFFCURVE",
"505 448 CURVE SMOOTH",
"505 484 OFFCURVE",
"486 503 OFFCURVE",
"396 503 CURVE SMOOTH",
"312 503 OFFCURVE",
"285 505 OFFCURVE",
"143 505 CURVE SMOOTH",
"59 505 OFFCURVE",
"20 484 OFFCURVE",
"20 429 CURVE SMOOTH",
"20 404 OFFCURVE",
"32 383 OFFCURVE",
"70 383 CURVE SMOOTH",
"126 383 OFFCURVE",
"148 384 OFFCURVE",
"240 384 CURVE SMOOTH",
"294 384 OFFCURVE",
"387 381 OFFCURVE",
"442 381 CURVE SMOOTH"
);
},
{
closed = 1;
nodes = (
"291 112 OFFCURVE",
"266 113 OFFCURVE",
"245 115 CURVE",
"260 283 OFFCURVE",
"312 543 OFFCURVE",
"378 743 CURVE",
"389 744 OFFCURVE",
"400 744 OFFCURVE",
"416 744 CURVE SMOOTH",
"552 744 OFFCURVE",
"657 665 OFFCURVE",
"657 489 CURVE SMOOTH",
"657 286 OFFCURVE",
"553 112 OFFCURVE",
"312 112 CURVE SMOOTH"
);
}
);
};
layerId = "ECEFE970-1BBB-4E0A-A452-CEB55884B4A3";
paths = (
{
closed = 1;
nodes = (
"617 -5 OFFCURVE",
"803 209 OFFCURVE",
"803 494 CURVE SMOOTH",
"803 714 OFFCURVE",
"666 860 OFFCURVE",
"424 860 CURVE SMOOTH",
"372 860 OFFCURVE",
"328 857 OFFCURVE",
"291 848 CURVE SMOOTH",
"263 841 OFFCURVE",
"251 823 OFFCURVE",
"243 798 CURVE SMOOTH",
"171 579 OFFCURVE",
"110 314 OFFCURVE",
"89 78 CURVE SMOOTH",
"85 29 OFFCURVE",
"104 12 OFFCURVE",
"155 5 CURVE SMOOTH",
"206 -2 OFFCURVE",
"248 -5 OFFCURVE",
"294 -5 CURVE SMOOTH"
);
},
{
closed = 1;
nodes = (
"491 381 OFFCURVE",
"500 414 OFFCURVE",
"500 448 CURVE SMOOTH",
"500 484 OFFCURVE",
"481 503 OFFCURVE",
"391 503 CURVE SMOOTH",
"307 503 OFFCURVE",
"280 505 OFFCURVE",
"138 505 CURVE SMOOTH",
"54 505 OFFCURVE",
"15 484 OFFCURVE",
"15 429 CURVE SMOOTH",
"15 404 OFFCURVE",
"27 383 OFFCURVE",
"65 383 CURVE SMOOTH",
"121 383 OFFCURVE",
"143 384 OFFCURVE",
"235 384 CURVE SMOOTH",
"289 384 OFFCURVE",
"382 381 OFFCURVE",
"437 381 CURVE SMOOTH"
);
},
{
closed = 1;
nodes = (
"286 108 OFFCURVE",
"255 109 OFFCURVE",
"234 111 CURVE",
"249 279 OFFCURVE",
"301 547 OFFCURVE",
"367 747 CURVE",
"378 748 OFFCURVE",
"395 748 OFFCURVE",
"411 748 CURVE SMOOTH",
"551 748 OFFCURVE",
"656 669 OFFCURVE",
"656 489 CURVE SMOOTH",
"656 286 OFFCURVE",
"552 108 OFFCURVE",
"307 108 CURVE SMOOTH"
);
}
);
width = 821;
}
);
leftKerningGroup = Eth;
note = Eth;
rightKerningGroup = O;
rightMetricsKey = D.ss01;
unicode = 00D0;
},
{
color = 3;
glyphname = E;
lastChange = "2016-08-03 20:17:33 +0000";
layers = (
{
anchors = (
{
name = bottom;
position = "{372, 0}";
},
{
name = ogonek;
position = "{506, 10}";
},
{
name = top;
position = "{466, 840}";
},
{
name = topleft;
position = "{44, 840}";
}
);
background = {
paths = (
{
closed = 1;
nodes = (
"533 -5 OFFCURVE",
"673 15 OFFCURVE",
"785 69 CURVE",
"776 190 LINE",
"679 145 OFFCURVE",
"543 115 OFFCURVE",
"426 115 CURVE SMOOTH",
"253 115 OFFCURVE",
"184 160 OFFCURVE",
"184 240 CURVE SMOOTH",
"184 309 OFFCURVE",
"249 382 OFFCURVE",
"425 386 CURVE SMOOTH",
"473 387 OFFCURVE",
"484 417 OFFCURVE",
"485 449 CURVE SMOOTH",
"486 480 OFFCURVE",
"476 492 OFFCURVE",
"445 493 CURVE SMOOTH",
"320 497 OFFCURVE",
"281 548 OFFCURVE",
"281 604 CURVE SMOOTH",
"281 685 OFFCURVE",
"355 737 OFFCURVE",
"468 737 CURVE SMOOTH",
"558 737 OFFCURVE",
"585 698 OFFCURVE",
"585 656 CURVE SMOOTH",
"585 621 OFFCURVE",
"575 603 OFFCURVE",
"575 574 CURVE SMOOTH",
"575 540 OFFCURVE",
"599 522 OFFCURVE",
"635 522 CURVE SMOOTH",
"689 522 OFFCURVE",
"718 579 OFFCURVE",
"718 656 CURVE SMOOTH",
"718 762 OFFCURVE",
"643 848 OFFCURVE",
"470 848 CURVE SMOOTH",
"287 848 OFFCURVE",
"133 753 OFFCURVE",
"133 605 CURVE SMOOTH",
"133 527 OFFCURVE",
"188 450 OFFCURVE",
"299 441 CURVE",
"310 460 LINE",
"127 432 OFFCURVE",
"36 341 OFFCURVE",
"36 215 CURVE SMOOTH",
"36 92 OFFCURVE",
"155 -5 OFFCURVE",
"415 -5 CURVE SMOOTH"
);
}
);
};
layerId = "ECEFE970-1BBB-4E0A-A452-CEB55884B4A3";
paths = (
{
closed = 1;
nodes = (
"528 -5 OFFCURVE",
"668 18 OFFCURVE",
"748 56 CURVE SMOOTH",
"797 80 OFFCURVE",
"812 107 OFFCURVE",
"812 145 CURVE SMOOTH",
"812 177 OFFCURVE",
"795 199 OFFCURVE",
"755 182 CURVE SMOOTH",
"674 148 OFFCURVE",
"538 115 OFFCURVE",
"421 115 CURVE SMOOTH",
"248 115 OFFCURVE",
"179 160 OFFCURVE",
"179 240 CURVE SMOOTH",
"179 309 OFFCURVE",
"244 382 OFFCURVE",
"420 386 CURVE SMOOTH",
"468 387 OFFCURVE",
"479 417 OFFCURVE",
"480 449 CURVE SMOOTH",
"481 480 OFFCURVE",
"471 492 OFFCURVE",
"440 493 CURVE SMOOTH",
"315 497 OFFCURVE",
"276 548 OFFCURVE",
"276 604 CURVE SMOOTH",
"276 685 OFFCURVE",
"350 737 OFFCURVE",
"463 737 CURVE SMOOTH",
"553 737 OFFCURVE",
"580 698 OFFCURVE",
"580 656 CURVE SMOOTH",
"580 621 OFFCURVE",
"570 603 OFFCURVE",
"570 574 CURVE SMOOTH",
"570 540 OFFCURVE",
"594 524 OFFCURVE",
"630 524 CURVE SMOOTH",
"684 524 OFFCURVE",
"713 579 OFFCURVE",
"713 656 CURVE SMOOTH",
"713 762 OFFCURVE",
"638 848 OFFCURVE",
"465 848 CURVE SMOOTH",
"282 848 OFFCURVE",
"128 753 OFFCURVE",
"128 605 CURVE SMOOTH",
"128 527 OFFCURVE",
"183 450 OFFCURVE",
"294 441 CURVE",
"305 460 LINE",
"122 432 OFFCURVE",
"31 341 OFFCURVE",
"31 215 CURVE SMOOTH",
"31 92 OFFCURVE",
"150 -5 OFFCURVE",
"410 -5 CURVE SMOOTH"
);
}
);
width = 686;
}
);
leftKerningGroup = E;
note = E;
rightKerningGroup = E;
unicode = 0045;
},
{
color = 3;
glyphname = F;
lastChange = "2016-08-03 20:38:46 +0000";
layers = (
{
background = {
paths = (
{
closed = 1;
nodes = (
"377 -8 OFFCURVE",
"473 69 OFFCURVE",
"502 297 CURVE SMOOTH",
"531 521 OFFCURVE",
"536 593 OFFCURVE",
"550 765 CURVE",
"410 754 LINE",
"397 601 OFFCURVE",
"389 525 OFFCURVE",
"361 285 CURVE SMOOTH",
"345 148 OFFCURVE",
"289 93 OFFCURVE",
"218 92 CURVE SMOOTH",
"156 91 OFFCURVE",
"117 129 OFFCURVE",
"97 155 CURVE SMOOTH",
"72 187 OFFCURVE",
"59 194 OFFCURVE",
"44 194 CURVE SMOOTH",
"9 194 OFFCURVE",
"-10 132 OFFCURVE",
"15 93 CURVE SMOOTH",
"49 40 OFFCURVE",
"129 -8 OFFCURVE",
"224 -8 CURVE SMOOTH"
);
},
{
closed = 1;
nodes = (
"481 341 OFFCURVE",
"542 340 OFFCURVE",
"679 340 CURVE SMOOTH",
"730 340 OFFCURVE",
"756 369 OFFCURVE",
"756 413 CURVE SMOOTH",
"756 438 OFFCURVE",
"748 461 OFFCURVE",
"694 461 CURVE SMOOTH",
"651 461 OFFCURVE",
"362 454 OFFCURVE",
"326 454 CURVE SMOOTH",
"285 454 OFFCURVE",
"263 431 OFFCURVE",
"263 390 CURVE SMOOTH",
"263 356 OFFCURVE",
"290 340 OFFCURVE",
"319 340 CURVE SMOOTH"
);
},
{
closed = 1;
nodes = (
"174 460 OFFCURVE",
"259 504 OFFCURVE",
"231 548 CURVE SMOOTH",
"222 562 OFFCURVE",
"211 585 OFFCURVE",
"211 613 CURVE SMOOTH",
"211 698 OFFCURVE",
"299 728 OFFCURVE",
"592 728 CURVE SMOOTH",
"701 728 OFFCURVE",
"763 722 OFFCURVE",
"867 714 CURVE SMOOTH",
"921 710 OFFCURVE",
"944 737 OFFCURVE",
"944 778 CURVE SMOOTH",
"944 802 OFFCURVE",
"933 823 OFFCURVE",
"892 829 CURVE SMOOTH",
"798 842 OFFCURVE",
"710 847 OFFCURVE",
"592 847 CURVE SMOOTH",
"277 847 OFFCURVE",
"92 781 OFFCURVE",
"92 611 CURVE SMOOTH",
"92 556 OFFCURVE",
"112 513 OFFCURVE",
"126 501 CURVE SMOOTH"
);
}
);
};
layerId = "ECEFE970-1BBB-4E0A-A452-CEB55884B4A3";
paths = (
{
closed = 1;
nodes = (
"372 -8 OFFCURVE",
"468 69 OFFCURVE",
"497 297 CURVE SMOOTH",
"526 521 OFFCURVE",
"531 593 OFFCURVE",
"545 765 CURVE",
"405 754 LINE",
"392 601 OFFCURVE",
"384 525 OFFCURVE",
"356 285 CURVE SMOOTH",
"340 148 OFFCURVE",
"284 93 OFFCURVE",
"213 92 CURVE SMOOTH",
"151 91 OFFCURVE",
"112 129 OFFCURVE",
"92 155 CURVE SMOOTH",
"67 187 OFFCURVE",
"54 194 OFFCURVE",
"39 194 CURVE SMOOTH",
"4 194 OFFCURVE",
"-15 132 OFFCURVE",
"10 93 CURVE SMOOTH",
"44 40 OFFCURVE",
"124 -8 OFFCURVE",
"219 -8 CURVE SMOOTH"
);
},
{
closed = 1;
nodes = (
"476 341 OFFCURVE",
"537 340 OFFCURVE",
"674 340 CURVE SMOOTH",
"725 340 OFFCURVE",
"751 369 OFFCURVE",
"751 413 CURVE SMOOTH",
"751 438 OFFCURVE",
"743 461 OFFCURVE",
"689 461 CURVE SMOOTH",
"646 461 OFFCURVE",
"357 454 OFFCURVE",
"321 454 CURVE SMOOTH",
"280 454 OFFCURVE",
"258 431 OFFCURVE",
"258 390 CURVE SMOOTH",
"258 356 OFFCURVE",
"285 340 OFFCURVE",
"314 340 CURVE SMOOTH"
);
},
{
closed = 1;
nodes = (
"169 460 OFFCURVE",
"254 504 OFFCURVE",
"226 548 CURVE SMOOTH",
"217 562 OFFCURVE",
"206 585 OFFCURVE",
"206 613 CURVE SMOOTH",
"206 698 OFFCURVE",
"294 728 OFFCURVE",
"587 728 CURVE SMOOTH",
"696 728 OFFCURVE",
"758 722 OFFCURVE",
"862 714 CURVE SMOOTH",
"916 710 OFFCURVE",
"936 737 OFFCURVE",
"936 778 CURVE SMOOTH",
"936 802 OFFCURVE",
"928 823 OFFCURVE",
"887 829 CURVE SMOOTH",
"793 842 OFFCURVE",
"705 847 OFFCURVE",
"587 847 CURVE SMOOTH",
"272 847 OFFCURVE",
"87 781 OFFCURVE",
"87 611 CURVE SMOOTH",
"87 556 OFFCURVE",
"107 513 OFFCURVE",
"121 501 CURVE SMOOTH"
);
}
);
width = 712;
}
);
leftKerningGroup = F;
note = F;
rightKerningGroup = F;
unicode = 0046;
},
{
color = 3;
glyphname = G;
lastChange = "2016-08-03 19:28:52 +0000";
layers = (
{
anchors = (
{
name = bottom;
position = "{280, 22}";
},
{
name = top;
position = "{495, 840}";
}
);
background = {
paths = (
{
closed = 1;
nodes = (
"511 -5 OFFCURVE",
"565 11 OFFCURVE",
"618 37 CURVE",
"629 152 LINE",
"578 129 OFFCURVE",
"527 115 OFFCURVE",
"471 115 CURVE SMOOTH",
"304 115 OFFCURVE",
"216 208 OFFCURVE",
"216 366 CURVE SMOOTH",
"216 610 OFFCURVE",
"348 734 OFFCURVE",
"490 734 CURVE SMOOTH",
"574 734 OFFCURVE",
"601 698 OFFCURVE",
"601 646 CURVE SMOOTH",
"601 617 OFFCURVE",
"591 590 OFFCURVE",
"591 568 CURVE SMOOTH",
"591 537 OFFCURVE",
"615 519 OFFCURVE",
"651 519 CURVE SMOOTH",
"705 519 OFFCURVE",
"734 573 OFFCURVE",
"734 649 CURVE SMOOTH",
"734 762 OFFCURVE",
"663 848 OFFCURVE",
"500 848 CURVE SMOOTH",
"254 848 OFFCURVE",
"69 649 OFFCURVE",
"69 348 CURVE SMOOTH",
"69 134 OFFCURVE",
"220 -5 OFFCURVE",
"445 -5 CURVE SMOOTH"
);
},
{
closed = 1;
nodes = (
"605 -455 OFFCURVE",
"682 -201 OFFCURVE",
"727 102 CURVE SMOOTH",
"746 231 OFFCURVE",
"755 290 OFFCURVE",
"759 330 CURVE SMOOTH",
"763 368 OFFCURVE",
"737 386 OFFCURVE",
"711 386 CURVE SMOOTH",
"524 386 LINE SMOOTH",
"491 386 OFFCURVE",
"469 363 OFFCURVE",
"469 326 CURVE SMOOTH",
"469 283 OFFCURVE",
"491 268 OFFCURVE",
"527 268 CURVE SMOOTH",
"672 268 LINE",
"631 290 LINE",
"625 238 OFFCURVE",
"619 172 OFFCURVE",
"604 60 CURVE SMOOTH",
"560 -268 OFFCURVE",
"497 -358 OFFCURVE",
"461 -358 CURVE SMOOTH",
"440 -358 OFFCURVE",
"433 -341 OFFCURVE",
"433 -319 CURVE SMOOTH",
"433 -259 OFFCURVE",
"487 -167 OFFCURVE",
"666 -39 CURVE",
"734 8 OFFCURVE",
"815 64 OFFCURVE",
"896 118 CURVE",
"874 213 LINE",
"794 159 OFFCURVE",
"726 108 OFFCURVE",
"666 61 CURVE",
"387 -142 OFFCURVE",
"335 -247 OFFCURVE",
"335 -341 CURVE SMOOTH",
"335 -408 OFFCURVE",
"381 -455 OFFCURVE",
"450 -455 CURVE SMOOTH"
);
}
);
};
layerId = "ECEFE970-1BBB-4E0A-A452-CEB55884B4A3";
paths = (
{
closed = 1;
nodes = (
"506 -5 OFFCURVE",
"560 11 OFFCURVE",
"613 37 CURVE",
"624 152 LINE",
"573 129 OFFCURVE",
"522 115 OFFCURVE",
"466 115 CURVE SMOOTH",
"299 115 OFFCURVE",
"211 208 OFFCURVE",
"211 366 CURVE SMOOTH",
"211 610 OFFCURVE",
"343 734 OFFCURVE",
"485 734 CURVE SMOOTH",
"569 734 OFFCURVE",
"596 698 OFFCURVE",
"596 646 CURVE SMOOTH",
"596 617 OFFCURVE",
"586 590 OFFCURVE",
"586 568 CURVE SMOOTH",
"586 537 OFFCURVE",
"610 519 OFFCURVE",
"646 519 CURVE SMOOTH",
"700 519 OFFCURVE",
"729 573 OFFCURVE",
"729 649 CURVE SMOOTH",
"729 762 OFFCURVE",
"658 848 OFFCURVE",
"495 848 CURVE SMOOTH",
"249 848 OFFCURVE",
"64 649 OFFCURVE",
"64 348 CURVE SMOOTH",
"64 134 OFFCURVE",
"215 -5 OFFCURVE",
"440 -5 CURVE SMOOTH"
);
},
{
closed = 1;
nodes = (
"600 -455 OFFCURVE",
"677 -201 OFFCURVE",
"722 102 CURVE SMOOTH",
"741 231 OFFCURVE",
"750 290 OFFCURVE",
"754 330 CURVE SMOOTH",
"758 368 OFFCURVE",
"732 386 OFFCURVE",
"706 386 CURVE SMOOTH",
"519 386 LINE SMOOTH",
"486 386 OFFCURVE",
"464 363 OFFCURVE",
"464 326 CURVE SMOOTH",
"464 283 OFFCURVE",
"486 268 OFFCURVE",
"522 268 CURVE SMOOTH",
"667 268 LINE",
"626 290 LINE",
"620 238 OFFCURVE",
"614 172 OFFCURVE",
"599 60 CURVE SMOOTH",
"555 -268 OFFCURVE",
"492 -358 OFFCURVE",
"456 -358 CURVE SMOOTH",
"435 -358 OFFCURVE",
"428 -341 OFFCURVE",
"428 -319 CURVE SMOOTH",
"428 -259 OFFCURVE",
"482 -167 OFFCURVE",
"661 -39 CURVE",
"729 8 OFFCURVE",
"810 64 OFFCURVE",
"891 118 CURVE SMOOTH",
"911 131 OFFCURVE",
"920 146 OFFCURVE",
"920 177 CURVE SMOOTH",
"920 201 OFFCURVE",
"910 221 OFFCURVE",
"892 221 CURVE SMOOTH",
"885 221 OFFCURVE",
"877 218 OFFCURVE",
"869 213 CURVE",
"789 159 OFFCURVE",
"721 108 OFFCURVE",
"661 61 CURVE",
"382 -142 OFFCURVE",
"330 -247 OFFCURVE",
"330 -341 CURVE SMOOTH",
"330 -408 OFFCURVE",
"376 -455 OFFCURVE",
"445 -455 CURVE SMOOTH"
);
}
);
width = 811;
}
);
leftKerningGroup = O;
note = G;
rightKerningGroup = j;
rightMetricsKey = j;
unicode = 0047;
},
{
color = 3;
glyphname = H;
lastChange = "2016-08-03 20:38:52 +0000";
layers = (
{
anchors = (
{
name = bottom;
position = "{452, 0}";
},
{
name = center;
position = "{471, 420}";
},
{
name = top;
position = "{529, 840}";
},
{
name = topleft;
position = "{34, 840}";
}
);
background = {
paths = (
{
closed = 1;
nodes = (
"863 -5 OFFCURVE",
"933 49 OFFCURVE",
"988 116 CURVE",
"952 209 LINE",
"896 142 OFFCURVE",
"856 114 OFFCURVE",
"800 114 CURVE SMOOTH",
"743 114 OFFCURVE",
"701 159 OFFCURVE",
"701 307 CURVE SMOOTH",
"701 547 OFFCURVE",
"785 790 OFFCURVE",
"844 790 CURVE SMOOTH",
"860 790 OFFCURVE",
"872 773 OFFCURVE",
"872 741 CURVE SMOOTH",
"872 536 OFFCURVE",
"745 459 OFFCURVE",
"471 445 CURVE SMOOTH",
"327 438 OFFCURVE",
"200 433 OFFCURVE",
"182 432 CURVE SMOOTH",
"122 429 OFFCURVE",
"100 409 OFFCURVE",
"100 366 CURVE SMOOTH",
"100 331 OFFCURVE",
"120 317 OFFCURVE",
"163 317 CURVE SMOOTH",
"201 317 OFFCURVE",
"300 326 OFFCURVE",
"423 335 CURVE SMOOTH",
"816 364 OFFCURVE",
"957 518 OFFCURVE",
"957 734 CURVE SMOOTH",
"957 817 OFFCURVE",
"917 877 OFFCURVE",
"849 877 CURVE SMOOTH",
"663 877 OFFCURVE",
"564 519 OFFCURVE",
"564 285 CURVE SMOOTH",
"564 93 OFFCURVE",
"651 -5 OFFCURVE",
"777 -5 CURVE SMOOTH"
);
},
{
closed = 1;
nodes = (
"251 -7 OFFCURVE",
"280 15 OFFCURVE",
"296 80 CURVE SMOOTH",
"349 293 OFFCURVE",
"397 534 OFFCURVE",
"397 665 CURVE SMOOTH",
"397 794 OFFCURVE",
"344 848 OFFCURVE",
"261 848 CURVE SMOOTH",
"166 848 OFFCURVE",
"70 786 OFFCURVE",
"14 708 CURVE SMOOTH",
"-45 626 OFFCURVE",
"15 564 OFFCURVE",
"52 613 CURVE SMOOTH",
"111 691 OFFCURVE",
"164 730 OFFCURVE",
"210 730 CURVE SMOOTH",
"236 730 OFFCURVE",
"261 718 OFFCURVE",
"261 649 CURVE SMOOTH",
"261 531 OFFCURVE",
"208 293 OFFCURVE",
"157 87 CURVE SMOOTH",
"142 25 OFFCURVE",
"161 -7 OFFCURVE",
"216 -7 CURVE SMOOTH"
);
}
);
};
layerId = "ECEFE970-1BBB-4E0A-A452-CEB55884B4A3";
paths = (
{
closed = 1;
nodes = (
"858 -5 OFFCURVE",
"928 49 OFFCURVE",
"983 116 CURVE SMOOTH",
"1000 137 OFFCURVE",
"1002 159 OFFCURVE",
"1002 178 CURVE SMOOTH",
"1002 205 OFFCURVE",
"992 223 OFFCURVE",
"974 223 CURVE SMOOTH",
"966 223 OFFCURVE",
"957 221 OFFCURVE",
"947 209 CURVE SMOOTH",
"891 142 OFFCURVE",
"851 114 OFFCURVE",
"795 114 CURVE SMOOTH",
"738 114 OFFCURVE",
"696 159 OFFCURVE",
"696 307 CURVE SMOOTH",
"696 547 OFFCURVE",
"780 790 OFFCURVE",
"839 790 CURVE SMOOTH",
"855 790 OFFCURVE",
"867 773 OFFCURVE",
"867 741 CURVE SMOOTH",
"867 536 OFFCURVE",
"740 459 OFFCURVE",
"466 445 CURVE SMOOTH",
"322 438 OFFCURVE",
"195 433 OFFCURVE",
"177 432 CURVE SMOOTH",
"117 429 OFFCURVE",
"95 409 OFFCURVE",
"95 366 CURVE SMOOTH",
"95 331 OFFCURVE",
"115 317 OFFCURVE",
"158 317 CURVE SMOOTH",
"196 317 OFFCURVE",
"295 326 OFFCURVE",
"418 335 CURVE SMOOTH",
"811 364 OFFCURVE",
"952 518 OFFCURVE",
"952 734 CURVE SMOOTH",
"952 817 OFFCURVE",
"912 877 OFFCURVE",
"844 877 CURVE SMOOTH",
"658 877 OFFCURVE",
"559 519 OFFCURVE",
"559 285 CURVE SMOOTH",
"559 93 OFFCURVE",
"646 -5 OFFCURVE",
"772 -5 CURVE SMOOTH"
);
},
{
closed = 1;
nodes = (
"246 -7 OFFCURVE",
"275 15 OFFCURVE",
"291 80 CURVE SMOOTH",
"344 293 OFFCURVE",
"392 534 OFFCURVE",
"392 665 CURVE SMOOTH",
"392 794 OFFCURVE",
"339 848 OFFCURVE",
"256 848 CURVE SMOOTH",
"161 848 OFFCURVE",
"65 786 OFFCURVE",
"9 708 CURVE SMOOTH",
"-50 626 OFFCURVE",
"10 564 OFFCURVE",
"47 613 CURVE SMOOTH",
"106 691 OFFCURVE",
"159 730 OFFCURVE",
"205 730 CURVE SMOOTH",
"231 730 OFFCURVE",
"256 718 OFFCURVE",
"256 649 CURVE SMOOTH",
"256 531 OFFCURVE",
"203 293 OFFCURVE",
"152 87 CURVE SMOOTH",
"137 25 OFFCURVE",
"156 -7 OFFCURVE",
"211 -7 CURVE SMOOTH"
);
}
);
width = 873;
}
);
leftKerningGroup = H;
note = H;
rightKerningGroup = H;
unicode = 0048;
},
{
color = 3;
glyphname = Hbar;
lastChange = "2016-08-02 21:22:10 +0000";
layers = (
{
background = {
paths = (
{
closed = 1;
nodes = (
"171 366 OFFCURVE",
"353 370 OFFCURVE",
"423 370 CURVE SMOOTH",
"481 370 OFFCURVE",
"684 370 OFFCURVE",
"768 370 CURVE SMOOTH",
"838 370 OFFCURVE",
"853 399 OFFCURVE",
"853 440 CURVE SMOOTH",
"853 468 OFFCURVE",
"837 491 OFFCURVE",
"792 491 CURVE SMOOTH",
"749 491 OFFCURVE",
"582 488 OFFCURVE",
"441 486 CURVE SMOOTH",
"303 485 OFFCURVE",
"171 484 OFFCURVE",
"145 484 CURVE SMOOTH",
"80 484 OFFCURVE",
"61 455 OFFCURVE",
"61 411 CURVE SMOOTH",
"61 374 OFFCURVE",
"85 363 OFFCURVE",
"118 364 CURVE SMOOTH"
);
},
{
closed = 1;
nodes = (
"237 848 OFFCURVE",
"209 829 OFFCURVE",
"205 778 CURVE SMOOTH",
"201 715 OFFCURVE",
"183 576 OFFCURVE",
"167 486 CURVE SMOOTH",
"160 446 OFFCURVE",
"152 403 OFFCURVE",
"144 355 CURVE SMOOTH",
"123 228 OFFCURVE",
"102 105 OFFCURVE",
"102 55 CURVE SMOOTH",
"102 19 OFFCURVE",
"120 -5 OFFCURVE",
"171 -5 CURVE SMOOTH",
"215 -5 OFFCURVE",
"242 14 OFFCURVE",
"246 65 CURVE SMOOTH",
"251 128 OFFCURVE",
"269 267 OFFCURVE",
"284 357 CURVE SMOOTH",
"306 488 LINE SMOOTH",
"327 615 OFFCURVE",
"349 738 OFFCURVE",
"349 788 CURVE SMOOTH",
"349 824 OFFCURVE",
"332 848 OFFCURVE",
"286 848 CURVE SMOOTH"
);
},
{
closed = 1;
nodes = (
"694 848 OFFCURVE",
"666 829 OFFCURVE",
"662 778 CURVE SMOOTH",
"657 715 OFFCURVE",
"640 576 OFFCURVE",
"624 486 CURVE SMOOTH",
"617 446 OFFCURVE",
"609 403 OFFCURVE",
"601 355 CURVE SMOOTH",
"580 228 OFFCURVE",
"559 105 OFFCURVE",
"559 55 CURVE SMOOTH",
"559 19 OFFCURVE",
"577 -5 OFFCURVE",
"628 -5 CURVE SMOOTH",
"672 -5 OFFCURVE",
"699 14 OFFCURVE",
"703 65 CURVE SMOOTH",
"708 128 OFFCURVE",
"726 267 OFFCURVE",
"741 357 CURVE SMOOTH",
"763 488 LINE SMOOTH",
"784 615 OFFCURVE",
"806 738 OFFCURVE",
"806 788 CURVE SMOOTH",
"806 824 OFFCURVE",
"789 848 OFFCURVE",
"743 848 CURVE SMOOTH"
);
}
);
};
layerId = "ECEFE970-1BBB-4E0A-A452-CEB55884B4A3";
paths = (
{
closed = 1;
nodes = (
"667 -5 OFFCURVE",
"694 14 OFFCURVE",
"698 65 CURVE SMOOTH",
"703 128 OFFCURVE",
"721 267 OFFCURVE",
"736 357 CURVE SMOOTH",
"758 488 LINE SMOOTH",
"779 615 OFFCURVE",
"801 738 OFFCURVE",
"801 788 CURVE SMOOTH",
"801 824 OFFCURVE",
"784 848 OFFCURVE",
"738 848 CURVE SMOOTH",
"689 848 OFFCURVE",
"661 829 OFFCURVE",
"657 778 CURVE SMOOTH",
"652 715 OFFCURVE",
"635 576 OFFCURVE",
"619 486 CURVE SMOOTH",
"612 446 OFFCURVE",
"604 403 OFFCURVE",
"596 355 CURVE SMOOTH",
"575 228 OFFCURVE",
"554 105 OFFCURVE",
"554 55 CURVE SMOOTH",
"554 19 OFFCURVE",
"572 -5 OFFCURVE",
"623 -5 CURVE SMOOTH"
);
},
{
closed = 1;
nodes = (
"210 -5 OFFCURVE",
"237 14 OFFCURVE",
"241 65 CURVE SMOOTH",
"246 128 OFFCURVE",
"264 267 OFFCURVE",
"279 357 CURVE SMOOTH",
"301 488 LINE SMOOTH",
"322 615 OFFCURVE",
"344 738 OFFCURVE",
"344 788 CURVE SMOOTH",
"344 824 OFFCURVE",
"327 848 OFFCURVE",
"281 848 CURVE SMOOTH",
"232 848 OFFCURVE",
"204 829 OFFCURVE",
"200 778 CURVE SMOOTH",
"196 715 OFFCURVE",
"178 576 OFFCURVE",
"162 486 CURVE SMOOTH",
"155 446 OFFCURVE",
"147 403 OFFCURVE",
"139 355 CURVE SMOOTH",
"118 228 OFFCURVE",
"97 105 OFFCURVE",
"97 55 CURVE SMOOTH",
"97 19 OFFCURVE",
"115 -5 OFFCURVE",
"166 -5 CURVE SMOOTH"
);
},
{
closed = 1;
nodes = (
"166 366 OFFCURVE",
"348 370 OFFCURVE",
"418 370 CURVE SMOOTH",
"476 370 OFFCURVE",
"679 370 OFFCURVE",
"763 370 CURVE SMOOTH",
"833 370 OFFCURVE",
"848 399 OFFCURVE",
"848 440 CURVE SMOOTH",
"848 468 OFFCURVE",
"832 491 OFFCURVE",
"787 491 CURVE SMOOTH",
"744 491 OFFCURVE",
"577 488 OFFCURVE",
"436 486 CURVE SMOOTH",
"298 485 OFFCURVE",
"166 484 OFFCURVE",
"140 484 CURVE SMOOTH",
"75 484 OFFCURVE",
"56 455 OFFCURVE",
"56 411 CURVE SMOOTH",
"56 374 OFFCURVE",
"80 363 OFFCURVE",
"113 364 CURVE SMOOTH"
);
},
{
closed = 1;
nodes = (
"198 596 OFFCURVE",
"380 599 OFFCURVE",
"450 599 CURVE SMOOTH",
"508 599 OFFCURVE",
"711 599 OFFCURVE",
"795 599 CURVE SMOOTH",
"865 599 OFFCURVE",
"880 624 OFFCURVE",
"880 659 CURVE SMOOTH",
"880 683 OFFCURVE",
"864 703 OFFCURVE",
"819 703 CURVE SMOOTH",
"776 703 OFFCURVE",
"609 700 OFFCURVE",
"468 699 CURVE SMOOTH",
"330 698 OFFCURVE",
"198 697 OFFCURVE",
"172 697 CURVE SMOOTH",
"107 697 OFFCURVE",
"88 672 OFFCURVE",
"88 634 CURVE SMOOTH",
"88 602 OFFCURVE",
"112 593 OFFCURVE",
"145 594 CURVE SMOOTH"
);
}
);
width = 856;
}
);
leftKerningGroup = H_ss01;
leftMetricsKey = "=H.ss01+5";
widthMetricsKey = "=H.ss01+10";
rightKerningGroup = H_ss01;
unicode = 0126;
},
{
color = 3;
glyphname = I;
lastChange = "2016-08-03 20:39:01 +0000";
layers = (
{
anchors = (
{
name = bottom;
position = "{221, 0}";
},
{
name = ogonek;
position = "{274, 10}";
},
{
name = top;
position = "{338, 840}";
},
{
name = topleft;
position = "{270, 840}";
}
);
background = {
paths = (
{
closed = 1;
nodes = (
"72 -18 OFFCURVE",
"132 -2 OFFCURVE",
"225 -2 CURVE SMOOTH",
"262 -2 OFFCURVE",
"325 -6 OFFCURVE",
"370 -6 CURVE SMOOTH",
"421 -6 OFFCURVE",
"448 24 OFFCURVE",
"448 58 CURVE SMOOTH",
"449 93 OFFCURVE",
"432 116 OFFCURVE",
"357 116 CURVE SMOOTH",
"294 116 OFFCURVE",
"163 111 OFFCURVE",
"110 110 CURVE SMOOTH",
"33 108 OFFCURVE",
"-12 80 OFFCURVE",
"-12 30 CURVE SMOOTH",
"-12 -4 OFFCURVE",
"13 -18 OFFCURVE",
"40 -18 CURVE SMOOTH"
);
},
{
closed = 1;
nodes = (
"232 720 OFFCURVE",
"294 723 OFFCURVE",
"339 723 CURVE SMOOTH",
"376 723 OFFCURVE",
"439 724 OFFCURVE",
"484 724 CURVE SMOOTH",
"535 724 OFFCURVE",
"561 755 OFFCURVE",
"561 797 CURVE SMOOTH",
"561 822 OFFCURVE",
"534 842 OFFCURVE",
"499 842 CURVE SMOOTH",
"416 842 OFFCURVE",
"257 844 OFFCURVE",
"204 841 CURVE SMOOTH",
"131 838 OFFCURVE",
"106 806 OFFCURVE",
"106 765 CURVE SMOOTH",
"106 740 OFFCURVE",
"118 720 OFFCURVE",
"169 720 CURVE SMOOTH"
);
},
{
closed = 1;
nodes = (
"255 778 LINE",
"248 717 OFFCURVE",
"231 576 OFFCURVE",
"215 486 CURVE SMOOTH",
"208 446 OFFCURVE",
"200 403 OFFCURVE",
"192 355 CURVE SMOOTH",
"171 228 OFFCURVE",
"151 105 OFFCURVE",
"146 55 CURVE",
"298 65 LINE",
"305 128 OFFCURVE",
"323 267 OFFCURVE",
"338 357 CURVE SMOOTH",
"360 488 LINE SMOOTH",
"381 615 OFFCURVE",
"405 740 OFFCURVE",
"408 788 CURVE"
);
}
);
};
layerId = "ECEFE970-1BBB-4E0A-A452-CEB55884B4A3";
paths = (
{
closed = 1;
nodes = (
"289 65 LINE",
"296 128 OFFCURVE",
"316 267 OFFCURVE",
"330 357 CURVE SMOOTH",
"351 488 LINE SMOOTH",
"371 615 OFFCURVE",
"396 740 OFFCURVE",
"399 788 CURVE",
"255 778 LINE",
"248 717 OFFCURVE",
"228 576 OFFCURVE",
"212 486 CURVE SMOOTH",
"205 446 OFFCURVE",
"198 403 OFFCURVE",
"190 355 CURVE SMOOTH",
"169 228 OFFCURVE",
"151 105 OFFCURVE",
"146 55 CURVE"
);
},
{
closed = 1;
nodes = (
"67 -18 OFFCURVE",
"127 -2 OFFCURVE",
"220 -2 CURVE SMOOTH",
"257 -2 OFFCURVE",
"320 -6 OFFCURVE",
"365 -6 CURVE SMOOTH",
"416 -6 OFFCURVE",
"443 23 OFFCURVE",
"443 56 CURVE SMOOTH",
"443 90 OFFCURVE",
"427 112 OFFCURVE",
"352 112 CURVE SMOOTH",
"289 112 OFFCURVE",
"158 107 OFFCURVE",
"105 106 CURVE SMOOTH",
"28 105 OFFCURVE",
"-17 77 OFFCURVE",
"-17 29 CURVE SMOOTH",
"-17 -4 OFFCURVE",
"8 -18 OFFCURVE",
"35 -18 CURVE SMOOTH"
);
},
{
closed = 1;
nodes = (
"227 724 OFFCURVE",
"289 727 OFFCURVE",
"334 727 CURVE SMOOTH",
"371 727 OFFCURVE",
"434 728 OFFCURVE",
"479 728 CURVE SMOOTH",
"530 728 OFFCURVE",
"556 758 OFFCURVE",
"556 799 CURVE SMOOTH",
"556 823 OFFCURVE",
"529 842 OFFCURVE",
"494 842 CURVE SMOOTH",
"411 842 OFFCURVE",
"252 844 OFFCURVE",
"199 841 CURVE SMOOTH",
"126 837 OFFCURVE",
"101 807 OFFCURVE",
"101 768 CURVE SMOOTH",
"101 743 OFFCURVE",
"113 724 OFFCURVE",
"164 724 CURVE SMOOTH"
);
}
);
width = 495;
}
);
leftKerningGroup = I;
note = I;
rightKerningGroup = I;
unicode = 0049;
},
{
color = 3;
glyphname = IJ;
lastChange = "2016-08-02 15:04:43 +0000";
layers = (
{
anchors = (
{
name = top;
position = "{441, 840}";
}
);
background = {
paths = (
{
closed = 1;
nodes = (
"909 199 OFFCURVE",
"868 99 OFFCURVE",
"925 50 CURVE SMOOTH",
"964 17 OFFCURVE",
"1043 -7 OFFCURVE",
"1150 -7 CURVE SMOOTH",
"1338 -7 OFFCURVE",
"1483 96 OFFCURVE",
"1510 375 CURVE SMOOTH",
"1528 558 OFFCURVE",
"1541 657 OFFCURVE",
"1549 769 CURVE SMOOTH",
"1553 826 OFFCURVE",
"1533 852 OFFCURVE",
"1480 852 CURVE SMOOTH",
"1439 852 OFFCURVE",
"1412 828 OFFCURVE",
"1408 767 CURVE SMOOTH",
"1389 477 OFFCURVE",
"1273 361 OFFCURVE",
"1160 361 CURVE SMOOTH",
"1098 361 OFFCURVE",
"1066 391 OFFCURVE",
"1066 446 CURVE SMOOTH",
"1066 537 OFFCURVE",
"1100 642 OFFCURVE",
"1108 788 CURVE SMOOTH",
"1110 824 OFFCURVE",
"1088 852 OFFCURVE",
"1039 852 CURVE SMOOTH",
"989 852 OFFCURVE",
"965 829 OFFCURVE",
"961 788 CURVE SMOOTH",
"946 630 OFFCURVE",
"916 536 OFFCURVE",
"916 426 CURVE SMOOTH",
"916 312 OFFCURVE",
"984 234 OFFCURVE",
"1130 234 CURVE SMOOTH",
"1237 234 OFFCURVE",
"1320 285 OFFCURVE",
"1378 406 CURVE",
"1359 177 OFFCURVE",
"1286 108 OFFCURVE",
"1154 108 CURVE SMOOTH",
"1078 108 OFFCURVE",
"1014 127 OFFCURVE",
"969 158 CURVE SMOOTH"
);
},
{
closed = 1;
nodes = (
"386 -1 OFFCURVE",
"485 101 OFFCURVE",
"552 257 CURVE",
"536 181 OFFCURVE",
"522 103 OFFCURVE",
"518 65 CURVE SMOOTH",
"513 18 OFFCURVE",
"514 -5 OFFCURVE",
"574 -5 CURVE SMOOTH",
"607 -5 OFFCURVE",
"643 7 OFFCURVE",
"650 53 CURVE SMOOTH",
"681 255 OFFCURVE",
"739 637 OFFCURVE",
"750 783 CURVE SMOOTH",
"754 837 OFFCURVE",
"726 852 OFFCURVE",
"684 852 CURVE SMOOTH",
"636 852 OFFCURVE",
"614 822 OFFCURVE",
"609 781 CURVE SMOOTH",
"554 334 OFFCURVE",
"410 126 OFFCURVE",
"281 126 CURVE SMOOTH",
"242 126 OFFCURVE",
"219 147 OFFCURVE",
"219 198 CURVE SMOOTH",
"219 228 OFFCURVE",
"229 298 OFFCURVE",
"240 361 CURVE SMOOTH",
"264 494 LINE SMOOTH",
"287 621 OFFCURVE",
"308 742 OFFCURVE",
"308 792 CURVE SMOOTH",
"308 828 OFFCURVE",
"288 852 OFFCURVE",
"243 852 CURVE SMOOTH",
"193 852 OFFCURVE",
"166 833 OFFCURVE",
"162 782 CURVE SMOOTH",
"157 719 OFFCURVE",
"139 580 OFFCURVE",
"123 490 CURVE SMOOTH",
"101 367 LINE SMOOTH",
"88 296 OFFCURVE",
"75 222 OFFCURVE",
"75 170 CURVE SMOOTH",
"75 71 OFFCURVE",
"127 -1 OFFCURVE",
"244 -1 CURVE SMOOTH"
);
}
);
};
layerId = "ECEFE970-1BBB-4E0A-A452-CEB55884B4A3";
paths = (
{
closed = 1;
nodes = (
"533 -7 OFFCURVE",
"667 96 OFFCURVE",
"699 375 CURVE SMOOTH",
"720 558 OFFCURVE",
"732 657 OFFCURVE",
"740 769 CURVE SMOOTH",
"744 826 OFFCURVE",
"722 852 OFFCURVE",
"675 852 CURVE SMOOTH",
"634 852 OFFCURVE",
"607 828 OFFCURVE",
"603 767 CURVE SMOOTH",
"584 477 OFFCURVE",
"466 361 OFFCURVE",
"351 361 CURVE SMOOTH",
"291 361 OFFCURVE",
"258 391 OFFCURVE",
"258 444 CURVE SMOOTH",
"258 517 OFFCURVE",
"295 642 OFFCURVE",
"303 788 CURVE SMOOTH",
"305 824 OFFCURVE",
"283 852 OFFCURVE",
"234 852 CURVE SMOOTH",
"186 852 OFFCURVE",
"162 829 OFFCURVE",
"158 788 CURVE SMOOTH",
"143 630 OFFCURVE",
"114 526 OFFCURVE",
"114 426 CURVE SMOOTH",
"114 312 OFFCURVE",
"179 234 OFFCURVE",
"325 234 CURVE SMOOTH",
"432 234 OFFCURVE",
"515 285 OFFCURVE",
"573 406 CURVE",
"554 177 OFFCURVE",
"481 105 OFFCURVE",
"349 105 CURVE SMOOTH",
"273 105 OFFCURVE",
"209 124 OFFCURVE",
"164 155 CURVE SMOOTH",
"104 196 OFFCURVE",
"62 98 OFFCURVE",
"120 50 CURVE SMOOTH",
"159 17 OFFCURVE",
"238 -7 OFFCURVE",
"345 -7 CURVE SMOOTH"
);
}
);
width = 776;
}
);
leftKerningGroup = I_ss01;
leftMetricsKey = Y.ss01;
rightKerningGroup = Y_ss01;
rightMetricsKey = Y.ss01;
unicode = 0132;
},
{
color = 3;
glyphname = J;
lastChange = "2016-08-03 16:24:01 +0000";
layers = (
{
anchors = (
{
name = bottom;
position = "{322, -107}";
},
{
name = top;
position = "{439, 840}";
}
);
background = {
paths = (
{
closed = 1;
nodes = (
"141 438 OFFCURVE",
"247 493 OFFCURVE",
"215 548 CURVE SMOOTH",
"207 562 OFFCURVE",
"195 585 OFFCURVE",
"195 613 CURVE SMOOTH",
"195 695 OFFCURVE",
"283 726 OFFCURVE",
"466 726 CURVE SMOOTH",
"535 726 OFFCURVE",
"597 719 OFFCURVE",
"701 706 CURVE SMOOTH",
"755 699 OFFCURVE",
"773 723 OFFCURVE",
"773 767 CURVE SMOOTH",
"773 791 OFFCURVE",
"760 812 OFFCURVE",
"716 823 CURVE SMOOTH",
"652 839 OFFCURVE",
"574 847 OFFCURVE",
"496 847 CURVE SMOOTH",
"241 847 OFFCURVE",
"76 781 OFFCURVE",
"76 607 CURVE SMOOTH",
"76 566 OFFCURVE",
"87 528 OFFCURVE",
"104 500 CURVE SMOOTH"
);
},
{
closed = 1;
nodes = (
"574 739 LINE",
"566 668 OFFCURVE",
"560 624 OFFCURVE",
"554 571 CURVE SMOOTH",
"500 92 OFFCURVE",
"407 0 OFFCURVE",
"340 0 CURVE SMOOTH",
"303 0 OFFCURVE",
"279 25 OFFCURVE",
"280 74 CURVE SMOOTH",
"282 185 OFFCURVE",
"376 285 OFFCURVE",
"617 369 CURVE",
"617 469 LINE",
"373 394 OFFCURVE",
"151 259 OFFCURVE",
"151 58 CURVE SMOOTH",
"151 -33 OFFCURVE",
"212 -107 OFFCURVE",
"327 -107 CURVE SMOOTH",
"497 -107 OFFCURVE",
"637 83 OFFCURVE",
"700 556 CURVE SMOOTH",
"713 653 OFFCURVE",
"718 682 OFFCURVE",
"724 739 CURVE"
);
}
);
};
layerId = "ECEFE970-1BBB-4E0A-A452-CEB55884B4A3";
paths = (
{
closed = 1;
nodes = (
"492 -107 OFFCURVE",
"628 73 OFFCURVE",
"693 556 CURVE SMOOTH",
"706 653 OFFCURVE",
"711 682 OFFCURVE",
"717 739 CURVE",
"575 739 LINE",
"567 668 OFFCURVE",
"561 624 OFFCURVE",
"555 571 CURVE SMOOTH",
"501 92 OFFCURVE",
"402 0 OFFCURVE",
"335 0 CURVE SMOOTH",
"298 0 OFFCURVE",
"274 25 OFFCURVE",
"275 74 CURVE SMOOTH",
"277 185 OFFCURVE",
"371 285 OFFCURVE",
"612 369 CURVE",
"612 469 LINE",
"368 394 OFFCURVE",
"146 259 OFFCURVE",
"146 58 CURVE SMOOTH",
"146 -33 OFFCURVE",
"207 -107 OFFCURVE",
"322 -107 CURVE SMOOTH"
);
},
{
closed = 1;
nodes = (
"136 438 OFFCURVE",
"242 493 OFFCURVE",
"210 548 CURVE SMOOTH",
"202 562 OFFCURVE",
"190 585 OFFCURVE",
"190 613 CURVE SMOOTH",
"190 695 OFFCURVE",
"278 728 OFFCURVE",
"461 728 CURVE SMOOTH",
"530 728 OFFCURVE",
"590 721 OFFCURVE",
"694 708 CURVE SMOOTH",
"748 701 OFFCURVE",
"766 723 OFFCURVE",
"766 767 CURVE SMOOTH",
"766 791 OFFCURVE",
"753 812 OFFCURVE",
"709 823 CURVE SMOOTH",
"645 839 OFFCURVE",
"569 847 OFFCURVE",
"491 847 CURVE SMOOTH",
"236 847 OFFCURVE",
"71 781 OFFCURVE",
"71 607 CURVE SMOOTH",
"71 566 OFFCURVE",
"82 528 OFFCURVE",
"99 500 CURVE SMOOTH"
);
}
);
width = 743;
}
);
leftKerningGroup = J;
note = J;
rightKerningGroup = J;
unicode = 004A;
},
{
color = 3;
glyphname = K;
lastChange = "2016-08-03 20:18:08 +0000";
layers = (
{
anchors = (
{
name = bottom;
position = "{514, 0}";
},
{
name = top;
position = "{644, 840}";
}
);
background = {
paths = (
{
closed = 1;
nodes = (
"373 -8 OFFCURVE",
"454 67 OFFCURVE",
"483 261 CURVE SMOOTH",
"515 473 OFFCURVE",
"534 593 OFFCURVE",
"557 765 CURVE",
"415 754 LINE",
"394 601 OFFCURVE",
"356 333 OFFCURVE",
"342 240 CURVE SMOOTH",
"326 137 OFFCURVE",
"286 93 OFFCURVE",
"238 91 CURVE SMOOTH",
"186 89 OFFCURVE",
"160 119 OFFCURVE",
"120 195 CURVE SMOOTH",
"109 216 OFFCURVE",
"98 224 OFFCURVE",
"81 224 CURVE SMOOTH",
"40 224 OFFCURVE",
"18 160 OFFCURVE",
"38 111 CURVE SMOOTH",
"65 43 OFFCURVE",
"141 -8 OFFCURVE",
"235 -8 CURVE SMOOTH"
);
},
{
closed = 1;
nodes = (
"937 -5 OFFCURVE",
"997 49 OFFCURVE",
"1052 116 CURVE",
"1016 209 LINE",
"960 142 OFFCURVE",
"926 114 OFFCURVE",
"882 114 CURVE SMOOTH",
"834 114 OFFCURVE",
"802 147 OFFCURVE",
"761 235 CURVE SMOOTH",
"709 346 OFFCURVE",
"678 390 OFFCURVE",
"512 390 CURVE",
"473 336 LINE",
"545 336 OFFCURVE",
"566 315 OFFCURVE",
"630 174 CURVE SMOOTH",
"681 61 OFFCURVE",
"734 -5 OFFCURVE",
"839 -5 CURVE SMOOTH"
);
},
{
closed = 1;
nodes = (
"136 441 OFFCURVE",
"236 493 OFFCURVE",
"210 548 CURVE SMOOTH",
"203 562 OFFCURVE",
"190 585 OFFCURVE",
"190 623 CURVE SMOOTH",
"190 696 OFFCURVE",
"248 737 OFFCURVE",
"363 737 CURVE SMOOTH",
"412 737 OFFCURVE",
"461 728 OFFCURVE",
"533 714 CURVE SMOOTH",
"574 706 OFFCURVE",
"597 723 OFFCURVE",
"597 767 CURVE SMOOTH",
"597 796 OFFCURVE",
"580 813 OFFCURVE",
"548 823 CURVE SMOOTH",
"484 843 OFFCURVE",
"437 847 OFFCURVE",
"383 847 CURVE SMOOTH",
"169 847 OFFCURVE",
"71 738 OFFCURVE",
"71 617 CURVE SMOOTH",
"71 566 OFFCURVE",
"85 531 OFFCURVE",
"101 503 CURVE SMOOTH"
);
},
{
closed = 1;
nodes = (
"493 336 LINE",
"547 367 LINE",
"697 380 OFFCURVE",
"880 493 OFFCURVE",
"964 771 CURVE SMOOTH",
"977 814 OFFCURVE",
"954 842 OFFCURVE",
"909 842 CURVE SMOOTH",
"865 842 OFFCURVE",
"836 821 OFFCURVE",
"824 784 CURVE SMOOTH",
"761 591 OFFCURVE",
"667 441 OFFCURVE",
"476 441 CURVE SMOOTH",
"430 441 OFFCURVE",
"397 441 OFFCURVE",
"338 441 CURVE SMOOTH",
"313 441 OFFCURVE",
"291 420 OFFCURVE",
"291 384 CURVE SMOOTH",
"291 354 OFFCURVE",
"309 335 OFFCURVE",
"340 335 CURVE SMOOTH"
);
}
);
};
layerId = "ECEFE970-1BBB-4E0A-A452-CEB55884B4A3";
paths = (
{
closed = 1;
nodes = (
"368 -8 OFFCURVE",
"449 67 OFFCURVE",
"478 261 CURVE SMOOTH",
"510 473 OFFCURVE",
"529 593 OFFCURVE",
"552 765 CURVE",
"410 754 LINE",
"389 601 OFFCURVE",
"351 333 OFFCURVE",
"337 240 CURVE SMOOTH",
"321 137 OFFCURVE",
"281 93 OFFCURVE",
"233 91 CURVE SMOOTH",
"181 89 OFFCURVE",
"155 119 OFFCURVE",
"115 195 CURVE SMOOTH",
"104 216 OFFCURVE",
"93 224 OFFCURVE",
"76 224 CURVE SMOOTH",
"35 224 OFFCURVE",
"13 160 OFFCURVE",
"33 111 CURVE SMOOTH",
"60 43 OFFCURVE",
"136 -8 OFFCURVE",
"230 -8 CURVE SMOOTH"
);
},
{
closed = 1;
nodes = (
"932 -5 OFFCURVE",
"992 49 OFFCURVE",
"1047 116 CURVE SMOOTH",
"1064 137 OFFCURVE",
"1066 159 OFFCURVE",
"1066 178 CURVE SMOOTH",
"1066 205 OFFCURVE",
"1056 223 OFFCURVE",
"1038 223 CURVE SMOOTH",
"1030 223 OFFCURVE",
"1021 221 OFFCURVE",
"1011 209 CURVE SMOOTH",
"955 142 OFFCURVE",
"921 114 OFFCURVE",
"877 114 CURVE SMOOTH",
"829 114 OFFCURVE",
"797 147 OFFCURVE",
"756 235 CURVE SMOOTH",
"704 346 OFFCURVE",
"673 390 OFFCURVE",
"507 390 CURVE",
"468 336 LINE",
"540 336 OFFCURVE",
"561 315 OFFCURVE",
"625 174 CURVE SMOOTH",
"676 61 OFFCURVE",
"729 -5 OFFCURVE",
"834 -5 CURVE SMOOTH"
);
},
{
closed = 1;
nodes = (
"131 441 OFFCURVE",
"231 493 OFFCURVE",
"205 548 CURVE SMOOTH",
"198 562 OFFCURVE",
"185 585 OFFCURVE",
"185 623 CURVE SMOOTH",
"185 696 OFFCURVE",
"243 737 OFFCURVE",
"358 737 CURVE SMOOTH",
"407 737 OFFCURVE",
"456 728 OFFCURVE",
"528 714 CURVE SMOOTH",
"569 706 OFFCURVE",
"592 723 OFFCURVE",
"592 767 CURVE SMOOTH",
"592 796 OFFCURVE",
"575 813 OFFCURVE",
"543 823 CURVE SMOOTH",
"479 843 OFFCURVE",
"432 847 OFFCURVE",
"378 847 CURVE SMOOTH",
"164 847 OFFCURVE",
"66 738 OFFCURVE",
"66 617 CURVE SMOOTH",
"66 566 OFFCURVE",
"80 531 OFFCURVE",
"96 503 CURVE SMOOTH"
);
},
{
closed = 1;
nodes = (
"488 336 LINE",
"542 367 LINE",
"692 380 OFFCURVE",
"875 493 OFFCURVE",
"959 771 CURVE SMOOTH",
"972 814 OFFCURVE",
"949 842 OFFCURVE",
"904 842 CURVE SMOOTH",
"860 842 OFFCURVE",
"831 821 OFFCURVE",
"819 784 CURVE SMOOTH",
"756 591 OFFCURVE",
"662 441 OFFCURVE",
"471 441 CURVE SMOOTH",
"425 441 OFFCURVE",
"392 441 OFFCURVE",
"333 441 CURVE SMOOTH",
"308 441 OFFCURVE",
"286 420 OFFCURVE",
"286 384 CURVE SMOOTH",
"286 354 OFFCURVE",
"304 335 OFFCURVE",
"335 335 CURVE SMOOTH"
);
}
);
width = 937;
}
);
leftKerningGroup = K;
note = K;
rightKerningGroup = K;
unicode = 004B;
},
{
color = 3;
glyphname = L;
lastChange = "2016-08-03 20:39:14 +0000";
layers = (
{
anchors = (
{
name = bottom;
position = "{329, 0}";
},
{
name = center;
position = "{479, 390}";
},
{
name = top;
position = "{503, 840}";
},
{
name = topright;
position = "{778, 840}";
}
);
background = {
paths = (
{
closed = 1;
nodes = (
"218 -5 OFFCURVE",
"271 108 OFFCURVE",
"288 271 CURVE SMOOTH",
"311 498 LINE SMOOTH",
"328 664 OFFCURVE",
"392 736 OFFCURVE",
"508 736 CURVE SMOOTH",
"578 736 OFFCURVE",
"607 698 OFFCURVE",
"607 645 CURVE SMOOTH",
"607 611 OFFCURVE",
"597 584 OFFCURVE",
"597 562 CURVE SMOOTH",
"597 528 OFFCURVE",
"621 510 OFFCURVE",
"657 510 CURVE SMOOTH",
"711 510 OFFCURVE",
"740 567 OFFCURVE",
"740 646 CURVE SMOOTH",
"740 762 OFFCURVE",
"665 848 OFFCURVE",
"516 848 CURVE SMOOTH",
"429 848 OFFCURVE",
"348 821 OFFCURVE",
"286 767 CURVE SMOOTH",
"220 710 OFFCURVE",
"176 631 OFFCURVE",
"167 491 CURVE SMOOTH",
"148 191 LINE",
"136 200 LINE",
"29 200 OFFCURVE",
"-36 150 OFFCURVE",
"-36 86 CURVE SMOOTH",
"-36 33 OFFCURVE",
"12 -5 OFFCURVE",
"87 -5 CURVE SMOOTH"
);
},
{
closed = 1;
nodes = (
"650 -5 OFFCURVE",
"713 25 OFFCURVE",
"788 116 CURVE",
"752 208 LINE",
"704 152 OFFCURVE",
"652 127 OFFCURVE",
"574 127 CURVE SMOOTH",
"489 127 OFFCURVE",
"324 200 OFFCURVE",
"136 200 CURVE",
"90 110 LINE",
"299 110 OFFCURVE",
"388 -5 OFFCURVE",
"553 -5 CURVE SMOOTH"
);
}
);
};
layerId = "ECEFE970-1BBB-4E0A-A452-CEB55884B4A3";
paths = (
{
closed = 1;
nodes = (
"213 -5 OFFCURVE",
"266 108 OFFCURVE",
"283 271 CURVE SMOOTH",
"306 498 LINE SMOOTH",
"323 664 OFFCURVE",
"387 736 OFFCURVE",
"503 736 CURVE SMOOTH",
"573 736 OFFCURVE",
"602 698 OFFCURVE",
"602 645 CURVE SMOOTH",
"602 611 OFFCURVE",
"592 584 OFFCURVE",
"592 562 CURVE SMOOTH",
"592 528 OFFCURVE",
"616 510 OFFCURVE",
"652 510 CURVE SMOOTH",
"706 510 OFFCURVE",
"735 567 OFFCURVE",
"735 646 CURVE SMOOTH",
"735 762 OFFCURVE",
"660 848 OFFCURVE",
"511 848 CURVE SMOOTH",
"424 848 OFFCURVE",
"343 821 OFFCURVE",
"281 767 CURVE SMOOTH",
"215 710 OFFCURVE",
"171 631 OFFCURVE",
"162 491 CURVE SMOOTH",
"143 191 LINE",
"131 200 LINE",
"24 200 OFFCURVE",
"-41 150 OFFCURVE",
"-41 86 CURVE SMOOTH",
"-41 33 OFFCURVE",
"7 -5 OFFCURVE",
"82 -5 CURVE SMOOTH"
);
},
{
closed = 1;
nodes = (
"645 -5 OFFCURVE",
"708 25 OFFCURVE",
"783 116 CURVE SMOOTH",
"800 137 OFFCURVE",
"802 159 OFFCURVE",
"802 178 CURVE SMOOTH",
"802 205 OFFCURVE",
"792 223 OFFCURVE",
"774 223 CURVE SMOOTH",
"766 223 OFFCURVE",
"757 221 OFFCURVE",
"747 209 CURVE SMOOTH",
"699 153 OFFCURVE",
"647 127 OFFCURVE",
"569 127 CURVE SMOOTH",
"484 127 OFFCURVE",
"319 200 OFFCURVE",
"131 200 CURVE",
"85 110 LINE",
"294 110 OFFCURVE",
"383 -5 OFFCURVE",
"548 -5 CURVE SMOOTH"
);
}
);
width = 673;
}
);
leftKerningGroup = L;
note = L;
rightKerningGroup = L;
unicode = 004C;
},
{
color = 3;
glyphname = LJ;
lastChange = "2016-08-02 19:56:28 +0000";
layers = (
{
layerId = "ECEFE970-1BBB-4E0A-A452-CEB55884B4A3";
paths = (
{
closed = 1;
nodes = (
"213 -5 OFFCURVE",
"266 108 OFFCURVE",
"283 271 CURVE SMOOTH",
"308 518 LINE SMOOTH",
"323 664 OFFCURVE",
"387 736 OFFCURVE",
"476 736 CURVE SMOOTH",
"533 736 OFFCURVE",
"562 698 OFFCURVE",
"562 645 CURVE SMOOTH",
"562 611 OFFCURVE",
"552 584 OFFCURVE",
"552 562 CURVE SMOOTH",
"552 528 OFFCURVE",
"576 510 OFFCURVE",
"612 510 CURVE SMOOTH",
"666 510 OFFCURVE",
"695 567 OFFCURVE",
"695 646 CURVE SMOOTH",
"695 762 OFFCURVE",
"620 848 OFFCURVE",
"487 848 CURVE SMOOTH",
"305 848 OFFCURVE",
"176 712 OFFCURVE",
"163 511 CURVE SMOOTH",
"143 191 LINE",
"131 200 LINE",
"24 200 OFFCURVE",
"-41 150 OFFCURVE",
"-41 86 CURVE SMOOTH",
"-41 33 OFFCURVE",
"7 -5 OFFCURVE",
"82 -5 CURVE SMOOTH"
);
},
{
closed = 1;
nodes = (
"645 -5 OFFCURVE",
"708 25 OFFCURVE",
"783 116 CURVE",
"747 208 LINE",
"699 152 OFFCURVE",
"647 127 OFFCURVE",
"569 127 CURVE SMOOTH",
"484 127 OFFCURVE",
"319 200 OFFCURVE",
"131 200 CURVE",
"85 110 LINE",
"294 110 OFFCURVE",
"383 -5 OFFCURVE",
"548 -5 CURVE SMOOTH"
);
},
{
closed = 1;
nodes = (
"1025 -107 OFFCURVE",
"1161 73 OFFCURVE",
"1226 556 CURVE SMOOTH",
"1239 653 OFFCURVE",
"1244 682 OFFCURVE",
"1250 739 CURVE",
"1108 739 LINE",
"1100 668 OFFCURVE",
"1094 624 OFFCURVE",
"1088 571 CURVE SMOOTH",
"1034 92 OFFCURVE",
"935 0 OFFCURVE",
"868 0 CURVE SMOOTH",
"831 0 OFFCURVE",
"807 25 OFFCURVE",
"808 74 CURVE SMOOTH",
"810 185 OFFCURVE",
"904 285 OFFCURVE",
"1145 369 CURVE",
"1145 469 LINE",
"901 394 OFFCURVE",
"679 259 OFFCURVE",
"679 58 CURVE SMOOTH",
"679 -33 OFFCURVE",
"740 -107 OFFCURVE",
"855 -107 CURVE SMOOTH"
);
},
{
closed = 1;
nodes = (
"809 438 OFFCURVE",
"915 493 OFFCURVE",
"883 548 CURVE SMOOTH",
"875 562 OFFCURVE",
"863 585 OFFCURVE",
"863 613 CURVE SMOOTH",
"863 695 OFFCURVE",
"951 728 OFFCURVE",
"1034 728 CURVE SMOOTH",
"1063 728 OFFCURVE",
"1123 721 OFFCURVE",
"1227 708 CURVE SMOOTH",
"1281 701 OFFCURVE",
"1299 723 OFFCURVE",
"1299 767 CURVE SMOOTH",
"1299 791 OFFCURVE",
"1286 812 OFFCURVE",
"1242 823 CURVE SMOOTH",
"1178 839 OFFCURVE",
"1102 847 OFFCURVE",
"1064 847 CURVE SMOOTH",
"909 847 OFFCURVE",
"744 781 OFFCURVE",
"744 607 CURVE SMOOTH",
"744 566 OFFCURVE",
"755 528 OFFCURVE",
"772 500 CURVE SMOOTH"
);
}
);
width = 1276;
}
);
leftKerningGroup = L;
leftMetricsKey = L;
rightKerningGroup = J;
rightMetricsKey = J;
unicode = 01C7;
},
{
color = 3;
glyphname = Lslash;
lastChange = "2016-08-02 07:48:02 +0000";
layers = (
{
background = {
paths = (
{
closed = 1;
nodes = (
"218 -5 OFFCURVE",
"271 108 OFFCURVE",
"288 271 CURVE SMOOTH",
"311 498 LINE SMOOTH",
"326 644 OFFCURVE",
"392 716 OFFCURVE",
"508 716 CURVE SMOOTH",
"578 716 OFFCURVE",
"607 678 OFFCURVE",
"607 625 CURVE SMOOTH",
"607 591 OFFCURVE",
"597 564 OFFCURVE",
"597 542 CURVE SMOOTH",
"597 508 OFFCURVE",
"621 490 OFFCURVE",
"657 490 CURVE SMOOTH",
"711 490 OFFCURVE",
"740 547 OFFCURVE",
"740 626 CURVE SMOOTH",
"740 742 OFFCURVE",
"665 828 OFFCURVE",
"516 828 CURVE SMOOTH",
"429 828 OFFCURVE",
"348 801 OFFCURVE",
"286 747 CURVE SMOOTH",
"220 690 OFFCURVE",
"175 611 OFFCURVE",
"167 491 CURVE SMOOTH",
"148 191 LINE",
"136 200 LINE",
"29 200 OFFCURVE",
"-36 150 OFFCURVE",
"-36 86 CURVE SMOOTH",
"-36 33 OFFCURVE",
"12 -5 OFFCURVE",
"87 -5 CURVE SMOOTH"
);
},
{
closed = 1;
nodes = (
"650 -5 OFFCURVE",
"713 25 OFFCURVE",
"788 116 CURVE",
"752 208 LINE",
"704 152 OFFCURVE",
"652 127 OFFCURVE",
"574 127 CURVE SMOOTH",
"489 127 OFFCURVE",
"324 200 OFFCURVE",
"136 200 CURVE",
"90 110 LINE",
"299 110 OFFCURVE",
"388 -5 OFFCURVE",
"553 -5 CURVE SMOOTH"
);
},
{
closed = 1;
nodes = (
"331 845 OFFCURVE",
"412 908 OFFCURVE",
"581 908 CURVE SMOOTH",
"646 908 OFFCURVE",
"689 896 OFFCURVE",
"714 896 CURVE SMOOTH",
"744 896 OFFCURVE",
"767 911 OFFCURVE",
"767 942 CURVE SMOOTH",
"767 976 OFFCURVE",
"717 1013 OFFCURVE",
"579 1013 CURVE SMOOTH",
"472 1013 OFFCURVE",
"375 987 OFFCURVE",
"319 964 CURVE SMOOTH",
"253 937 OFFCURVE",
"243 916 OFFCURVE",
"243 887 CURVE SMOOTH",
"243 866 OFFCURVE",
"257 845 OFFCURVE",
"287 845 CURVE SMOOTH"
);
}
);
};
layerId = "ECEFE970-1BBB-4E0A-A452-CEB55884B4A3";
paths = (
{
closed = 1;
nodes = (
"213 -5 OFFCURVE",
"266 108 OFFCURVE",
"283 271 CURVE SMOOTH",
"306 498 LINE SMOOTH",
"321 644 OFFCURVE",
"387 716 OFFCURVE",
"503 716 CURVE SMOOTH",
"573 716 OFFCURVE",
"602 678 OFFCURVE",
"602 625 CURVE SMOOTH",
"602 591 OFFCURVE",
"592 564 OFFCURVE",
"592 542 CURVE SMOOTH",
"592 508 OFFCURVE",
"616 490 OFFCURVE",
"652 490 CURVE SMOOTH",
"706 490 OFFCURVE",
"735 547 OFFCURVE",
"735 626 CURVE SMOOTH",
"735 742 OFFCURVE",
"660 828 OFFCURVE",
"511 828 CURVE SMOOTH",
"424 828 OFFCURVE",
"343 801 OFFCURVE",
"281 747 CURVE SMOOTH",
"215 690 OFFCURVE",
"170 611 OFFCURVE",
"162 491 CURVE SMOOTH",
"143 191 LINE",
"131 200 LINE",
"24 200 OFFCURVE",
"-41 150 OFFCURVE",
"-41 86 CURVE SMOOTH",
"-41 33 OFFCURVE",
"7 -5 OFFCURVE",
"82 -5 CURVE SMOOTH"
);
},
{
closed = 1;
nodes = (
"645 -5 OFFCURVE",
"708 25 OFFCURVE",
"783 116 CURVE SMOOTH",
"800 137 OFFCURVE",
"802 159 OFFCURVE",
"802 178 CURVE SMOOTH",
"802 205 OFFCURVE",
"792 223 OFFCURVE",
"774 223 CURVE SMOOTH",
"766 223 OFFCURVE",
"757 221 OFFCURVE",
"747 209 CURVE SMOOTH",
"699 153 OFFCURVE",
"647 127 OFFCURVE",
"569 127 CURVE SMOOTH",
"484 127 OFFCURVE",
"319 200 OFFCURVE",
"131 200 CURVE",
"85 110 LINE",
"294 110 OFFCURVE",
"383 -5 OFFCURVE",
"548 -5 CURVE SMOOTH"
);
},
{
closed = 1;
nodes = (
"326 845 OFFCURVE",
"407 908 OFFCURVE",
"576 908 CURVE SMOOTH",
"641 908 OFFCURVE",
"684 896 OFFCURVE",
"709 896 CURVE SMOOTH",
"739 896 OFFCURVE",
"762 911 OFFCURVE",
"762 942 CURVE SMOOTH",
"762 976 OFFCURVE",
"712 1013 OFFCURVE",
"574 1013 CURVE SMOOTH",
"467 1013 OFFCURVE",
"370 987 OFFCURVE",
"314 964 CURVE SMOOTH",
"248 937 OFFCURVE",
"238 916 OFFCURVE",
"238 887 CURVE SMOOTH",
"238 866 OFFCURVE",
"252 845 OFFCURVE",
"282 845 CURVE SMOOTH"
);
}
);
width = 673;
}
);
leftKerningGroup = L;
leftMetricsKey = L;
note = Lslash;
rightKerningGroup = L;
rightMetricsKey = L;
unicode = 0141;
},
{
color = 3;
glyphname = M;
lastChange = "2016-08-03 20:39:25 +0000";
layers = (
{
anchors = (
{
name = bottom;
position = "{628, 0}";
},
{
name = top;
position = "{732, 840}";
}
);
background = {
paths = (
{
closed = 1;
nodes = (
"292 -5 OFFCURVE",
"302 25 OFFCURVE",
"310 86 CURVE SMOOTH",
"381 604 OFFCURVE",
"511 721 OFFCURVE",
"595 721 CURVE SMOOTH",
"634 721 OFFCURVE",
"653 698 OFFCURVE",
"653 647 CURVE SMOOTH",
"653 587 OFFCURVE",
"630 456 OFFCURVE",
"607 335 CURVE SMOOTH",
"595 272 OFFCURVE",
"568 135 OFFCURVE",
"568 81 CURVE SMOOTH",
"568 20 OFFCURVE",
"590 -5 OFFCURVE",
"633 -5 CURVE SMOOTH",
"684 -5 OFFCURVE",
"705 25 OFFCURVE",
"714 96 CURVE SMOOTH",
"775 575 OFFCURVE",
"901 721 OFFCURVE",
"986 721 CURVE SMOOTH",
"1019 721 OFFCURVE",
"1038 698 OFFCURVE",
"1038 651 CURVE SMOOTH",
"1038 607 OFFCURVE",
"1028 572 OFFCURVE",
"1020 535 CURVE SMOOTH",
"980 352 LINE SMOOTH",
"963 273 OFFCURVE",
"956 221 OFFCURVE",
"956 181 CURVE SMOOTH",
"956 69 OFFCURVE",
"1022 -5 OFFCURVE",
"1137 -5 CURVE SMOOTH",
"1211 -5 OFFCURVE",
"1277 31 OFFCURVE",
"1347 116 CURVE",
"1311 209 LINE",
"1255 142 OFFCURVE",
"1217 114 OFFCURVE",
"1172 114 CURVE SMOOTH",
"1126 114 OFFCURVE",
"1098 141 OFFCURVE",
"1098 198 CURVE SMOOTH",
"1098 229 OFFCURVE",
"1102 254 OFFCURVE",
"1108 284 CURVE SMOOTH",
"1169 570 LINE SMOOTH",
"1177 609 OFFCURVE",
"1182 645 OFFCURVE",
"1182 677 CURVE SMOOTH",
"1182 783 OFFCURVE",
"1132 848 OFFCURVE",
"1037 848 CURVE SMOOTH",
"927 848 OFFCURVE",
"836 782 OFFCURVE",
"766 590 CURVE",
"773 628 OFFCURVE",
"775 653 OFFCURVE",
"775 672 CURVE SMOOTH",
"775 785 OFFCURVE",
"721 848 OFFCURVE",
"635 848 CURVE SMOOTH",
"534 848 OFFCURVE",
"433 790 OFFCURVE",
"351 556 CURVE",
"361 614 OFFCURVE",
"371 666 OFFCURVE",
"371 711 CURVE SMOOTH",
"371 801 OFFCURVE",
"329 848 OFFCURVE",
"257 848 CURVE SMOOTH",
"178 848 OFFCURVE",
"96 797 OFFCURVE",
"32 708 CURVE SMOOTH",
"11 679 OFFCURVE",
"4 659 OFFCURVE",
"4 638 CURVE SMOOTH",
"4 603 OFFCURVE",
"40 573 OFFCURVE",
"70 613 CURVE SMOOTH",
"133 697 OFFCURVE",
"183 724 OFFCURVE",
"213 724 CURVE SMOOTH",
"233 724 OFFCURVE",
"246 713 OFFCURVE",
"246 679 CURVE SMOOTH",
"246 653 OFFCURVE",
"244 615 OFFCURVE",
"237 559 CURVE SMOOTH",
"209 333 OFFCURVE",
"168 159 OFFCURVE",
"168 84 CURVE SMOOTH",
"168 20 OFFCURVE",
"191 -5 OFFCURVE",
"237 -5 CURVE SMOOTH"
);
}
);
};
layerId = "ECEFE970-1BBB-4E0A-A452-CEB55884B4A3";
paths = (
{
closed = 1;
nodes = (
"287 -5 OFFCURVE",
"297 25 OFFCURVE",
"305 86 CURVE SMOOTH",
"376 604 OFFCURVE",
"506 721 OFFCURVE",
"590 721 CURVE SMOOTH",
"629 721 OFFCURVE",
"648 698 OFFCURVE",
"648 647 CURVE SMOOTH",
"648 587 OFFCURVE",
"625 456 OFFCURVE",
"602 335 CURVE SMOOTH",
"590 272 OFFCURVE",
"563 135 OFFCURVE",
"563 71 CURVE SMOOTH",
"563 10 OFFCURVE",
"585 -5 OFFCURVE",
"628 -5 CURVE SMOOTH",
"679 -5 OFFCURVE",
"699 15 OFFCURVE",
"709 96 CURVE SMOOTH",
"770 575 OFFCURVE",
"896 721 OFFCURVE",
"981 721 CURVE SMOOTH",
"1014 721 OFFCURVE",
"1033 698 OFFCURVE",
"1033 651 CURVE SMOOTH",
"1033 607 OFFCURVE",
"1023 572 OFFCURVE",
"1015 535 CURVE SMOOTH",
"975 352 LINE SMOOTH",
"958 273 OFFCURVE",
"951 221 OFFCURVE",
"951 181 CURVE SMOOTH",
"951 69 OFFCURVE",
"1017 -5 OFFCURVE",
"1132 -5 CURVE SMOOTH",
"1206 -5 OFFCURVE",
"1272 31 OFFCURVE",
"1342 116 CURVE SMOOTH",
"1359 137 OFFCURVE",
"1361 159 OFFCURVE",
"1361 178 CURVE SMOOTH",
"1361 205 OFFCURVE",
"1351 223 OFFCURVE",
"1333 223 CURVE SMOOTH",
"1325 223 OFFCURVE",
"1316 221 OFFCURVE",
"1306 209 CURVE SMOOTH",
"1250 142 OFFCURVE",
"1212 114 OFFCURVE",
"1167 114 CURVE SMOOTH",
"1121 114 OFFCURVE",
"1093 141 OFFCURVE",
"1093 198 CURVE SMOOTH",
"1093 229 OFFCURVE",
"1097 254 OFFCURVE",
"1103 284 CURVE SMOOTH",
"1164 570 LINE SMOOTH",
"1172 609 OFFCURVE",
"1177 645 OFFCURVE",
"1177 677 CURVE SMOOTH",
"1177 783 OFFCURVE",
"1127 848 OFFCURVE",
"1032 848 CURVE SMOOTH",
"922 848 OFFCURVE",
"831 782 OFFCURVE",
"761 590 CURVE",
"768 628 OFFCURVE",
"770 653 OFFCURVE",
"770 672 CURVE SMOOTH",
"770 785 OFFCURVE",
"716 848 OFFCURVE",
"630 848 CURVE SMOOTH",
"529 848 OFFCURVE",
"428 790 OFFCURVE",
"346 556 CURVE",
"356 614 OFFCURVE",
"366 666 OFFCURVE",
"366 711 CURVE SMOOTH",
"366 801 OFFCURVE",
"324 848 OFFCURVE",
"252 848 CURVE SMOOTH",
"173 848 OFFCURVE",
"91 797 OFFCURVE",
"27 708 CURVE SMOOTH",
"6 679 OFFCURVE",
"-1 659 OFFCURVE",
"-1 638 CURVE SMOOTH",
"-1 603 OFFCURVE",
"35 573 OFFCURVE",
"65 613 CURVE SMOOTH",
"128 697 OFFCURVE",
"178 724 OFFCURVE",
"208 724 CURVE SMOOTH",
"228 724 OFFCURVE",
"241 713 OFFCURVE",
"241 679 CURVE SMOOTH",
"241 653 OFFCURVE",
"239 615 OFFCURVE",
"232 559 CURVE SMOOTH",
"204 333 OFFCURVE",
"163 159 OFFCURVE",
"163 74 CURVE SMOOTH",
"163 10 OFFCURVE",
"186 -5 OFFCURVE",
"232 -5 CURVE SMOOTH"
);
}
);
width = 1232;
}
);
leftKerningGroup = N;
leftMetricsKey = N;
note = M;
rightKerningGroup = N;
rightMetricsKey = N;
unicode = 004D;
},
{
color = 3;
glyphname = N;
lastChange = "2016-08-03 20:39:28 +0000";
layers = (
{
anchors = (
{
name = bottom;
position = "{437, 0}";
},
{
name = top;
position = "{551, 840}";
}
);
background = {
paths = (
{
closed = 1;
nodes = (
"292 -5 OFFCURVE",
"302 25 OFFCURVE",
"310 86 CURVE SMOOTH",
"372 556 OFFCURVE",
"510 721 OFFCURVE",
"621 721 CURVE SMOOTH",
"666 721 OFFCURVE",
"690 692 OFFCURVE",
"690 651 CURVE SMOOTH",
"690 607 OFFCURVE",
"680 572 OFFCURVE",
"672 535 CURVE SMOOTH",
"632 352 LINE SMOOTH",
"615 273 OFFCURVE",
"608 226 OFFCURVE",
"608 181 CURVE SMOOTH",
"608 69 OFFCURVE",
"674 -5 OFFCURVE",
"789 -5 CURVE SMOOTH",
"863 -5 OFFCURVE",
"929 31 OFFCURVE",
"999 116 CURVE",
"963 209 LINE",
"907 142 OFFCURVE",
"868 114 OFFCURVE",
"824 114 CURVE SMOOTH",
"778 114 OFFCURVE",
"750 141 OFFCURVE",
"750 198 CURVE SMOOTH",
"750 229 OFFCURVE",
"754 254 OFFCURVE",
"760 284 CURVE SMOOTH",
"821 570 LINE SMOOTH",
"829 609 OFFCURVE",
"834 645 OFFCURVE",
"834 677 CURVE SMOOTH",
"834 776 OFFCURVE",
"782 848 OFFCURVE",
"669 848 CURVE SMOOTH",
"529 848 OFFCURVE",
"427 741 OFFCURVE",
"361 547 CURVE",
"370 609 OFFCURVE",
"377 668 OFFCURVE",
"377 715 CURVE SMOOTH",
"377 801 OFFCURVE",
"341 848 OFFCURVE",
"267 848 CURVE SMOOTH",
"178 848 OFFCURVE",
"96 797 OFFCURVE",
"32 708 CURVE SMOOTH",
"11 679 OFFCURVE",
"4 661 OFFCURVE",
"4 638 CURVE SMOOTH",
"4 603 OFFCURVE",
"40 573 OFFCURVE",
"70 613 CURVE SMOOTH",
"132 696 OFFCURVE",
"183 724 OFFCURVE",
"213 724 CURVE SMOOTH",
"233 724 OFFCURVE",
"246 713 OFFCURVE",
"246 679 CURVE SMOOTH",
"246 653 OFFCURVE",
"243 615 OFFCURVE",
"236 559 CURVE SMOOTH",
"209 333 OFFCURVE",
"168 159 OFFCURVE",
"168 84 CURVE SMOOTH",
"168 20 OFFCURVE",
"191 -5 OFFCURVE",
"237 -5 CURVE SMOOTH"
);
},
{
closed = 1;
nodes = (
"999 116 LINE",
"1016 137 OFFCURVE",
"1018 159 OFFCURVE",
"1018 178 CURVE SMOOTH",
"1018 205 OFFCURVE",
"1008 223 OFFCURVE",
"990 223 CURVE SMOOTH",
"982 223 OFFCURVE",
"973 221 OFFCURVE",
"963 209 CURVE"
);
}
);
};
layerId = "ECEFE970-1BBB-4E0A-A452-CEB55884B4A3";
paths = (
{
closed = 1;
nodes = (
"287 -5 OFFCURVE",
"297 25 OFFCURVE",
"305 86 CURVE SMOOTH",
"367 556 OFFCURVE",
"505 721 OFFCURVE",
"616 721 CURVE SMOOTH",
"661 721 OFFCURVE",
"685 692 OFFCURVE",
"685 651 CURVE SMOOTH",
"685 607 OFFCURVE",
"675 572 OFFCURVE",
"667 535 CURVE SMOOTH",
"627 352 LINE SMOOTH",
"610 273 OFFCURVE",
"603 226 OFFCURVE",
"603 181 CURVE SMOOTH",
"603 69 OFFCURVE",
"669 -5 OFFCURVE",
"784 -5 CURVE SMOOTH",
"858 -5 OFFCURVE",
"924 31 OFFCURVE",
"994 116 CURVE SMOOTH",
"1011 137 OFFCURVE",
"1013 159 OFFCURVE",
"1013 178 CURVE SMOOTH",
"1013 205 OFFCURVE",
"1003 223 OFFCURVE",
"985 223 CURVE SMOOTH",
"977 223 OFFCURVE",
"968 221 OFFCURVE",
"958 209 CURVE SMOOTH",
"902 142 OFFCURVE",
"863 114 OFFCURVE",
"819 114 CURVE SMOOTH",
"773 114 OFFCURVE",
"745 141 OFFCURVE",
"745 198 CURVE SMOOTH",
"745 229 OFFCURVE",
"749 254 OFFCURVE",
"755 284 CURVE SMOOTH",
"816 570 LINE SMOOTH",
"824 609 OFFCURVE",
"829 645 OFFCURVE",
"829 677 CURVE SMOOTH",
"829 776 OFFCURVE",
"777 848 OFFCURVE",
"664 848 CURVE SMOOTH",
"524 848 OFFCURVE",
"422 741 OFFCURVE",
"356 547 CURVE",
"365 609 OFFCURVE",
"372 668 OFFCURVE",
"372 715 CURVE SMOOTH",
"372 801 OFFCURVE",
"336 848 OFFCURVE",
"262 848 CURVE SMOOTH",
"173 848 OFFCURVE",
"91 797 OFFCURVE",
"27 708 CURVE SMOOTH",
"6 679 OFFCURVE",
"-1 661 OFFCURVE",
"-1 638 CURVE SMOOTH",
"-1 603 OFFCURVE",
"35 573 OFFCURVE",
"65 613 CURVE SMOOTH",
"127 696 OFFCURVE",
"178 724 OFFCURVE",
"208 724 CURVE SMOOTH",
"228 724 OFFCURVE",
"241 713 OFFCURVE",
"241 679 CURVE SMOOTH",
"241 653 OFFCURVE",
"238 615 OFFCURVE",
"231 559 CURVE SMOOTH",
"204 333 OFFCURVE",
"163 159 OFFCURVE",
"163 74 CURVE SMOOTH",
"163 10 OFFCURVE",
"186 -5 OFFCURVE",
"232 -5 CURVE SMOOTH"
);
}
);
width = 884;
}
);
leftKerningGroup = N;
note = N;
rightKerningGroup = N;
unicode = 004E;
},
{
color = 3;
glyphname = NJ;
lastChange = "2016-08-03 16:26:44 +0000";
layers = (
{
components = (
{
name = N;
}
);
layerId = "ECEFE970-1BBB-4E0A-A452-CEB55884B4A3";
paths = (
{
closed = 1;
nodes = (
"1246 -107 OFFCURVE",
"1382 73 OFFCURVE",
"1447 556 CURVE SMOOTH",
"1460 653 OFFCURVE",
"1465 682 OFFCURVE",
"1471 739 CURVE",
"1329 739 LINE",
"1321 668 OFFCURVE",
"1315 624 OFFCURVE",
"1309 571 CURVE SMOOTH",
"1255 92 OFFCURVE",
"1156 0 OFFCURVE",
"1089 0 CURVE SMOOTH",
"1052 0 OFFCURVE",
"1028 25 OFFCURVE",
"1029 74 CURVE SMOOTH",
"1031 185 OFFCURVE",
"1125 285 OFFCURVE",
"1366 369 CURVE",
"1366 469 LINE",
"1122 394 OFFCURVE",
"900 259 OFFCURVE",
"900 58 CURVE SMOOTH",
"900 -33 OFFCURVE",
"961 -107 OFFCURVE",
"1076 -107 CURVE SMOOTH"
);
},
{
closed = 1;
nodes = (
"960 438 OFFCURVE",
"1066 493 OFFCURVE",
"1034 548 CURVE SMOOTH",
"1026 562 OFFCURVE",
"1014 585 OFFCURVE",
"1014 613 CURVE SMOOTH",
"1014 695 OFFCURVE",
"1102 728 OFFCURVE",
"1215 728 CURVE SMOOTH",
"1284 728 OFFCURVE",
"1344 721 OFFCURVE",
"1448 708 CURVE SMOOTH",
"1502 701 OFFCURVE",
"1520 723 OFFCURVE",
"1520 767 CURVE SMOOTH",
"1520 791 OFFCURVE",
"1507 812 OFFCURVE",
"1463 823 CURVE SMOOTH",
"1399 839 OFFCURVE",
"1323 847 OFFCURVE",
"1245 847 CURVE SMOOTH",
"1060 847 OFFCURVE",
"895 781 OFFCURVE",
"895 607 CURVE SMOOTH",
"895 566 OFFCURVE",
"906 528 OFFCURVE",
"923 500 CURVE SMOOTH"
);
}
);
width = 1497;
}
);
leftKerningGroup = N;
leftMetricsKey = N;
rightKerningGroup = J;
rightMetricsKey = J;
unicode = 01CA;
},
{
color = 3;
glyphname = Eng;
lastChange = "2016-08-02 12:51:19 +0000";
layers = (
{
background = {
paths = (
{
closed = 1;
nodes = (
"563 -347 OFFCURVE",
"649 -169 OFFCURVE",
"721 139 CURVE SMOOTH",
"789 430 LINE SMOOTH",
"804 492 OFFCURVE",
"829 598 OFFCURVE",
"829 682 CURVE SMOOTH",
"829 776 OFFCURVE",
"782 848 OFFCURVE",
"669 848 CURVE SMOOTH",
"529 848 OFFCURVE",
"427 741 OFFCURVE",
"361 547 CURVE",
"370 609 OFFCURVE",
"377 668 OFFCURVE",
"377 715 CURVE SMOOTH",
"377 801 OFFCURVE",
"341 848 OFFCURVE",
"267 848 CURVE SMOOTH",
"178 848 OFFCURVE",
"96 797 OFFCURVE",
"32 708 CURVE SMOOTH",
"11 679 OFFCURVE",
"4 661 OFFCURVE",
"4 638 CURVE SMOOTH",
"4 615 OFFCURVE",
"20 594 OFFCURVE",
"39 594 CURVE SMOOTH",
"49 594 OFFCURVE",
"60 599 OFFCURVE",
"70 613 CURVE SMOOTH",
"132 696 OFFCURVE",
"183 724 OFFCURVE",
"213 724 CURVE SMOOTH",
"233 724 OFFCURVE",
"246 713 OFFCURVE",
"246 679 CURVE SMOOTH",
"246 653 OFFCURVE",
"243 615 OFFCURVE",
"236 559 CURVE SMOOTH",
"209 333 OFFCURVE",
"168 159 OFFCURVE",
"168 84 CURVE SMOOTH",
"168 20 OFFCURVE",
"191 -5 OFFCURVE",
"237 -5 CURVE SMOOTH",
"292 -5 OFFCURVE",
"302 25 OFFCURVE",
"310 86 CURVE SMOOTH",
"372 556 OFFCURVE",
"510 721 OFFCURVE",
"621 721 CURVE SMOOTH",
"666 721 OFFCURVE",
"686 692 OFFCURVE",
"686 652 CURVE SMOOTH",
"686 597 OFFCURVE",
"666 517 OFFCURVE",
"644 415 CURVE SMOOTH",
"581 120 LINE SMOOTH",
"514 -198 OFFCURVE",
"469 -248 OFFCURVE",
"401 -248 CURVE SMOOTH",
"362 -248 OFFCURVE",
"320 -231 OFFCURVE",
"280 -176 CURVE SMOOTH",
"266 -156 OFFCURVE",
"248 -148 OFFCURVE",
"231 -148 CURVE SMOOTH",
"201 -148 OFFCURVE",
"173 -175 OFFCURVE",
"173 -208 CURVE SMOOTH",
"173 -220 OFFCURVE",
"177 -233 OFFCURVE",
"186 -246 CURVE SMOOTH",
"233 -314 OFFCURVE",
"313 -347 OFFCURVE",
"390 -347 CURVE SMOOTH"
);
},
{
closed = 1;
nodes = (
"884 -5 OFFCURVE",
"944 49 OFFCURVE",
"999 116 CURVE",
"963 209 LINE",
"907 142 OFFCURVE",
"873 116 OFFCURVE",
"829 116 CURVE SMOOTH",
"781 116 OFFCURVE",
"729 137 OFFCURVE",
"678 175 CURVE",
"654 51 LINE",
"694 20 OFFCURVE",
"742 -5 OFFCURVE",
"806 -5 CURVE SMOOTH"
);
}
);
};
layerId = "ECEFE970-1BBB-4E0A-A452-CEB55884B4A3";
paths = (
{
closed = 1;
nodes = (
"558 -347 OFFCURVE",
"644 -169 OFFCURVE",
"716 139 CURVE SMOOTH",
"784 430 LINE SMOOTH",
"799 492 OFFCURVE",
"824 598 OFFCURVE",
"824 682 CURVE SMOOTH",
"824 776 OFFCURVE",
"777 848 OFFCURVE",
"664 848 CURVE SMOOTH",
"524 848 OFFCURVE",
"422 741 OFFCURVE",
"356 547 CURVE",
"365 609 OFFCURVE",
"372 668 OFFCURVE",
"372 715 CURVE SMOOTH",
"372 801 OFFCURVE",
"336 848 OFFCURVE",
"262 848 CURVE SMOOTH",
"173 848 OFFCURVE",
"91 797 OFFCURVE",
"27 708 CURVE SMOOTH",
"6 679 OFFCURVE",
"-1 661 OFFCURVE",
"-1 638 CURVE SMOOTH",
"-1 615 OFFCURVE",
"15 594 OFFCURVE",
"34 594 CURVE SMOOTH",
"44 594 OFFCURVE",
"55 599 OFFCURVE",
"65 613 CURVE SMOOTH",
"127 696 OFFCURVE",
"178 724 OFFCURVE",
"208 724 CURVE SMOOTH",
"228 724 OFFCURVE",
"241 713 OFFCURVE",
"241 679 CURVE SMOOTH",
"241 653 OFFCURVE",
"238 615 OFFCURVE",
"231 559 CURVE SMOOTH",
"204 333 OFFCURVE",
"163 159 OFFCURVE",
"163 84 CURVE SMOOTH",
"163 20 OFFCURVE",
"186 -5 OFFCURVE",
"232 -5 CURVE SMOOTH",
"287 -5 OFFCURVE",
"297 25 OFFCURVE",
"305 86 CURVE SMOOTH",
"367 556 OFFCURVE",
"505 721 OFFCURVE",
"616 721 CURVE SMOOTH",
"661 721 OFFCURVE",
"681 692 OFFCURVE",
"681 652 CURVE SMOOTH",
"681 597 OFFCURVE",
"661 517 OFFCURVE",
"639 415 CURVE SMOOTH",
"576 120 LINE SMOOTH",
"509 -198 OFFCURVE",
"464 -248 OFFCURVE",
"396 -248 CURVE SMOOTH",
"357 -248 OFFCURVE",
"315 -231 OFFCURVE",
"275 -176 CURVE SMOOTH",
"261 -156 OFFCURVE",
"243 -148 OFFCURVE",
"226 -148 CURVE SMOOTH",
"196 -148 OFFCURVE",
"168 -175 OFFCURVE",
"168 -208 CURVE SMOOTH",
"168 -220 OFFCURVE",
"172 -233 OFFCURVE",
"181 -246 CURVE SMOOTH",
"228 -314 OFFCURVE",
"308 -347 OFFCURVE",
"385 -347 CURVE SMOOTH"
);
},
{
closed = 1;
nodes = (
"879 -5 OFFCURVE",
"939 49 OFFCURVE",
"994 116 CURVE SMOOTH",
"1011 137 OFFCURVE",
"1013 159 OFFCURVE",
"1013 178 CURVE SMOOTH",
"1013 205 OFFCURVE",
"1003 223 OFFCURVE",
"985 223 CURVE SMOOTH",
"977 223 OFFCURVE",
"968 221 OFFCURVE",
"958 209 CURVE SMOOTH",
"902 142 OFFCURVE",
"868 116 OFFCURVE",
"824 116 CURVE SMOOTH",
"776 116 OFFCURVE",
"724 137 OFFCURVE",
"673 175 CURVE",
"649 51 LINE",
"689 20 OFFCURVE",
"737 -5 OFFCURVE",
"801 -5 CURVE SMOOTH"
);
}
);
width = 884;
}
);
leftKerningGroup = N;
leftMetricsKey = N;
rightKerningGroup = N;
rightMetricsKey = N;
unicode = 014A;
},
{
color = 3;
glyphname = O;
lastChange = "2016-08-03 20:39:34 +0000";
layers = (
{
anchors = (
{
name = bottom;
position = "{381, 0}";
},
{
name = center;
position = "{403, 420}";
},
{
name = ogonek;
position = "{486, 10}";
},
{
name = top;
position = "{483, 840}";
},
{
name = topleft;
position = "{64, 840}";
},
{
name = topright;
position = "{660, 840}";
}
);
background = {
paths = (
{
closed = 1;
nodes = (
"617 -5 OFFCURVE",
"803 194 OFFCURVE",
"803 505 CURVE SMOOTH",
"803 729 OFFCURVE",
"661 848 OFFCURVE",
"487 848 CURVE SMOOTH",
"255 848 OFFCURVE",
"69 649 OFFCURVE",
"69 338 CURVE SMOOTH",
"69 114 OFFCURVE",
"211 -5 OFFCURVE",
"385 -5 CURVE SMOOTH"
);
},
{
closed = 1;
nodes = (
"298 117 OFFCURVE",
"220 192 OFFCURVE",
"220 356 CURVE SMOOTH",
"220 570 OFFCURVE",
"324 726 OFFCURVE",
"476 726 CURVE SMOOTH",
"574 726 OFFCURVE",
"652 651 OFFCURVE",
"652 487 CURVE SMOOTH",
"652 273 OFFCURVE",
"548 117 OFFCURVE",
"396 117 CURVE SMOOTH"
);
}
);
};
guideLines = (
{
angle = 90;
position = "{193, 354}";
},
{
angle = 90;
position = "{640, 354}";
},
{
position = "{370, 105}";
},
{
position = "{370, 738}";
}
);
layerId = "ECEFE970-1BBB-4E0A-A452-CEB55884B4A3";
paths = (
{
closed = 1;
nodes = (
"612 -5 OFFCURVE",
"798 194 OFFCURVE",
"798 505 CURVE SMOOTH",
"798 729 OFFCURVE",
"656 848 OFFCURVE",
"482 848 CURVE SMOOTH",
"250 848 OFFCURVE",
"64 649 OFFCURVE",
"64 338 CURVE SMOOTH",
"64 114 OFFCURVE",
"206 -5 OFFCURVE",
"380 -5 CURVE SMOOTH"
);
},
{
closed = 1;
nodes = (
"290 113 OFFCURVE",
"211 189 OFFCURVE",
"211 355 CURVE SMOOTH",
"211 576 OFFCURVE",
"317 730 OFFCURVE",
"472 730 CURVE SMOOTH",
"572 730 OFFCURVE",
"651 654 OFFCURVE",
"651 488 CURVE SMOOTH",
"651 271 OFFCURVE",
"549 113 OFFCURVE",
"390 113 CURVE SMOOTH"
);
}
);
width = 816;
}
);
leftKerningGroup = O;
note = O;
rightKerningGroup = O;
unicode = 004F;
},
{
color = 3;
glyphname = Ohorn;
lastChange = "2016-08-02 07:48:39 +0000";
layers = (
{
anchors = (
{
name = bottom;
position = "{381, 0}";
},
{
name = center;
position = "{403, 420}";
},
{
name = ogonek;
position = "{486, 10}";
},
{
name = top;
position = "{483, 840}";
},
{
name = topleft;
position = "{64, 840}";
},
{
name = topright;
position = "{669, 912}";
}
);
background = {
paths = (
{
closed = 1;
nodes = (
"617 -5 OFFCURVE",
"803 194 OFFCURVE",
"803 505 CURVE SMOOTH",
"803 729 OFFCURVE",
"661 848 OFFCURVE",
"487 848 CURVE SMOOTH",
"255 848 OFFCURVE",
"69 649 OFFCURVE",
"69 338 CURVE SMOOTH",
"69 114 OFFCURVE",
"211 -5 OFFCURVE",
"385 -5 CURVE SMOOTH"
);
},
{
closed = 1;
nodes = (
"295 113 OFFCURVE",
"216 189 OFFCURVE",
"216 355 CURVE SMOOTH",
"216 576 OFFCURVE",
"322 730 OFFCURVE",
"477 730 CURVE SMOOTH",
"577 730 OFFCURVE",
"656 654 OFFCURVE",
"656 488 CURVE SMOOTH",
"656 271 OFFCURVE",
"554 113 OFFCURVE",
"395 113 CURVE SMOOTH"
);
},
{
closed = 1;
nodes = (
"773 726 OFFCURVE",
"852 804 OFFCURVE",
"865 919 CURVE SMOOTH",
"871 972 OFFCURVE",
"845 997 OFFCURVE",
"807 997 CURVE SMOOTH",
"779 997 OFFCURVE",
"759 984 OFFCURVE",
"753 951 CURVE SMOOTH",
"740 881 OFFCURVE",
"717 840 OFFCURVE",
"665 840 CURVE",
"663 830 LINE",
"643 726 LINE"
);
}
);
};
layerId = "ECEFE970-1BBB-4E0A-A452-CEB55884B4A3";
paths = (
{
closed = 1;
nodes = (
"612 -5 OFFCURVE",
"798 194 OFFCURVE",
"798 505 CURVE SMOOTH",
"798 604 OFFCURVE",
"770 678 OFFCURVE",
"729 734 CURVE",
"803 761 OFFCURVE",
"850 832 OFFCURVE",
"860 919 CURVE SMOOTH",
"866 972 OFFCURVE",
"840 997 OFFCURVE",
"802 997 CURVE SMOOTH",
"774 997 OFFCURVE",
"754 984 OFFCURVE",
"748 951 CURVE SMOOTH",
"735 881 OFFCURVE",
"712 834 OFFCURVE",
"640 834 CURVE SMOOTH",
"612 834 OFFCURVE",
"571 848 OFFCURVE",
"482 848 CURVE SMOOTH",
"250 848 OFFCURVE",
"64 649 OFFCURVE",
"64 338 CURVE SMOOTH",
"64 114 OFFCURVE",
"206 -5 OFFCURVE",
"380 -5 CURVE SMOOTH"
);
},
{
closed = 1;
nodes = (
"290 113 OFFCURVE",
"211 189 OFFCURVE",
"211 355 CURVE SMOOTH",
"211 576 OFFCURVE",
"317 730 OFFCURVE",
"472 730 CURVE SMOOTH",
"572 730 OFFCURVE",
"651 654 OFFCURVE",
"651 488 CURVE SMOOTH",
"651 271 OFFCURVE",
"549 113 OFFCURVE",
"390 113 CURVE SMOOTH"
);
}
);
width = 816;
}
);
leftKerningGroup = O;
leftMetricsKey = O;
widthMetricsKey = O;
rightKerningGroup = O;
unicode = 01A0;
},
{
color = 3;
glyphname = Oslash;
lastChange = "2016-08-02 07:48:39 +0000";
layers = (
{
anchors = (
{
name = bottom;
position = "{393, -100}";
},
{
name = top;
position = "{391, 840}";
}
);
background = {
paths = (
{
closed = 1;
nodes = (
"392 455 LINE",
"254 -57 LINE SMOOTH",
"237 -119 OFFCURVE",
"345 -129 OFFCURVE",
"357 -84 CURVE SMOOTH",
"496 451 LINE",
"617 893 LINE SMOOTH",
"634 956 OFFCURVE",
"525 966 OFFCURVE",
"513 921 CURVE SMOOTH"
);
},
{
closed = 1;
nodes = (
"617 -5 OFFCURVE",
"803 194 OFFCURVE",
"803 505 CURVE SMOOTH",
"803 729 OFFCURVE",
"661 848 OFFCURVE",
"487 848 CURVE SMOOTH",
"255 848 OFFCURVE",
"69 649 OFFCURVE",
"69 338 CURVE SMOOTH",
"69 114 OFFCURVE",
"211 -5 OFFCURVE",
"385 -5 CURVE SMOOTH"
);
},
{
closed = 1;
nodes = (
"298 117 OFFCURVE",
"220 192 OFFCURVE",
"220 356 CURVE SMOOTH",
"220 570 OFFCURVE",
"324 726 OFFCURVE",
"476 726 CURVE SMOOTH",
"574 726 OFFCURVE",
"652 651 OFFCURVE",
"652 487 CURVE SMOOTH",
"652 273 OFFCURVE",
"548 117 OFFCURVE",
"396 117 CURVE SMOOTH"
);
}
);
};
guideLines = (
{
angle = 83.1811;
position = "{414, 422}";
}
);
layerId = "ECEFE970-1BBB-4E0A-A452-CEB55884B4A3";
paths = (
{
closed = 1;
nodes = (
"612 -5 OFFCURVE",
"798 194 OFFCURVE",
"798 505 CURVE SMOOTH",
"798 729 OFFCURVE",
"656 848 OFFCURVE",
"482 848 CURVE SMOOTH",
"250 848 OFFCURVE",
"64 649 OFFCURVE",
"64 338 CURVE SMOOTH",
"64 114 OFFCURVE",
"206 -5 OFFCURVE",
"380 -5 CURVE SMOOTH"
);
},
{
closed = 1;
nodes = (
"491 451 LINE",
"612 893 LINE SMOOTH",
"629 956 OFFCURVE",
"520 966 OFFCURVE",
"508 921 CURVE SMOOTH",
"387 455 LINE",
"249 -57 LINE SMOOTH",
"232 -119 OFFCURVE",
"340 -129 OFFCURVE",
"352 -84 CURVE SMOOTH"
);
},
{
closed = 1;
nodes = (
"290 113 OFFCURVE",
"211 189 OFFCURVE",
"211 355 CURVE SMOOTH",
"211 572 OFFCURVE",
"317 730 OFFCURVE",
"472 730 CURVE SMOOTH",
"572 730 OFFCURVE",
"651 654 OFFCURVE",
"651 488 CURVE SMOOTH",
"651 271 OFFCURVE",
"549 113 OFFCURVE",
"390 113 CURVE SMOOTH"
);
}
);
width = 816;
}
);
leftKerningGroup = O;
leftMetricsKey = O;
note = Oslash;
rightKerningGroup = O;
rightMetricsKey = O;
unicode = 00D8;
},
{
color = 3;
glyphname = OE;
lastChange = "2016-08-02 21:24:59 +0000";
layers = (
{
anchors = (
{
name = bottom;
position = "{654, 0}";
},
{
name = top;
position = "{722, 840}";
}
);
background = {
paths = (
{
closed = 1;
nodes = (
"617 -5 OFFCURVE",
"787 217 OFFCURVE",
"787 505 CURVE SMOOTH",
"787 724 OFFCURVE",
"661 848 OFFCURVE",
"487 848 CURVE SMOOTH",
"255 848 OFFCURVE",
"69 649 OFFCURVE",
"69 338 CURVE SMOOTH",
"69 114 OFFCURVE",
"211 -5 OFFCURVE",
"385 -5 CURVE SMOOTH"
);
},
{
closed = 1;
nodes = (
"295 113 OFFCURVE",
"216 189 OFFCURVE",
"216 355 CURVE SMOOTH",
"216 572 OFFCURVE",
"322 730 OFFCURVE",
"477 730 CURVE SMOOTH",
"577 730 OFFCURVE",
"656 654 OFFCURVE",
"656 488 CURVE SMOOTH",
"656 271 OFFCURVE",
"554 113 OFFCURVE",
"395 113 CURVE SMOOTH"
);
},
{
closed = 1;
nodes = (
"1044 -5 OFFCURVE",
"1154 27 OFFCURVE",
"1213 69 CURVE",
"1205 182 LINE",
"1118 139 OFFCURVE",
"1048 115 OFFCURVE",
"976 115 CURVE SMOOTH",
"807 115 OFFCURVE",
"766 212 OFFCURVE",
"800 361 CURVE",
"909 363 OFFCURVE",
"963 366 OFFCURVE",
"1058 368 CURVE SMOOTH",
"1101 369 OFFCURVE",
"1124 401 OFFCURVE",
"1124 441 CURVE SMOOTH",
"1124 471 OFFCURVE",
"1113 490 OFFCURVE",
"1071 490 CURVE SMOOTH",
"993 490 OFFCURVE",
"913 486 OFFCURVE",
"824 483 CURVE",
"840 556 OFFCURVE",
"862 650 OFFCURVE",
"882 710 CURVE",
"923 715 OFFCURVE",
"1030 720 OFFCURVE",
"1122 720 CURVE SMOOTH",
"1174 720 OFFCURVE",
"1194 759 OFFCURVE",
"1194 795 CURVE SMOOTH",
"1194 832 OFFCURVE",
"1179 849 OFFCURVE",
"1130 849 CURVE SMOOTH",
"1034 849 OFFCURVE",
"964 844 OFFCURVE",
"880 840 CURVE SMOOTH",
"813 837 OFFCURVE",
"765 801 OFFCURVE",
"745 727 CURVE SMOOTH",
"664 431 LINE",
"655 264 LINE",
"649 121 OFFCURVE",
"731 -5 OFFCURVE",
"953 -5 CURVE SMOOTH"
);
}
);
};
layerId = "ECEFE970-1BBB-4E0A-A452-CEB55884B4A3";
paths = (
{
closed = 1;
nodes = (
"612 -5 OFFCURVE",
"782 217 OFFCURVE",
"782 505 CURVE SMOOTH",
"782 724 OFFCURVE",
"656 848 OFFCURVE",
"482 848 CURVE SMOOTH",
"250 848 OFFCURVE",
"64 649 OFFCURVE",
"64 338 CURVE SMOOTH",
"64 114 OFFCURVE",
"206 -5 OFFCURVE",
"380 -5 CURVE SMOOTH"
);
},
{
closed = 1;
nodes = (
"290 113 OFFCURVE",
"211 189 OFFCURVE",
"211 355 CURVE SMOOTH",
"211 572 OFFCURVE",
"317 730 OFFCURVE",
"472 730 CURVE SMOOTH",
"572 730 OFFCURVE",
"651 654 OFFCURVE",
"651 488 CURVE SMOOTH",
"651 271 OFFCURVE",
"549 113 OFFCURVE",
"390 113 CURVE SMOOTH"
);
},
{
closed = 1;
nodes = (
"1039 -5 OFFCURVE",
"1149 26 OFFCURVE",
"1208 69 CURVE SMOOTH",
"1241 93 OFFCURVE",
"1250 118 OFFCURVE",
"1250 146 CURVE SMOOTH",
"1250 176 OFFCURVE",
"1231 198 OFFCURVE",
"1200 182 CURVE SMOOTH",
"1114 137 OFFCURVE",
"1043 115 OFFCURVE",
"971 115 CURVE SMOOTH",
"802 115 OFFCURVE",
"761 212 OFFCURVE",
"795 361 CURVE",
"904 363 OFFCURVE",
"958 366 OFFCURVE",
"1053 368 CURVE SMOOTH",
"1096 369 OFFCURVE",
"1119 401 OFFCURVE",
"1119 441 CURVE SMOOTH",
"1119 471 OFFCURVE",
"1108 490 OFFCURVE",
"1066 490 CURVE SMOOTH",
"988 490 OFFCURVE",
"908 486 OFFCURVE",
"819 483 CURVE",
"835 556 OFFCURVE",
"857 650 OFFCURVE",
"877 710 CURVE",
"918 715 OFFCURVE",
"1025 720 OFFCURVE",
"1117 720 CURVE SMOOTH",
"1169 720 OFFCURVE",
"1189 759 OFFCURVE",
"1189 795 CURVE SMOOTH",
"1189 832 OFFCURVE",
"1174 849 OFFCURVE",
"1125 849 CURVE SMOOTH",
"1029 849 OFFCURVE",
"959 844 OFFCURVE",
"875 840 CURVE SMOOTH",
"808 837 OFFCURVE",
"760 801 OFFCURVE",
"740 727 CURVE SMOOTH",
"659 431 LINE",
"650 264 LINE",
"644 121 OFFCURVE",
"726 -5 OFFCURVE",
"948 -5 CURVE SMOOTH"
);
}
);
width = 1124;
}
);
leftKerningGroup = O;
leftMetricsKey = O;
note = OE;
rightKerningGroup = AE;
unicode = 0152;
},
{
color = 3;
glyphname = P;
lastChange = "2016-08-03 20:39:46 +0000";
layers = (
{
background = {
paths = (
{
closed = 1;
nodes = (
"489 428 OFFCURVE",
"513 568 CURVE SMOOTH",
"523 622 OFFCURVE",
"508 646 OFFCURVE",
"454 646 CURVE SMOOTH",
"414 646 OFFCURVE",
"378 632 OFFCURVE",
"369 583 CURVE SMOOTH",
"341 434 OFFCURVE",
"312 252 OFFCURVE",
"282 85 CURVE SMOOTH",
"274 41 OFFCURVE",
"262 16 OFFCURVE",
"244 16 CURVE SMOOTH",
"209 16 OFFCURVE",
"162 96 OFFCURVE",
"162 227 CURVE SMOOTH",
"162 520 OFFCURVE",
"292 732 OFFCURVE",
"511 732 CURVE SMOOTH",
"620 732 OFFCURVE",
"674 664 OFFCURVE",
"674 577 CURVE SMOOTH",
"674 474 OFFCURVE",
"617 372 OFFCURVE",
"404 372 CURVE SMOOTH",
"367 372 OFFCURVE",
"328 375 OFFCURVE",
"295 381 CURVE SMOOTH",
"257 388 OFFCURVE",
"233 369 OFFCURVE",
"233 332 CURVE SMOOTH",
"233 310 OFFCURVE",
"237 287 OFFCURVE",
"281 279 CURVE SMOOTH",
"314 273 OFFCURVE",
"364 269 OFFCURVE",
"410 269 CURVE SMOOTH",
"677 269 OFFCURVE",
"828 417 OFFCURVE",
"828 596 CURVE SMOOTH",
"828 735 OFFCURVE",
"729 846 OFFCURVE",
"536 846 CURVE SMOOTH",
"278 846 OFFCURVE",
"51 642 OFFCURVE",
"51 219 CURVE SMOOTH",
"51 -6 OFFCURVE",
"159 -109 OFFCURVE",
"277 -109 CURVE SMOOTH",
"346 -109 OFFCURVE",
"403 -63 OFFCURVE",
"421 30 CURVE SMOOTH",
"462 256 OFFCURVE"
);
}
);
};
layerId = "ECEFE970-1BBB-4E0A-A452-CEB55884B4A3";
paths = (
{
closed = 1;
nodes = (
"346 -109 OFFCURVE",
"391 -63 OFFCURVE",
"408 30 CURVE SMOOTH",
"450 256 OFFCURVE",
"477 428 OFFCURVE",
"502 568 CURVE SMOOTH",
"511 622 OFFCURVE",
"496 646 OFFCURVE",
"442 646 CURVE SMOOTH",
"409 646 OFFCURVE",
"373 632 OFFCURVE",
"364 583 CURVE SMOOTH",
"336 434 OFFCURVE",
"307 252 OFFCURVE",
"277 85 CURVE SMOOTH",
"269 41 OFFCURVE",
"257 16 OFFCURVE",
"239 16 CURVE SMOOTH",
"204 16 OFFCURVE",
"157 96 OFFCURVE",
"157 227 CURVE SMOOTH",
"157 524 OFFCURVE",
"287 736 OFFCURVE",
"496 736 CURVE SMOOTH",
"624 736 OFFCURVE",
"674 668 OFFCURVE",
"674 587 CURVE SMOOTH",
"674 472 OFFCURVE",
"617 370 OFFCURVE",
"399 370 CURVE SMOOTH",
"362 370 OFFCURVE",
"323 373 OFFCURVE",
"290 379 CURVE SMOOTH",
"252 386 OFFCURVE",
"228 367 OFFCURVE",
"228 332 CURVE SMOOTH",
"228 310 OFFCURVE",
"232 287 OFFCURVE",
"276 279 CURVE SMOOTH",
"309 273 OFFCURVE",
"359 269 OFFCURVE",
"405 269 CURVE SMOOTH",
"672 269 OFFCURVE",
"823 417 OFFCURVE",
"823 596 CURVE SMOOTH",
"823 735 OFFCURVE",
"724 846 OFFCURVE",
"531 846 CURVE SMOOTH",
"273 846 OFFCURVE",
"46 642 OFFCURVE",
"46 219 CURVE SMOOTH",
"46 -6 OFFCURVE",
"154 -109 OFFCURVE",
"272 -109 CURVE SMOOTH"
);
}
);
width = 805;
}
);
leftKerningGroup = P;
note = P;
rightKerningGroup = P;
unicode = 0050;
},
{
color = 3;
glyphname = Thorn;
lastChange = "2016-08-02 20:46:58 +0000";
layers = (
{
background = {
paths = (
{
closed = 1;
nodes = (
"479 549 OFFCURVE",
"520 854 CURVE SMOOTH",
"526 898 OFFCURVE",
"517 938 OFFCURVE",
"458 938 CURVE SMOOTH",
"420 938 OFFCURVE",
"381 924 OFFCURVE",
"373 865 CURVE SMOOTH",
"340 619 OFFCURVE",
"302 369 OFFCURVE",
"250 85 CURVE SMOOTH",
"242 41 OFFCURVE",
"230 16 OFFCURVE",
"212 16 CURVE SMOOTH",
"177 16 OFFCURVE",
"158 126 OFFCURVE",
"158 207 CURVE SMOOTH",
"158 470 OFFCURVE",
"260 622 OFFCURVE",
"461 622 CURVE SMOOTH",
"585 622 OFFCURVE",
"632 564 OFFCURVE",
"632 487 CURVE SMOOTH",
"632 404 OFFCURVE",
"582 306 OFFCURVE",
"380 306 CURVE SMOOTH",
"345 306 OFFCURVE",
"306 309 OFFCURVE",
"273 315 CURVE SMOOTH",
"235 322 OFFCURVE",
"213 303 OFFCURVE",
"213 266 CURVE SMOOTH",
"213 244 OFFCURVE",
"215 221 OFFCURVE",
"259 213 CURVE SMOOTH",
"292 207 OFFCURVE",
"342 203 OFFCURVE",
"388 203 CURVE SMOOTH",
"652 203 OFFCURVE",
"786 347 OFFCURVE",
"786 506 CURVE SMOOTH",
"786 635 OFFCURVE",
"684 733 OFFCURVE",
"482 733 CURVE SMOOTH",
"207 733 OFFCURVE",
"47 528 OFFCURVE",
"47 202 CURVE SMOOTH",
"47 14 OFFCURVE",
"134 -109 OFFCURVE",
"245 -109 CURVE SMOOTH",
"314 -109 OFFCURVE",
"371 -63 OFFCURVE",
"389 30 CURVE SMOOTH",
"447 332 OFFCURVE"
);
}
);
};
layerId = "ECEFE970-1BBB-4E0A-A452-CEB55884B4A3";
paths = (
{
closed = 1;
nodes = (
"315 -109 OFFCURVE",
"356 -63 OFFCURVE",
"374 30 CURVE SMOOTH",
"432 332 OFFCURVE",
"466 549 OFFCURVE",
"510 874 CURVE SMOOTH",
"516 918 OFFCURVE",
"502 938 OFFCURVE",
"448 938 CURVE SMOOTH",
"415 938 OFFCURVE",
"376 924 OFFCURVE",
"371 885 CURVE SMOOTH",
"335 619 OFFCURVE",
"297 369 OFFCURVE",
"245 85 CURVE SMOOTH",
"237 41 OFFCURVE",
"225 16 OFFCURVE",
"207 16 CURVE SMOOTH",
"172 16 OFFCURVE",
"153 126 OFFCURVE",
"153 207 CURVE SMOOTH",
"153 470 OFFCURVE",
"258 625 OFFCURVE",
"456 625 CURVE SMOOTH",
"584 625 OFFCURVE",
"631 567 OFFCURVE",
"631 487 CURVE SMOOTH",
"631 404 OFFCURVE",
"581 306 OFFCURVE",
"375 306 CURVE SMOOTH",
"340 306 OFFCURVE",
"301 309 OFFCURVE",
"268 315 CURVE SMOOTH",
"230 322 OFFCURVE",
"208 303 OFFCURVE",
"208 266 CURVE SMOOTH",
"208 244 OFFCURVE",
"210 223 OFFCURVE",
"254 215 CURVE SMOOTH",
"287 209 OFFCURVE",
"337 205 OFFCURVE",
"383 205 CURVE SMOOTH",
"647 205 OFFCURVE",
"781 347 OFFCURVE",
"781 506 CURVE SMOOTH",
"781 635 OFFCURVE",
"679 733 OFFCURVE",
"477 733 CURVE SMOOTH",
"212 733 OFFCURVE",
"42 528 OFFCURVE",
"42 202 CURVE SMOOTH",
"42 14 OFFCURVE",
"129 -109 OFFCURVE",
"240 -109 CURVE SMOOTH"
);
}
);
width = 776;
}
);
leftKerningGroup = R;
leftMetricsKey = P;
note = Thorn;
rightKerningGroup = Thorn;
unicode = 00DE;
},
{
color = 3;
glyphname = Q;
lastChange = "2016-08-01 22:25:30 +0000";
layers = (
{
background = {
paths = (
{
closed = 1;
nodes = (
"858 -96 OFFCURVE",
"848 -99 OFFCURVE",
"838 -112 CURVE SMOOTH",
"786 -180 OFFCURVE",
"748 -207 OFFCURVE",
"704 -207 CURVE SMOOTH",
"652 -207 OFFCURVE",
"619 -170 OFFCURVE",
"592 -104 CURVE SMOOTH",
"559 -23 OFFCURVE",
"531 10 OFFCURVE",
"479 27 CURVE",
"480 8 LINE",
"665 54 OFFCURVE",
"803 234 OFFCURVE",
"803 505 CURVE SMOOTH",
"803 729 OFFCURVE",
"661 848 OFFCURVE",
"487 848 CURVE SMOOTH",
"255 848 OFFCURVE",
"69 649 OFFCURVE",
"69 338 CURVE SMOOTH",
"69 148 OFFCURVE",
"171 30 OFFCURVE",
"315 1 CURVE SMOOTH",
"374 -11 OFFCURVE",
"394 -38 OFFCURVE",
"445 -156 CURVE SMOOTH",
"494 -270 OFFCURVE",
"546 -326 OFFCURVE",
"666 -326 CURVE SMOOTH",
"740 -326 OFFCURVE",
"822 -283 OFFCURVE",
"869 -197 CURVE SMOOTH",
"881 -175 OFFCURVE",
"886 -152 OFFCURVE",
"886 -134 CURVE SMOOTH",
"886 -111 OFFCURVE",
"878 -96 OFFCURVE",
"865 -96 CURVE SMOOTH"
);
},
{
closed = 1;
nodes = (
"298 117 OFFCURVE",
"220 192 OFFCURVE",
"220 356 CURVE SMOOTH",
"220 570 OFFCURVE",
"324 726 OFFCURVE",
"476 726 CURVE SMOOTH",
"574 726 OFFCURVE",
"652 651 OFFCURVE",
"652 487 CURVE SMOOTH",
"652 273 OFFCURVE",
"548 117 OFFCURVE",
"396 117 CURVE SMOOTH"
);
}
);
};
layerId = "ECEFE970-1BBB-4E0A-A452-CEB55884B4A3";
paths = (
{
closed = 1;
nodes = (
"735 -326 OFFCURVE",
"817 -283 OFFCURVE",
"864 -197 CURVE SMOOTH",
"876 -175 OFFCURVE",
"881 -152 OFFCURVE",
"881 -134 CURVE SMOOTH",
"881 -111 OFFCURVE",
"873 -96 OFFCURVE",
"860 -96 CURVE SMOOTH",
"853 -96 OFFCURVE",
"843 -99 OFFCURVE",
"833 -112 CURVE SMOOTH",
"781 -180 OFFCURVE",
"743 -208 OFFCURVE",
"699 -208 CURVE SMOOTH",
"647 -208 OFFCURVE",
"614 -178 OFFCURVE",
"584 -104 CURVE SMOOTH",
"551 -23 OFFCURVE",
"526 10 OFFCURVE",
"474 27 CURVE",
"475 8 LINE",
"660 54 OFFCURVE",
"798 234 OFFCURVE",
"798 505 CURVE SMOOTH",
"798 729 OFFCURVE",
"656 848 OFFCURVE",
"482 848 CURVE SMOOTH",
"250 848 OFFCURVE",
"64 649 OFFCURVE",
"64 338 CURVE SMOOTH",
"64 148 OFFCURVE",
"166 30 OFFCURVE",
"310 1 CURVE SMOOTH",
"369 -11 OFFCURVE",
"389 -38 OFFCURVE",
"440 -156 CURVE SMOOTH",
"489 -270 OFFCURVE",
"541 -326 OFFCURVE",
"661 -326 CURVE SMOOTH"
);
},
{
closed = 1;
nodes = (
"290 113 OFFCURVE",
"211 189 OFFCURVE",
"211 355 CURVE SMOOTH",
"211 572 OFFCURVE",
"317 730 OFFCURVE",
"472 730 CURVE SMOOTH",
"572 730 OFFCURVE",
"651 654 OFFCURVE",
"651 488 CURVE SMOOTH",
"651 271 OFFCURVE",
"549 113 OFFCURVE",
"390 113 CURVE SMOOTH"
);
}
);
width = 816;
}
);
leftKerningGroup = O;
leftMetricsKey = O;
widthMetricsKey = O;
note = Q;
rightKerningGroup = O;
unicode = 0051;
},
{
color = 3;
glyphname = R;
lastChange = "2016-08-03 20:39:54 +0000";
layers = (
{
anchors = (
{
name = bottom;
position = "{502, 0}";
},
{
name = top;
position = "{512, 840}";
}
);
background = {
paths = (
{
closed = 1;
nodes = (
"372 -5 OFFCURVE",
"405 46 OFFCURVE",
"417 121 CURVE SMOOTH",
"449 319 OFFCURVE",
"477 458 OFFCURVE",
"499 585 CURVE SMOOTH",
"505 623 OFFCURVE",
"493 653 OFFCURVE",
"443 653 CURVE SMOOTH",
"407 653 OFFCURVE",
"369 640 OFFCURVE",
"359 588 CURVE SMOOTH",
"335 463 OFFCURVE",
"311 303 OFFCURVE",
"285 165 CURVE SMOOTH",
"278 125 OFFCURVE",
"267 110 OFFCURVE",
"250 110 CURVE SMOOTH",
"219 110 OFFCURVE",
"169 175 OFFCURVE",
"169 312 CURVE SMOOTH",
"169 592 OFFCURVE",
"303 737 OFFCURVE",
"496 737 CURVE SMOOTH",
"608 737 OFFCURVE",
"665 685 OFFCURVE",
"665 602 CURVE SMOOTH",
"665 491 OFFCURVE",
"570 419 OFFCURVE",
"458 419 CURVE SMOOTH",
"362 419 OFFCURVE",
"333 419 OFFCURVE",
"304 419 CURVE SMOOTH",
"279 419 OFFCURVE",
"253 400 OFFCURVE",
"253 367 CURVE SMOOTH",
"253 347 OFFCURVE",
"261 315 OFFCURVE",
"312 315 CURVE",
"449 341 LINE",
"698 341 OFFCURVE",
"815 487 OFFCURVE",
"815 622 CURVE SMOOTH",
"815 747 OFFCURVE",
"725 846 OFFCURVE",
"526 846 CURVE SMOOTH",
"251 846 OFFCURVE",
"60 647 OFFCURVE",
"60 305 CURVE SMOOTH",
"60 123 OFFCURVE",
"149 -5 OFFCURVE",
"286 -5 CURVE SMOOTH"
);
},
{
closed = 1;
nodes = (
"880 -5 OFFCURVE",
"940 49 OFFCURVE",
"995 116 CURVE",
"959 209 LINE",
"903 142 OFFCURVE",
"869 114 OFFCURVE",
"825 114 CURVE SMOOTH",
"775 114 OFFCURVE",
"742 153 OFFCURVE",
"706 230 CURVE SMOOTH",
"662 325 OFFCURVE",
"626 369 OFFCURVE",
"464 369 CURVE",
"426 315 LINE",
"498 315 OFFCURVE",
"516 294 OFFCURVE",
"585 150 CURVE SMOOTH",
"640 35 OFFCURVE",
"697 -5 OFFCURVE",
"782 -5 CURVE SMOOTH"
);
}
);
};
layerId = "ECEFE970-1BBB-4E0A-A452-CEB55884B4A3";
paths = (
{
closed = 1;
nodes = (
"367 -5 OFFCURVE",
"400 46 OFFCURVE",
"412 121 CURVE SMOOTH",
"444 319 OFFCURVE",
"472 458 OFFCURVE",
"494 585 CURVE SMOOTH",
"500 623 OFFCURVE",
"488 653 OFFCURVE",
"438 653 CURVE SMOOTH",
"402 653 OFFCURVE",
"364 640 OFFCURVE",
"354 588 CURVE SMOOTH",
"330 463 OFFCURVE",
"306 303 OFFCURVE",
"280 165 CURVE SMOOTH",
"273 125 OFFCURVE",
"262 110 OFFCURVE",
"245 110 CURVE SMOOTH",
"214 110 OFFCURVE",
"164 175 OFFCURVE",
"164 312 CURVE SMOOTH",
"164 592 OFFCURVE",
"298 737 OFFCURVE",
"491 737 CURVE SMOOTH",
"603 737 OFFCURVE",
"660 685 OFFCURVE",
"660 602 CURVE SMOOTH",
"660 491 OFFCURVE",
"565 419 OFFCURVE",
"453 419 CURVE SMOOTH",
"357 419 OFFCURVE",
"328 419 OFFCURVE",
"299 419 CURVE SMOOTH",
"274 419 OFFCURVE",
"248 400 OFFCURVE",
"248 367 CURVE SMOOTH",
"248 347 OFFCURVE",
"256 315 OFFCURVE",
"307 315 CURVE",
"444 341 LINE",
"693 341 OFFCURVE",
"810 487 OFFCURVE",
"810 622 CURVE SMOOTH",
"810 747 OFFCURVE",
"720 846 OFFCURVE",
"521 846 CURVE SMOOTH",
"246 846 OFFCURVE",
"55 647 OFFCURVE",
"55 305 CURVE SMOOTH",
"55 123 OFFCURVE",
"144 -5 OFFCURVE",
"281 -5 CURVE SMOOTH"
);
},
{
closed = 1;
nodes = (
"875 -5 OFFCURVE",
"935 49 OFFCURVE",
"990 116 CURVE SMOOTH",
"1007 137 OFFCURVE",
"1009 159 OFFCURVE",
"1009 178 CURVE SMOOTH",
"1009 205 OFFCURVE",
"999 223 OFFCURVE",
"981 223 CURVE SMOOTH",
"973 223 OFFCURVE",
"964 221 OFFCURVE",
"954 209 CURVE SMOOTH",
"898 142 OFFCURVE",
"864 114 OFFCURVE",
"820 114 CURVE SMOOTH",
"770 114 OFFCURVE",
"737 153 OFFCURVE",
"701 230 CURVE SMOOTH",
"657 325 OFFCURVE",
"621 369 OFFCURVE",
"459 369 CURVE",
"421 315 LINE",
"493 315 OFFCURVE",
"511 294 OFFCURVE",
"580 150 CURVE SMOOTH",
"635 35 OFFCURVE",
"692 -5 OFFCURVE",
"777 -5 CURVE SMOOTH"
);
}
);
width = 880;
}
);
leftKerningGroup = R;
leftMetricsKey = P;
note = R;
rightKerningGroup = R;
unicode = 0052;
},
{
color = 3;
glyphname = S;
lastChange = "2016-08-03 20:18:58 +0000";
layers = (
{
anchors = (
{
name = bottom;
position = "{329, 0}";
},
{
name = top;
position = "{425, 840}";
}
);
background = {
paths = (
{
closed = 1;
nodes = (
"661 488 OFFCURVE",
"252 443 OFFCURVE",
"252 620 CURVE SMOOTH",
"252 692 OFFCURVE",
"313 736 OFFCURVE",
"425 736 CURVE SMOOTH",
"502 736 OFFCURVE",
"568 708 OFFCURVE",
"568 654 CURVE SMOOTH",
"568 622 OFFCURVE",
"562 610 OFFCURVE",
"562 581 CURVE SMOOTH",
"562 552 OFFCURVE",
"587 527 OFFCURVE",
"623 527 CURVE SMOOTH",
"676 527 OFFCURVE",
"702 570 OFFCURVE",
"702 654 CURVE SMOOTH",
"702 788 OFFCURVE",
"575 849 OFFCURVE",
"430 849 CURVE SMOOTH",
"230 849 OFFCURVE",
"110 747 OFFCURVE",
"110 601 CURVE SMOOTH",
"110 336 OFFCURVE",
"519 382 OFFCURVE",
"519 217 CURVE SMOOTH",
"519 147 OFFCURVE",
"451 105 OFFCURVE",
"342 105 CURVE SMOOTH",
"235 105 OFFCURVE",
"169 133 OFFCURVE",
"169 190 CURVE SMOOTH",
"169 219 OFFCURVE",
"175 231 OFFCURVE",
"175 260 CURVE SMOOTH",
"175 289 OFFCURVE",
"150 310 OFFCURVE",
"114 310 CURVE SMOOTH",
"61 310 OFFCURVE",
"35 271 OFFCURVE",
"35 197 CURVE SMOOTH",
"35 52 OFFCURVE",
"161 -8 OFFCURVE",
"332 -8 CURVE SMOOTH",
"526 -8 OFFCURVE",
"661 76 OFFCURVE",
"661 239 CURVE SMOOTH"
);
}
);
};
layerId = "ECEFE970-1BBB-4E0A-A452-CEB55884B4A3";
paths = (
{
closed = 1;
nodes = (
"521 -8 OFFCURVE",
"656 76 OFFCURVE",
"656 237 CURVE SMOOTH",
"656 488 OFFCURVE",
"243 443 OFFCURVE",
"243 620 CURVE SMOOTH",
"243 696 OFFCURVE",
"304 740 OFFCURVE",
"420 740 CURVE SMOOTH",
"497 740 OFFCURVE",
"563 712 OFFCURVE",
"563 654 CURVE SMOOTH",
"563 622 OFFCURVE",
"557 610 OFFCURVE",
"557 581 CURVE SMOOTH",
"557 552 OFFCURVE",
"582 527 OFFCURVE",
"618 527 CURVE SMOOTH",
"667 527 OFFCURVE",
"693 570 OFFCURVE",
"693 654 CURVE SMOOTH",
"693 788 OFFCURVE",
"566 849 OFFCURVE",
"425 849 CURVE SMOOTH",
"225 849 OFFCURVE",
"105 747 OFFCURVE",
"105 603 CURVE SMOOTH",
"105 336 OFFCURVE",
"518 382 OFFCURVE",
"518 217 CURVE SMOOTH",
"518 143 OFFCURVE",
"450 101 OFFCURVE",
"337 101 CURVE SMOOTH",
"230 101 OFFCURVE",
"164 129 OFFCURVE",
"164 190 CURVE SMOOTH",
"164 219 OFFCURVE",
"170 231 OFFCURVE",
"170 260 CURVE SMOOTH",
"170 289 OFFCURVE",
"145 310 OFFCURVE",
"109 310 CURVE SMOOTH",
"60 310 OFFCURVE",
"34 271 OFFCURVE",
"34 197 CURVE SMOOTH",
"34 52 OFFCURVE",
"160 -8 OFFCURVE",
"327 -8 CURVE SMOOTH"
);
}
);
width = 693;
}
);
leftKerningGroup = S;
note = S;
rightKerningGroup = S;
unicode = 0053;
},
{
color = 3;
glyphname = Germandbls;
lastChange = "2016-08-02 15:24:37 +0000";
layers = (
{
background = {
paths = (
{
closed = 1;
nodes = (
"703 475 OFFCURVE",
"817 560 OFFCURVE",
"817 686 CURVE SMOOTH",
"817 781 OFFCURVE",
"736 848 OFFCURVE",
"624 848 CURVE SMOOTH",
"466 848 OFFCURVE",
"335 739 OFFCURVE",
"258 479 CURVE",
"261 469 LINE",
"292 630 OFFCURVE",
"318 718 OFFCURVE",
"331 782 CURVE SMOOTH",
"341 829 OFFCURVE",
"326 852 OFFCURVE",
"269 852 CURVE SMOOTH",
"231 852 OFFCURVE",
"196 839 OFFCURVE",
"184 794 CURVE SMOOTH",
"145 649 OFFCURVE",
"97 328 OFFCURVE",
"82 73 CURVE SMOOTH",
"79 24 OFFCURVE",
"106 -5 OFFCURVE",
"149 -5 CURVE SMOOTH",
"200 -5 OFFCURVE",
"225 26 OFFCURVE",
"232 86 CURVE SMOOTH",
"283 481 OFFCURVE",
"424 725 OFFCURVE",
"579 725 CURVE SMOOTH",
"634 725 OFFCURVE",
"663 698 OFFCURVE",
"663 652 CURVE SMOOTH",
"663 574 OFFCURVE",
"591 524 OFFCURVE",
"457 492 CURVE SMOOTH",
"411 481 OFFCURVE",
"403 382 OFFCURVE",
"451 380 CURVE SMOOTH",
"564 376 OFFCURVE",
"646 348 OFFCURVE",
"646 244 CURVE SMOOTH",
"646 159 OFFCURVE",
"570 76 OFFCURVE",
"415 46 CURVE SMOOTH",
"359 35 OFFCURVE",
"353 -59 OFFCURVE",
"470 -44 CURVE SMOOTH",
"654 -20 OFFCURVE",
"798 100 OFFCURVE",
"798 252 CURVE SMOOTH",
"798 368 OFFCURVE",
"707 449 OFFCURVE",
"569 451 CURVE",
"573 440 LINE"
);
}
);
};
layerId = "ECEFE970-1BBB-4E0A-A452-CEB55884B4A3";
paths = (
{
closed = 1;
nodes = (
"649 -20 OFFCURVE",
"793 100 OFFCURVE",
"793 252 CURVE SMOOTH",
"793 368 OFFCURVE",
"702 449 OFFCURVE",
"564 451 CURVE",
"568 440 LINE",
"698 475 OFFCURVE",
"812 560 OFFCURVE",
"812 686 CURVE SMOOTH",
"812 781 OFFCURVE",
"731 848 OFFCURVE",
"619 848 CURVE SMOOTH",
"461 848 OFFCURVE",
"330 739 OFFCURVE",
"253 479 CURVE",
"256 469 LINE",
"287 630 OFFCURVE",
"313 718 OFFCURVE",
"326 782 CURVE SMOOTH",
"336 829 OFFCURVE",
"323 852 OFFCURVE",
"274 852 CURVE SMOOTH",
"236 852 OFFCURVE",
"201 839 OFFCURVE",
"189 794 CURVE SMOOTH",
"150 649 OFFCURVE",
"101 328 OFFCURVE",
"85 73 CURVE SMOOTH",
"81 4 OFFCURVE",
"111 -5 OFFCURVE",
"151 -5 CURVE SMOOTH",
"197 -5 OFFCURVE",
"218 16 OFFCURVE",
"227 86 CURVE SMOOTH",
"278 485 OFFCURVE",
"419 729 OFFCURVE",
"574 729 CURVE SMOOTH",
"632 729 OFFCURVE",
"661 702 OFFCURVE",
"661 652 CURVE SMOOTH",
"661 574 OFFCURVE",
"589 522 OFFCURVE",
"452 490 CURVE SMOOTH",
"406 479 OFFCURVE",
"398 384 OFFCURVE",
"446 382 CURVE SMOOTH",
"562 378 OFFCURVE",
"644 348 OFFCURVE",
"644 244 CURVE SMOOTH",
"644 159 OFFCURVE",
"568 73 OFFCURVE",
"410 43 CURVE SMOOTH",
"354 32 OFFCURVE",
"348 -59 OFFCURVE",
"465 -44 CURVE SMOOTH"
);
}
);
width = 843;
}
);
leftKerningGroup = I_ss01;
leftMetricsKey = I.ss01;
rightKerningGroup = Germand;
unicode = 1E9E;
},
{
color = 3;
glyphname = Schwa;
lastChange = "2016-08-01 22:25:30 +0000";
layers = (
{
anchors = (
{
name = bottom;
position = "{370, 0}";
},
{
name = top;
position = "{447, 840}";
}
);
background = {
paths = (
{
closed = 1;
nodes = (
"2402 -5 OFFCURVE",
"2588 194 OFFCURVE",
"2588 505 CURVE SMOOTH",
"2588 729 OFFCURVE",
"2446 848 OFFCURVE",
"2272 848 CURVE SMOOTH",
"2040 848 OFFCURVE",
"1854 649 OFFCURVE",
"1854 338 CURVE SMOOTH",
"1854 114 OFFCURVE",
"1996 -5 OFFCURVE",
"2170 -5 CURVE SMOOTH"
);
},
{
closed = 1;
nodes = (
"2080 113 OFFCURVE",
"2001 189 OFFCURVE",
"2001 355 CURVE SMOOTH",
"2001 576 OFFCURVE",
"2107 730 OFFCURVE",
"2262 730 CURVE SMOOTH",
"2362 730 OFFCURVE",
"2441 654 OFFCURVE",
"2441 488 CURVE SMOOTH",
"2441 271 OFFCURVE",
"2339 113 OFFCURVE",
"2180 113 CURVE SMOOTH"
);
},
{
closed = 1;
nodes = (
"552 726 OFFCURVE",
"630 658 OFFCURVE",
"630 476 CURVE SMOOTH",
"630 237 OFFCURVE",
"498 109 OFFCURVE",
"370 109 CURVE SMOOTH",
"300 109 OFFCURVE",
"273 145 OFFCURVE",
"273 200 CURVE SMOOTH",
"273 224 OFFCURVE",
"283 259 OFFCURVE",
"283 281 CURVE SMOOTH",
"283 315 OFFCURVE",
"259 333 OFFCURVE",
"223 333 CURVE SMOOTH",
"169 333 OFFCURVE",
"140 276 OFFCURVE",
"140 197 CURVE SMOOTH",
"140 81 OFFCURVE",
"211 -5 OFFCURVE",
"360 -5 CURVE SMOOTH",
"585 -5 OFFCURVE",
"777 194 OFFCURVE",
"777 493 CURVE SMOOTH",
"777 729 OFFCURVE",
"635 848 OFFCURVE",
"447 848 CURVE SMOOTH",
"350 848 OFFCURVE",
"248 808 OFFCURVE",
"166 722 CURVE SMOOTH",
"115 668 OFFCURVE",
"142 568 OFFCURVE",
"203 625 CURVE SMOOTH",
"278 695 OFFCURVE",
"347 726 OFFCURVE",
"427 726 CURVE SMOOTH"
);
},
{
closed = 1;
nodes = (
"1220 848 OFFCURVE",
"1115 814 OFFCURVE",
"1043 742 CURVE SMOOTH",
"991 690 OFFCURVE",
"1019 568 OFFCURVE",
"1080 625 CURVE SMOOTH",
"1155 695 OFFCURVE",
"1237 726 OFFCURVE",
"1322 726 CURVE SMOOTH",
"1442 726 OFFCURVE",
"1531 654 OFFCURVE",
"1531 488 CURVE SMOOTH",
"1531 271 OFFCURVE",
"1439 113 OFFCURVE",
"1277 113 CURVE SMOOTH",
"1170 113 OFFCURVE",
"1091 179 OFFCURVE",
"1091 356 CURVE",
"1048 332 LINE",
"1566 332 LINE",
"1566 442 LINE",
"1029 442 LINE SMOOTH",
"977 442 OFFCURVE",
"944 405 OFFCURVE",
"944 328 CURVE SMOOTH",
"944 114 OFFCURVE",
"1086 -5 OFFCURVE",
"1265 -5 CURVE SMOOTH",
"1502 -5 OFFCURVE",
"1678 194 OFFCURVE",
"1678 505 CURVE SMOOTH",
"1678 729 OFFCURVE",
"1526 848 OFFCURVE",
"1342 848 CURVE SMOOTH"
);
}
);
};
guideLines = (
{
angle = 90;
position = "{168, 354}";
},
{
angle = 90;
position = "{615, 354}";
},
{
position = "{345, 105}";
},
{
position = "{345, 738}";
}
);
layerId = "ECEFE970-1BBB-4E0A-A452-CEB55884B4A3";
paths = (
{
closed = 1;
nodes = (
"597 -5 OFFCURVE",
"773 194 OFFCURVE",
"773 495 CURVE SMOOTH",
"773 729 OFFCURVE",
"631 848 OFFCURVE",
"447 848 CURVE SMOOTH",
"337 848 OFFCURVE",
"236 814 OFFCURVE",
"164 742 CURVE SMOOTH",
"112 690 OFFCURVE",
"134 568 OFFCURVE",
"195 625 CURVE SMOOTH",
"270 695 OFFCURVE",
"352 726 OFFCURVE",
"427 726 CURVE SMOOTH",
"537 726 OFFCURVE",
"626 654 OFFCURVE",
"626 488 CURVE SMOOTH",
"626 271 OFFCURVE",
"534 111 OFFCURVE",
"382 111 CURVE SMOOTH",
"285 111 OFFCURVE",
"200 169 OFFCURVE",
"206 356 CURVE",
"163 332 LINE",
"661 332 LINE",
"661 442 LINE",
"144 442 LINE SMOOTH",
"92 442 OFFCURVE",
"59 405 OFFCURVE",
"59 328 CURVE SMOOTH",
"59 114 OFFCURVE",
"191 -5 OFFCURVE",
"370 -5 CURVE SMOOTH"
);
}
);
width = 792;
}
);
leftKerningGroup = O;
leftMetricsKey = O;
rightKerningGroup = O;
rightMetricsKey = O;
unicode = 018F;
},
{
color = 3;
glyphname = T;
lastChange = "2016-08-03 20:40:07 +0000";
layers = (
{
anchors = (
{
name = bottom;
position = "{370, 0}";
},
{
name = center;
position = "{421, 420}";
},
{
name = top;
position = "{503, 840}";
}
);
background = {
paths = (
{
closed = 1;
nodes = (
"2073 638 OFFCURVE",
"2076 627 OFFCURVE",
"2082 618 CURVE SMOOTH",
"2092 603 OFFCURVE",
"2112 587 OFFCURVE",
"2151 587 CURVE SMOOTH",
"2170 587 OFFCURVE",
"2185 590 OFFCURVE",
"2196 597 CURVE SMOOTH",
"2216 610 OFFCURVE",
"2226 625 OFFCURVE",
"2228 639 CURVE",
"2228 645 OFFCURVE",
"2229 649 OFFCURVE",
"2229 649 CURVE SMOOTH",
"2229 674 OFFCURVE",
"2243 692 OFFCURVE",
"2265 705 CURVE SMOOTH",
"2286 718 OFFCURVE",
"2316 726 OFFCURVE",
"2350 732 CURVE SMOOTH",
"2383 738 OFFCURVE",
"2419 740 OFFCURVE",
"2454 743 CURVE",
"2414 619 OFFCURVE",
"2380 520 OFFCURVE",
"2350 436 CURVE SMOOTH",
"2320 352 OFFCURVE",
"2297 284 OFFCURVE",
"2278 222 CURVE SMOOTH",
"2259 160 OFFCURVE",
"2245 104 OFFCURVE",
"2237 45 CURVE",
"2235 38 OFFCURVE",
"2234 31 OFFCURVE",
"2234 24 CURVE SMOOTH",
"2234 -15 OFFCURVE",
"2261 -31 OFFCURVE",
"2298 -31 CURVE SMOOTH",
"2310 -31 OFFCURVE",
"2325 -23 OFFCURVE",
"2339 -10 CURVE SMOOTH",
"2353 3 OFFCURVE",
"2363 23 OFFCURVE",
"2369 45 CURVE SMOOTH",
"2376 69 OFFCURVE",
"2383 98 OFFCURVE",
"2392 131 CURVE SMOOTH",
"2401 165 OFFCURVE",
"2412 202 OFFCURVE",
"2423 241 CURVE SMOOTH",
"2445 320 OFFCURVE",
"2470 409 OFFCURVE",
"2492 497 CURVE SMOOTH",
"2514 584 OFFCURVE",
"2533 670 OFFCURVE",
"2544 743 CURVE",
"2611 739 OFFCURVE",
"2673 732 OFFCURVE",
"2732 726 CURVE SMOOTH",
"2791 720 OFFCURVE",
"2845 713 OFFCURVE",
"2895 713 CURVE SMOOTH",
"2910 713 OFFCURVE",
"2923 720 OFFCURVE",
"2933 730 CURVE SMOOTH",
"2943 740 OFFCURVE",
"2949 753 OFFCURVE",
"2949 766 CURVE SMOOTH",
"2949 787 OFFCURVE",
"2938 806 OFFCURVE",
"2907 812 CURVE SMOOTH",
"2772 838 OFFCURVE",
"2648 844 OFFCURVE",
"2535 844 CURVE SMOOTH",
"2451 844 OFFCURVE",
"2372 840 OFFCURVE",
"2304 830 CURVE SMOOTH",
"2235 820 OFFCURVE",
"2177 802 OFFCURVE",
"2137 773 CURVE SMOOTH",
"2096 744 OFFCURVE",
"2072 704 OFFCURVE",
"2072 649 CURVE"
);
},
{
closed = 1;
nodes = (
"1320 720 OFFCURVE",
"1396 717 OFFCURVE",
"1497 717 CURVE SMOOTH",
"1575 717 OFFCURVE",
"1693 720 OFFCURVE",
"1757 732 CURVE SMOOTH",
"1801 740 OFFCURVE",
"1819 764 OFFCURVE",
"1819 788 CURVE SMOOTH",
"1819 832 OFFCURVE",
"1796 855 OFFCURVE",
"1742 851 CURVE SMOOTH",
"1638 843 OFFCURVE",
"1566 840 OFFCURVE",
"1477 840 CURVE SMOOTH",
"1396 840 OFFCURVE",
"1321 847 OFFCURVE",
"1230 847 CURVE SMOOTH",
"1187 847 OFFCURVE",
"1164 834 OFFCURVE",
"1164 799 CURVE SMOOTH",
"1164 750 OFFCURVE",
"1197 730 OFFCURVE",
"1259 725 CURVE SMOOTH"
);
},
{
closed = 1;
nodes = (
"1291 601 OFFCURVE",
"1278 525 OFFCURVE",
"1245 345 CURVE SMOOTH",
"1222 218 OFFCURVE",
"1200 105 OFFCURVE",
"1200 50 CURVE SMOOTH",
"1200 15 OFFCURVE",
"1223 -5 OFFCURVE",
"1275 -5 CURVE SMOOTH",
"1317 -5 OFFCURVE",
"1356 14 OFFCURVE",
"1356 55 CURVE SMOOTH",
"1356 108 OFFCURVE",
"1378 267 OFFCURVE",
"1395 357 CURVE SMOOTH",
"1426 521 OFFCURVE",
"1437 598 OFFCURVE",
"1469 765 CURVE",
"1319 754 LINE"
);
},
{
closed = 1;
nodes = (
"122 460 OFFCURVE",
"203 510 OFFCURVE",
"179 548 CURVE SMOOTH",
"170 562 OFFCURVE",
"159 585 OFFCURVE",
"159 613 CURVE SMOOTH",
"159 695 OFFCURVE",
"237 724 OFFCURVE",
"530 724 CURVE SMOOTH",
"649 724 OFFCURVE",
"711 719 OFFCURVE",
"815 711 CURVE SMOOTH",
"869 707 OFFCURVE",
"892 730 OFFCURVE",
"892 774 CURVE SMOOTH",
"892 798 OFFCURVE",
"874 822 OFFCURVE",
"830 830 CURVE SMOOTH",
"766 842 OFFCURVE",
"688 847 OFFCURVE",
"580 847 CURVE SMOOTH",
"205 847 OFFCURVE",
"40 781 OFFCURVE",
"40 611 CURVE SMOOTH",
"40 556 OFFCURVE",
"60 513 OFFCURVE",
"86 491 CURVE SMOOTH"
);
}
);
};
layerId = "ECEFE970-1BBB-4E0A-A452-CEB55884B4A3";
paths = (
{
closed = 1;
nodes = (
"117 460 OFFCURVE",
"198 510 OFFCURVE",
"174 548 CURVE SMOOTH",
"165 562 OFFCURVE",
"154 585 OFFCURVE",
"154 613 CURVE SMOOTH",
"154 695 OFFCURVE",
"232 727 OFFCURVE",
"501 727 CURVE SMOOTH",
"660 727 OFFCURVE",
"722 722 OFFCURVE",
"826 714 CURVE SMOOTH",
"880 710 OFFCURVE",
"903 730 OFFCURVE",
"903 774 CURVE SMOOTH",
"903 798 OFFCURVE",
"885 822 OFFCURVE",
"841 830 CURVE SMOOTH",
"777 842 OFFCURVE",
"699 847 OFFCURVE",
"551 847 CURVE SMOOTH",
"200 847 OFFCURVE",
"35 781 OFFCURVE",
"35 611 CURVE SMOOTH",
"35 556 OFFCURVE",
"55 513 OFFCURVE",
"81 491 CURVE SMOOTH"
);
},
{
closed = 1;
nodes = (
"407 -5 OFFCURVE",
"443 14 OFFCURVE",
"446 55 CURVE SMOOTH",
"452 128 OFFCURVE",
"470 267 OFFCURVE",
"485 357 CURVE SMOOTH",
"513 521 OFFCURVE",
"533 627 OFFCURVE",
"561 765 CURVE",
"417 754 LINE",
"391 620 OFFCURVE",
"366 515 OFFCURVE",
"342 355 CURVE SMOOTH",
"323 228 OFFCURVE",
"300 105 OFFCURVE",
"300 53 CURVE SMOOTH",
"300 19 OFFCURVE",
"324 -5 OFFCURVE",
"369 -5 CURVE SMOOTH"
);
}
);
width = 697;
}
);
leftKerningGroup = T;
note = T;
rightKerningGroup = T;
unicode = 0054;
},
{
color = 3;
glyphname = Tbar;
lastChange = "2016-08-02 07:51:17 +0000";
layers = (
{
components = (
{
name = T;
}
);
layerId = "ECEFE970-1BBB-4E0A-A452-CEB55884B4A3";
paths = (
{
closed = 1;
nodes = (
"292 356 OFFCURVE",
"354 359 OFFCURVE",
"424 359 CURVE SMOOTH",
"482 359 OFFCURVE",
"495 359 OFFCURVE",
"579 359 CURVE SMOOTH",
"649 359 OFFCURVE",
"664 384 OFFCURVE",
"664 419 CURVE SMOOTH",
"664 443 OFFCURVE",
"648 463 OFFCURVE",
"603 463 CURVE SMOOTH",
"560 463 OFFCURVE",
"393 460 OFFCURVE",
"442 459 CURVE SMOOTH",
"500 458 OFFCURVE",
"292 457 OFFCURVE",
"266 457 CURVE SMOOTH",
"201 457 OFFCURVE",
"182 432 OFFCURVE",
"182 394 CURVE SMOOTH",
"182 362 OFFCURVE",
"206 353 OFFCURVE",
"239 354 CURVE SMOOTH"
);
}
);
width = 697;
}
);
leftKerningGroup = T;
rightKerningGroup = T;
unicode = 0166;
},
{
color = 3;
glyphname = U;
lastChange = "2016-08-03 20:40:20 +0000";
layers = (
{
anchors = (
{
name = bottom;
position = "{438, 0}";
},
{
name = ogonek;
position = "{868, 10}";
},
{
name = top;
position = "{533, 840}";
},
{
name = topright;
position = "{791, 840}";
}
);
background = {
paths = (
{
closed = 1;
nodes = (
"472 -5 OFFCURVE",
"574 102 OFFCURVE",
"640 296 CURVE",
"631 234 OFFCURVE",
"624 185 OFFCURVE",
"624 148 CURVE SMOOTH",
"624 62 OFFCURVE",
"680 -5 OFFCURVE",
"795 -5 CURVE SMOOTH",
"869 -5 OFFCURVE",
"935 31 OFFCURVE",
"1005 116 CURVE",
"969 209 LINE",
"913 142 OFFCURVE",
"874 114 OFFCURVE",
"830 114 CURVE SMOOTH",
"790 114 OFFCURVE",
"762 141 OFFCURVE",
"762 198 CURVE SMOOTH",
"762 224 OFFCURVE",
"765 248 OFFCURVE",
"770 284 CURVE SMOOTH",
"798 510 OFFCURVE",
"839 684 OFFCURVE",
"839 759 CURVE SMOOTH",
"839 823 OFFCURVE",
"816 848 OFFCURVE",
"770 848 CURVE SMOOTH",
"715 848 OFFCURVE",
"705 818 OFFCURVE",
"697 757 CURVE SMOOTH",
"635 287 OFFCURVE",
"491 122 OFFCURVE",
"380 122 CURVE SMOOTH",
"335 122 OFFCURVE",
"311 151 OFFCURVE",
"311 192 CURVE SMOOTH",
"311 236 OFFCURVE",
"321 271 OFFCURVE",
"329 308 CURVE SMOOTH",
"370 491 LINE SMOOTH",
"388 570 OFFCURVE",
"401 627 OFFCURVE",
"401 702 CURVE SMOOTH",
"401 801 OFFCURVE",
"350 848 OFFCURVE",
"271 848 CURVE SMOOTH",
"155 848 OFFCURVE",
"80 774 OFFCURVE",
"32 708 CURVE SMOOTH",
"11 679 OFFCURVE",
"4 656 OFFCURVE",
"4 638 CURVE SMOOTH",
"4 603 OFFCURVE",
"40 573 OFFCURVE",
"70 613 CURVE SMOOTH",
"132 696 OFFCURVE",
"187 729 OFFCURVE",
"224 729 CURVE SMOOTH",
"244 729 OFFCURVE",
"259 715 OFFCURVE",
"259 681 CURVE SMOOTH",
"259 630 OFFCURVE",
"248 589 OFFCURVE",
"242 559 CURVE SMOOTH",
"180 273 LINE SMOOTH",
"172 234 OFFCURVE",
"167 198 OFFCURVE",
"167 166 CURVE SMOOTH",
"167 67 OFFCURVE",
"220 -5 OFFCURVE",
"337 -5 CURVE SMOOTH"
);
}
);
};
layerId = "ECEFE970-1BBB-4E0A-A452-CEB55884B4A3";
paths = (
{
closed = 1;
nodes = (
"467 -5 OFFCURVE",
"569 102 OFFCURVE",
"635 296 CURVE",
"626 234 OFFCURVE",
"619 185 OFFCURVE",
"619 148 CURVE SMOOTH",
"619 62 OFFCURVE",
"675 -5 OFFCURVE",
"790 -5 CURVE SMOOTH",
"864 -5 OFFCURVE",
"930 31 OFFCURVE",
"1000 116 CURVE SMOOTH",
"1017 137 OFFCURVE",
"1019 159 OFFCURVE",
"1019 178 CURVE SMOOTH",
"1019 205 OFFCURVE",
"1009 223 OFFCURVE",
"991 223 CURVE SMOOTH",
"983 223 OFFCURVE",
"974 221 OFFCURVE",
"964 209 CURVE SMOOTH",
"908 142 OFFCURVE",
"869 114 OFFCURVE",
"825 114 CURVE SMOOTH",
"785 114 OFFCURVE",
"757 141 OFFCURVE",
"757 198 CURVE SMOOTH",
"757 224 OFFCURVE",
"760 248 OFFCURVE",
"765 284 CURVE SMOOTH",
"793 510 OFFCURVE",
"834 684 OFFCURVE",
"834 759 CURVE SMOOTH",
"834 823 OFFCURVE",
"811 848 OFFCURVE",
"765 848 CURVE SMOOTH",
"710 848 OFFCURVE",
"700 818 OFFCURVE",
"692 757 CURVE SMOOTH",
"630 287 OFFCURVE",
"486 122 OFFCURVE",
"375 122 CURVE SMOOTH",
"330 122 OFFCURVE",
"306 151 OFFCURVE",
"306 192 CURVE SMOOTH",
"306 236 OFFCURVE",
"316 271 OFFCURVE",
"324 308 CURVE SMOOTH",
"365 491 LINE SMOOTH",
"383 570 OFFCURVE",
"396 627 OFFCURVE",
"396 702 CURVE SMOOTH",
"396 801 OFFCURVE",
"345 848 OFFCURVE",
"266 848 CURVE SMOOTH",
"150 848 OFFCURVE",
"75 774 OFFCURVE",
"27 708 CURVE SMOOTH",
"6 679 OFFCURVE",
"-1 656 OFFCURVE",
"-1 638 CURVE SMOOTH",
"-1 603 OFFCURVE",
"35 573 OFFCURVE",
"65 613 CURVE SMOOTH",
"127 696 OFFCURVE",
"182 729 OFFCURVE",
"219 729 CURVE SMOOTH",
"239 729 OFFCURVE",
"254 715 OFFCURVE",
"254 681 CURVE SMOOTH",
"254 630 OFFCURVE",
"243 589 OFFCURVE",
"237 559 CURVE SMOOTH",
"175 273 LINE SMOOTH",
"167 234 OFFCURVE",
"162 198 OFFCURVE",
"162 166 CURVE SMOOTH",
"162 67 OFFCURVE",
"215 -5 OFFCURVE",
"332 -5 CURVE SMOOTH"
);
}
);
width = 890;
}
);
leftKerningGroup = U;
leftMetricsKey = N;
note = U;
rightKerningGroup = N;
unicode = 0055;
},
{
color = 3;
glyphname = Uhorn;
lastChange = "2016-08-02 11:49:09 +0000";
layers = (
{
anchors = (
{
name = bottom;
position = "{438, 0}";
},
{
name = ogonek;
position = "{868, 10}";
},
{
name = top;
position = "{533, 840}";
},
{
name = topright;
position = "{800, 912}";
}
);
background = {
paths = (
{
closed = 1;
nodes = (
"1022 137 OFFCURVE",
"1024 159 OFFCURVE",
"1024 178 CURVE SMOOTH",
"1024 205 OFFCURVE",
"1014 223 OFFCURVE",
"996 223 CURVE SMOOTH",
"988 223 OFFCURVE",
"979 221 OFFCURVE",
"969 209 CURVE SMOOTH",
"913 142 OFFCURVE",
"874 114 OFFCURVE",
"830 114 CURVE SMOOTH",
"790 114 OFFCURVE",
"762 141 OFFCURVE",
"762 198 CURVE SMOOTH",
"762 224 OFFCURVE",
"765 248 OFFCURVE",
"770 284 CURVE SMOOTH",
"798 510 OFFCURVE",
"839 684 OFFCURVE",
"839 759 CURVE SMOOTH",
"839 823 OFFCURVE",
"816 848 OFFCURVE",
"770 848 CURVE SMOOTH",
"715 848 OFFCURVE",
"705 818 OFFCURVE",
"697 757 CURVE SMOOTH",
"635 287 OFFCURVE",
"491 122 OFFCURVE",
"380 122 CURVE SMOOTH",
"335 122 OFFCURVE",
"311 151 OFFCURVE",
"311 192 CURVE SMOOTH",
"311 236 OFFCURVE",
"321 271 OFFCURVE",
"329 308 CURVE SMOOTH",
"370 491 LINE SMOOTH",
"388 570 OFFCURVE",
"401 627 OFFCURVE",
"401 702 CURVE SMOOTH",
"401 801 OFFCURVE",
"350 848 OFFCURVE",
"271 848 CURVE SMOOTH",
"155 848 OFFCURVE",
"80 774 OFFCURVE",
"32 708 CURVE SMOOTH",
"11 679 OFFCURVE",
"4 656 OFFCURVE",
"4 638 CURVE SMOOTH",
"4 603 OFFCURVE",
"40 573 OFFCURVE",
"70 613 CURVE SMOOTH",
"132 696 OFFCURVE",
"187 729 OFFCURVE",
"224 729 CURVE SMOOTH",
"244 729 OFFCURVE",
"259 715 OFFCURVE",
"259 681 CURVE SMOOTH",
"259 630 OFFCURVE",
"248 589 OFFCURVE",
"242 559 CURVE SMOOTH",
"180 273 LINE SMOOTH",
"172 234 OFFCURVE",
"167 198 OFFCURVE",
"167 166 CURVE SMOOTH",
"167 67 OFFCURVE",
"220 -5 OFFCURVE",
"337 -5 CURVE SMOOTH",
"472 -5 OFFCURVE",
"574 102 OFFCURVE",
"640 296 CURVE",
"631 234 OFFCURVE",
"624 185 OFFCURVE",
"624 148 CURVE SMOOTH",
"624 62 OFFCURVE",
"680 -5 OFFCURVE",
"795 -5 CURVE SMOOTH",
"869 -5 OFFCURVE",
"935 31 OFFCURVE",
"1005 116 CURVE SMOOTH"
);
},
{
closed = 1;
nodes = (
"904 726 OFFCURVE",
"983 804 OFFCURVE",
"996 919 CURVE SMOOTH",
"1002 972 OFFCURVE",
"976 997 OFFCURVE",
"938 997 CURVE SMOOTH",
"910 997 OFFCURVE",
"890 984 OFFCURVE",
"884 951 CURVE SMOOTH",
"871 881 OFFCURVE",
"848 840 OFFCURVE",
"796 840 CURVE",
"774 726 LINE"
);
}
);
};
layerId = "ECEFE970-1BBB-4E0A-A452-CEB55884B4A3";
paths = (
{
closed = 1;
nodes = (
"467 -5 OFFCURVE",
"569 102 OFFCURVE",
"635 296 CURVE",
"626 234 OFFCURVE",
"619 185 OFFCURVE",
"619 148 CURVE SMOOTH",
"619 62 OFFCURVE",
"675 -5 OFFCURVE",
"790 -5 CURVE SMOOTH",
"864 -5 OFFCURVE",
"930 31 OFFCURVE",
"1000 116 CURVE SMOOTH",
"1017 137 OFFCURVE",
"1019 159 OFFCURVE",
"1019 178 CURVE SMOOTH",
"1019 205 OFFCURVE",
"1009 223 OFFCURVE",
"991 223 CURVE SMOOTH",
"983 223 OFFCURVE",
"974 221 OFFCURVE",
"964 209 CURVE SMOOTH",
"908 142 OFFCURVE",
"869 114 OFFCURVE",
"825 114 CURVE SMOOTH",
"785 114 OFFCURVE",
"757 141 OFFCURVE",
"757 198 CURVE SMOOTH",
"757 224 OFFCURVE",
"760 248 OFFCURVE",
"765 284 CURVE SMOOTH",
"790 487 OFFCURVE",
"826 648 OFFCURVE",
"833 733 CURVE",
"925 755 OFFCURVE",
"980 824 OFFCURVE",
"991 919 CURVE SMOOTH",
"997 972 OFFCURVE",
"971 997 OFFCURVE",
"933 997 CURVE SMOOTH",
"905 997 OFFCURVE",
"885 984 OFFCURVE",
"879 951 CURVE SMOOTH",
"866 881 OFFCURVE",
"837 848 OFFCURVE",
"765 848 CURVE SMOOTH",
"710 848 OFFCURVE",
"700 818 OFFCURVE",
"692 757 CURVE SMOOTH",
"630 287 OFFCURVE",
"486 122 OFFCURVE",
"375 122 CURVE SMOOTH",
"330 122 OFFCURVE",
"306 151 OFFCURVE",
"306 192 CURVE SMOOTH",
"306 236 OFFCURVE",
"316 271 OFFCURVE",
"324 308 CURVE SMOOTH",
"365 491 LINE SMOOTH",
"383 570 OFFCURVE",
"396 627 OFFCURVE",
"396 702 CURVE SMOOTH",
"396 801 OFFCURVE",
"345 848 OFFCURVE",
"266 848 CURVE SMOOTH",
"150 848 OFFCURVE",
"75 774 OFFCURVE",
"27 708 CURVE SMOOTH",
"6 679 OFFCURVE",
"-1 656 OFFCURVE",
"-1 638 CURVE SMOOTH",
"-1 603 OFFCURVE",
"35 573 OFFCURVE",
"65 613 CURVE SMOOTH",
"127 696 OFFCURVE",
"182 729 OFFCURVE",
"219 729 CURVE SMOOTH",
"239 729 OFFCURVE",
"254 715 OFFCURVE",
"254 681 CURVE SMOOTH",
"254 630 OFFCURVE",
"243 589 OFFCURVE",
"237 559 CURVE SMOOTH",
"175 273 LINE SMOOTH",
"167 234 OFFCURVE",
"162 198 OFFCURVE",
"162 166 CURVE SMOOTH",
"162 67 OFFCURVE",
"215 -5 OFFCURVE",
"332 -5 CURVE SMOOTH"
);
}
);
width = 890;
}
);
leftKerningGroup = U;
leftMetricsKey = U;
widthMetricsKey = U;
rightKerningGroup = N;
unicode = 01AF;
},
{
color = 3;
glyphname = V;
lastChange = "2016-08-03 20:40:25 +0000";
layers = (
{
background = {
paths = (
{
closed = 1;
nodes = (
"564 -5 OFFCURVE",
"798 420 OFFCURVE",
"798 692 CURVE SMOOTH",
"798 800 OFFCURVE",
"744 864 OFFCURVE",
"659 864 CURVE SMOOTH",
"557 864 OFFCURVE",
"473 786 OFFCURVE",
"473 622 CURVE SMOOTH",
"473 442 OFFCURVE",
"593 321 OFFCURVE",
"859 329 CURVE",
"889 432 LINE",
"662 432 OFFCURVE",
"574 489 OFFCURVE",
"574 629 CURVE SMOOTH",
"574 709 OFFCURVE",
"601 750 OFFCURVE",
"635 750 CURVE SMOOTH",
"658 750 OFFCURVE",
"676 728 OFFCURVE",
"676 669 CURVE SMOOTH",
"676 501 OFFCURVE",
"501 131 OFFCURVE",
"371 131 CURVE SMOOTH",
"303 131 OFFCURVE",
"269 240 OFFCURVE",
"269 443 CURVE SMOOTH",
"269 537 OFFCURVE",
"278 643 OFFCURVE",
"299 769 CURVE SMOOTH",
"308 822 OFFCURVE",
"287 848 OFFCURVE",
"235 848 CURVE SMOOTH",
"180 848 OFFCURVE",
"165 826 OFFCURVE",
"153 759 CURVE SMOOTH",
"133 647 OFFCURVE",
"128 540 OFFCURVE",
"128 443 CURVE SMOOTH",
"128 182 OFFCURVE",
"189 -5 OFFCURVE",
"334 -5 CURVE SMOOTH"
);
}
);
};
layerId = "ECEFE970-1BBB-4E0A-A452-CEB55884B4A3";
paths = (
{
closed = 1;
nodes = (
"559 -5 OFFCURVE",
"793 420 OFFCURVE",
"793 692 CURVE SMOOTH",
"793 800 OFFCURVE",
"739 864 OFFCURVE",
"654 864 CURVE SMOOTH",
"552 864 OFFCURVE",
"468 786 OFFCURVE",
"468 622 CURVE SMOOTH",
"468 442 OFFCURVE",
"588 324 OFFCURVE",
"844 329 CURVE SMOOTH",
"893 330 OFFCURVE",
"908 367 OFFCURVE",
"908 396 CURVE SMOOTH",
"908 416 OFFCURVE",
"896 432 OFFCURVE",
"864 432 CURVE SMOOTH",
"661 432 OFFCURVE",
"569 489 OFFCURVE",
"569 629 CURVE SMOOTH",
"569 709 OFFCURVE",
"596 750 OFFCURVE",
"630 750 CURVE SMOOTH",
"653 750 OFFCURVE",
"671 728 OFFCURVE",
"671 669 CURVE SMOOTH",
"671 501 OFFCURVE",
"496 131 OFFCURVE",
"366 131 CURVE SMOOTH",
"298 131 OFFCURVE",
"264 240 OFFCURVE",
"264 443 CURVE SMOOTH",
"264 537 OFFCURVE",
"273 643 OFFCURVE",
"294 769 CURVE SMOOTH",
"303 822 OFFCURVE",
"282 848 OFFCURVE",
"230 848 CURVE SMOOTH",
"175 848 OFFCURVE",
"160 826 OFFCURVE",
"148 759 CURVE SMOOTH",
"128 647 OFFCURVE",
"123 540 OFFCURVE",
"123 443 CURVE SMOOTH",
"123 182 OFFCURVE",
"184 -5 OFFCURVE",
"329 -5 CURVE SMOOTH"
);
}
);
width = 763;
}
);
leftKerningGroup = V;
note = V;
rightKerningGroup = V;
unicode = 0056;
},
{
color = 3;
glyphname = W;
lastChange = "2016-08-02 07:51:44 +0000";
layers = (
{
anchors = (
{
name = bottom;
position = "{554, 0}";
},
{
name = top;
position = "{699, 840}";
}
);
background = {
paths = (
{
closed = 1;
nodes = (
"1018 -5 OFFCURVE",
"1252 420 OFFCURVE",
"1252 692 CURVE SMOOTH",
"1252 800 OFFCURVE",
"1198 864 OFFCURVE",
"1113 864 CURVE SMOOTH",
"1011 864 OFFCURVE",
"927 786 OFFCURVE",
"927 622 CURVE SMOOTH",
"927 442 OFFCURVE",
"1047 321 OFFCURVE",
"1313 329 CURVE",
"1343 432 LINE",
"1116 432 OFFCURVE",
"1028 489 OFFCURVE",
"1028 629 CURVE SMOOTH",
"1028 709 OFFCURVE",
"1055 750 OFFCURVE",
"1089 750 CURVE SMOOTH",
"1112 750 OFFCURVE",
"1130 728 OFFCURVE",
"1130 669 CURVE SMOOTH",
"1130 501 OFFCURVE",
"955 131 OFFCURVE",
"835 131 CURVE SMOOTH",
"750 131 OFFCURVE",
"736 241 OFFCURVE",
"736 443 CURVE SMOOTH",
"736 537 OFFCURVE",
"743 647 OFFCURVE",
"764 769 CURVE SMOOTH",
"773 822 OFFCURVE",
"757 848 OFFCURVE",
"706 848 CURVE",
"655 759 LINE",
"586 411 OFFCURVE",
"592 -5 OFFCURVE",
"798 -5 CURVE SMOOTH"
);
},
{
closed = 1;
nodes = (
"480 -5 OFFCURVE",
"630 221 OFFCURVE",
"716 763 CURVE",
"706 848 LINE",
"660 848 OFFCURVE",
"629 832 OFFCURVE",
"618 767 CURVE SMOOTH",
"546 341 OFFCURVE",
"418 131 OFFCURVE",
"352 131 CURVE SMOOTH",
"275 131 OFFCURVE",
"237 357 OFFCURVE",
"297 760 CURVE SMOOTH",
"308 833 OFFCURVE",
"276 848 OFFCURVE",
"236 848 CURVE SMOOTH",
"183 848 OFFCURVE",
"162 826 OFFCURVE",
"152 759 CURVE SMOOTH",
"90 341 OFFCURVE",
"137 -5 OFFCURVE",
"320 -5 CURVE SMOOTH"
);
}
);
};
layerId = "ECEFE970-1BBB-4E0A-A452-CEB55884B4A3";
paths = (
{
closed = 1;
nodes = (
"1013 -5 OFFCURVE",
"1247 420 OFFCURVE",
"1247 692 CURVE SMOOTH",
"1247 800 OFFCURVE",
"1193 864 OFFCURVE",
"1108 864 CURVE SMOOTH",
"1006 864 OFFCURVE",
"922 786 OFFCURVE",
"922 622 CURVE SMOOTH",
"922 442 OFFCURVE",
"1042 324 OFFCURVE",
"1298 329 CURVE SMOOTH",
"1347 330 OFFCURVE",
"1362 367 OFFCURVE",
"1362 396 CURVE SMOOTH",
"1362 416 OFFCURVE",
"1350 432 OFFCURVE",
"1318 432 CURVE SMOOTH",
"1115 432 OFFCURVE",
"1023 489 OFFCURVE",
"1023 629 CURVE SMOOTH",
"1023 709 OFFCURVE",
"1050 750 OFFCURVE",
"1084 750 CURVE SMOOTH",
"1107 750 OFFCURVE",
"1125 728 OFFCURVE",
"1125 669 CURVE SMOOTH",
"1125 501 OFFCURVE",
"950 131 OFFCURVE",
"830 131 CURVE SMOOTH",
"745 131 OFFCURVE",
"731 241 OFFCURVE",
"731 443 CURVE SMOOTH",
"731 537 OFFCURVE",
"738 647 OFFCURVE",
"759 769 CURVE SMOOTH",
"768 822 OFFCURVE",
"752 848 OFFCURVE",
"701 848 CURVE",
"650 759 LINE",
"581 411 OFFCURVE",
"587 -5 OFFCURVE",
"793 -5 CURVE SMOOTH"
);
},
{
closed = 1;
nodes = (
"475 -5 OFFCURVE",
"625 221 OFFCURVE",
"711 763 CURVE",
"701 848 LINE",
"655 848 OFFCURVE",
"624 832 OFFCURVE",
"613 767 CURVE SMOOTH",
"541 341 OFFCURVE",
"413 131 OFFCURVE",
"347 131 CURVE SMOOTH",
"270 131 OFFCURVE",
"232 357 OFFCURVE",
"292 760 CURVE SMOOTH",
"303 833 OFFCURVE",
"271 848 OFFCURVE",
"231 848 CURVE SMOOTH",
"178 848 OFFCURVE",
"157 826 OFFCURVE",
"147 759 CURVE SMOOTH",
"85 341 OFFCURVE",
"132 -5 OFFCURVE",
"315 -5 CURVE SMOOTH"
);
}
);
width = 1217;
}
);
leftKerningGroup = V;
leftMetricsKey = V;
note = W;
rightKerningGroup = V;
rightMetricsKey = V;
unicode = 0057;
},
{
color = 3;
glyphname = X;
lastChange = "2016-08-03 20:40:49 +0000";
layers = (
{
background = {
paths = (
{
closed = 1;
nodes = (
"708 -5 OFFCURVE",
"770 49 OFFCURVE",
"827 116 CURVE",
"795 209 LINE",
"736 142 OFFCURVE",
"691 114 OFFCURVE",
"649 114 CURVE SMOOTH",
"591 114 OFFCURVE",
"573 153 OFFCURVE",
"546 250 CURVE SMOOTH",
"431 660 LINE SMOOTH",
"394 793 OFFCURVE",
"334 848 OFFCURVE",
"241 848 CURVE SMOOTH",
"145 848 OFFCURVE",
"84 796 OFFCURVE",
"38 742 CURVE SMOOTH",
"-30 663 OFFCURVE",
"37 611 OFFCURVE",
"72 649 CURVE SMOOTH",
"107 687 OFFCURVE",
"154 726 OFFCURVE",
"196 726 CURVE SMOOTH",
"241 726 OFFCURVE",
"279 693 OFFCURVE",
"311 578 CURVE SMOOTH",
"415 203 LINE SMOOTH",
"448 84 OFFCURVE",
"495 -5 OFFCURVE",
"623 -5 CURVE SMOOTH"
);
},
{
closed = 1;
nodes = (
"86 -5 OFFCURVE",
"116 -1 OFFCURVE",
"145 35 CURVE SMOOTH",
"398 349 LINE",
"749 754 LINE SMOOTH",
"798 811 OFFCURVE",
"776 847 OFFCURVE",
"718 847 CURVE SMOOTH",
"677 847 OFFCURVE",
"652 834 OFFCURVE",
"626 803 CURVE SMOOTH",
"365 486 LINE",
"19 92 LINE SMOOTH",
"-40 25 OFFCURVE",
"1 -5 OFFCURVE",
"55 -5 CURVE SMOOTH"
);
}
);
};
guideLines = (
{
angle = -75.3543;
position = "{434, 578}";
}
);
layerId = "ECEFE970-1BBB-4E0A-A452-CEB55884B4A3";
paths = (
{
closed = 1;
nodes = (
"703 -5 OFFCURVE",
"765 49 OFFCURVE",
"822 116 CURVE SMOOTH",
"839 137 OFFCURVE",
"841 159 OFFCURVE",
"841 178 CURVE SMOOTH",
"841 205 OFFCURVE",
"831 223 OFFCURVE",
"813 223 CURVE SMOOTH",
"805 223 OFFCURVE",
"796 221 OFFCURVE",
"786 209 CURVE SMOOTH",
"727 142 OFFCURVE",
"686 114 OFFCURVE",
"644 114 CURVE SMOOTH",
"586 114 OFFCURVE",
"568 153 OFFCURVE",
"541 250 CURVE SMOOTH",
"426 660 LINE SMOOTH",
"389 793 OFFCURVE",
"329 848 OFFCURVE",
"236 848 CURVE SMOOTH",
"140 848 OFFCURVE",
"79 796 OFFCURVE",
"33 742 CURVE SMOOTH",
"-35 663 OFFCURVE",
"32 611 OFFCURVE",
"67 649 CURVE SMOOTH",
"102 687 OFFCURVE",
"149 726 OFFCURVE",
"191 726 CURVE SMOOTH",
"236 726 OFFCURVE",
"274 693 OFFCURVE",
"306 578 CURVE SMOOTH",
"410 203 LINE SMOOTH",
"443 84 OFFCURVE",
"490 -5 OFFCURVE",
"618 -5 CURVE SMOOTH"
);
},
{
closed = 1;
nodes = (
"81 -5 OFFCURVE",
"111 -1 OFFCURVE",
"140 35 CURVE SMOOTH",
"393 349 LINE",
"744 754 LINE SMOOTH",
"793 811 OFFCURVE",
"771 847 OFFCURVE",
"713 847 CURVE SMOOTH",
"672 847 OFFCURVE",
"647 834 OFFCURVE",
"621 803 CURVE SMOOTH",
"360 486 LINE",
"14 92 LINE SMOOTH",
"-45 25 OFFCURVE",
"-4 -5 OFFCURVE",
"50 -5 CURVE SMOOTH"
);
}
);
width = 712;
}
);
leftKerningGroup = X;
note = X;
rightKerningGroup = X;
unicode = 0058;
},
{
color = 3;
glyphname = Y;
lastChange = "2016-08-03 20:40:55 +0000";
layers = (
{
anchors = (
{
name = bottom;
position = "{776, -95}";
},
{
name = top;
position = "{546, 840}";
},
{
name = topleft;
position = "{265, 840}";
}
);
background = {
paths = (
{
closed = 1;
nodes = (
"1640 257 OFFCURVE",
"1628 176 OFFCURVE",
"1609 37 CURVE SMOOTH",
"1582 -157 OFFCURVE",
"1517 -225 OFFCURVE",
"1435 -225 CURVE SMOOTH",
"1390 -225 OFFCURVE",
"1367 -194 OFFCURVE",
"1368 -158 CURVE SMOOTH",
"1371 -39 OFFCURVE",
"1549 53 OFFCURVE",
"1925 122 CURVE",
"1913 224 LINE",
"1469 132 OFFCURVE",
"1246 3 OFFCURVE",
"1246 -183 CURVE SMOOTH",
"1246 -264 OFFCURVE",
"1305 -327 OFFCURVE",
"1420 -327 CURVE SMOOTH",
"1580 -327 OFFCURVE",
"1707 -213 OFFCURVE",
"1746 59 CURVE SMOOTH",
"1804 462 OFFCURVE",
"1830 622 OFFCURVE",
"1849 769 CURVE SMOOTH",
"1855 816 OFFCURVE",
"1832 848 OFFCURVE",
"1779 848 CURVE SMOOTH",
"1735 848 OFFCURVE",
"1705 828 OFFCURVE",
"1698 767 CURVE SMOOTH",
"1656 397 OFFCURVE",
"1521 232 OFFCURVE",
"1420 232 CURVE SMOOTH",
"1364 232 OFFCURVE",
"1344 261 OFFCURVE",
"1344 326 CURVE SMOOTH",
"1344 397 OFFCURVE",
"1406 566 OFFCURVE",
"1406 702 CURVE SMOOTH",
"1406 801 OFFCURVE",
"1355 848 OFFCURVE",
"1279 848 CURVE SMOOTH",
"1160 848 OFFCURVE",
"1085 774 OFFCURVE",
"1037 708 CURVE SMOOTH",
"1016 679 OFFCURVE",
"1009 656 OFFCURVE",
"1009 638 CURVE SMOOTH",
"1009 603 OFFCURVE",
"1045 573 OFFCURVE",
"1075 613 CURVE SMOOTH",
"1134 691 OFFCURVE",
"1187 724 OFFCURVE",
"1222 724 CURVE SMOOTH",
"1242 724 OFFCURVE",
"1257 715 OFFCURVE",
"1257 681 CURVE SMOOTH",
"1257 582 OFFCURVE",
"1194 406 OFFCURVE",
"1194 296 CURVE SMOOTH",
"1194 187 OFFCURVE",
"1253 105 OFFCURVE",
"1372 105 CURVE SMOOTH",
"1489 105 OFFCURVE",
"1591 185 OFFCURVE",
"1655 354 CURVE"
);
},
{
closed = 1;
nodes = (
"472 -5 OFFCURVE",
"574 102 OFFCURVE",
"640 296 CURVE",
"631 234 OFFCURVE",
"624 185 OFFCURVE",
"624 148 CURVE SMOOTH",
"624 62 OFFCURVE",
"680 -5 OFFCURVE",
"795 -5 CURVE SMOOTH",
"869 -5 OFFCURVE",
"935 31 OFFCURVE",
"1005 116 CURVE",
"969 209 LINE",
"913 142 OFFCURVE",
"874 114 OFFCURVE",
"830 114 CURVE SMOOTH",
"790 114 OFFCURVE",
"762 141 OFFCURVE",
"762 198 CURVE SMOOTH",
"762 224 OFFCURVE",
"765 248 OFFCURVE",
"770 284 CURVE SMOOTH",
"801 510 OFFCURVE",
"839 684 OFFCURVE",
"839 759 CURVE SMOOTH",
"839 823 OFFCURVE",
"816 848 OFFCURVE",
"770 848 CURVE SMOOTH",
"715 848 OFFCURVE",
"705 818 OFFCURVE",
"697 757 CURVE SMOOTH",
"635 287 OFFCURVE",
"491 122 OFFCURVE",
"380 122 CURVE SMOOTH",
"335 122 OFFCURVE",
"311 151 OFFCURVE",
"311 192 CURVE SMOOTH",
"311 236 OFFCURVE",
"321 271 OFFCURVE",
"329 308 CURVE SMOOTH",
"370 491 LINE SMOOTH",
"388 570 OFFCURVE",
"401 627 OFFCURVE",
"401 702 CURVE SMOOTH",
"401 801 OFFCURVE",
"350 848 OFFCURVE",
"271 848 CURVE SMOOTH",
"155 848 OFFCURVE",
"80 774 OFFCURVE",
"32 708 CURVE SMOOTH",
"11 679 OFFCURVE",
"4 656 OFFCURVE",
"4 638 CURVE SMOOTH",
"4 603 OFFCURVE",
"40 573 OFFCURVE",
"70 613 CURVE SMOOTH",
"132 696 OFFCURVE",
"187 729 OFFCURVE",
"224 729 CURVE SMOOTH",
"244 729 OFFCURVE",
"259 715 OFFCURVE",
"259 681 CURVE SMOOTH",
"259 630 OFFCURVE",
"248 589 OFFCURVE",
"242 559 CURVE SMOOTH",
"180 273 LINE SMOOTH",
"172 234 OFFCURVE",
"167 198 OFFCURVE",
"167 166 CURVE SMOOTH",
"167 67 OFFCURVE",
"220 -5 OFFCURVE",
"337 -5 CURVE SMOOTH"
);
}
);
};
guideLines = (
{
position = "{400, -327}";
}
);
layerId = "ECEFE970-1BBB-4E0A-A452-CEB55884B4A3";
paths = (
{
closed = 1;
nodes = (
"575 -327 OFFCURVE",
"696 -213 OFFCURVE",
"735 59 CURVE SMOOTH",
"793 462 OFFCURVE",
"819 622 OFFCURVE",
"837 759 CURVE SMOOTH",
"844 816 OFFCURVE",
"821 848 OFFCURVE",
"768 848 CURVE SMOOTH",
"724 848 OFFCURVE",
"700 828 OFFCURVE",
"693 767 CURVE SMOOTH",
"651 397 OFFCURVE",
"516 231 OFFCURVE",
"415 231 CURVE SMOOTH",
"354 231 OFFCURVE",
"334 260 OFFCURVE",
"334 326 CURVE SMOOTH",
"334 397 OFFCURVE",
"396 566 OFFCURVE",
"396 702 CURVE SMOOTH",
"396 801 OFFCURVE",
"345 848 OFFCURVE",
"266 848 CURVE SMOOTH",
"150 848 OFFCURVE",
"75 774 OFFCURVE",
"27 708 CURVE SMOOTH",
"6 679 OFFCURVE",
"-1 656 OFFCURVE",
"-1 638 CURVE SMOOTH",
"-1 603 OFFCURVE",
"35 573 OFFCURVE",
"65 613 CURVE SMOOTH",
"127 696 OFFCURVE",
"182 729 OFFCURVE",
"217 729 CURVE SMOOTH",
"239 729 OFFCURVE",
"254 715 OFFCURVE",
"254 681 CURVE SMOOTH",
"254 582 OFFCURVE",
"191 406 OFFCURVE",
"191 296 CURVE SMOOTH",
"191 190 OFFCURVE",
"248 108 OFFCURVE",
"367 108 CURVE SMOOTH",
"484 108 OFFCURVE",
"586 185 OFFCURVE",
"650 354 CURVE",
"635 257 OFFCURVE",
"623 176 OFFCURVE",
"604 37 CURVE SMOOTH",
"578 -157 OFFCURVE",
"512 -225 OFFCURVE",
"430 -225 CURVE SMOOTH",
"385 -225 OFFCURVE",
"362 -194 OFFCURVE",
"363 -158 CURVE SMOOTH",
"366 -39 OFFCURVE",
"544 53 OFFCURVE",
"917 121 CURVE SMOOTH",
"948 127 OFFCURVE",
"960 153 OFFCURVE",
"960 182 CURVE SMOOTH",
"960 221 OFFCURVE",
"940 232 OFFCURVE",
"908 224 CURVE SMOOTH",
"464 132 OFFCURVE",
"241 3 OFFCURVE",
"241 -183 CURVE SMOOTH",
"241 -264 OFFCURVE",
"300 -327 OFFCURVE",
"415 -327 CURVE SMOOTH"
);
}
);
width = 851;
}
);
leftKerningGroup = Y;
leftMetricsKey = N;
note = Y;
rightKerningGroup = j;
rightMetricsKey = j;
unicode = 0059;
},
{
color = 3;
glyphname = Z;
lastChange = "2016-08-03 20:41:02 +0000";
layers = (
{
anchors = (
{
name = bottom;
position = "{360, 0}";
},
{
name = top;
position = "{450, 840}";
}
);
background = {
paths = (
{
closed = 1;
nodes = (
"236 -5 OFFCURVE",
"307 65 OFFCURVE",
"504 353 CURVE SMOOTH",
"602 496 OFFCURVE",
"678 617 OFFCURVE",
"752 739 CURVE",
"595 748 LINE",
"489 562 OFFCURVE",
"364 375 OFFCURVE",
"214 189 CURVE",
"194 181 LINE",
"184 181 LINE",
"184 200 LINE",
"84 200 OFFCURVE",
"20 149 OFFCURVE",
"20 87 CURVE SMOOTH",
"20 32 OFFCURVE",
"67 -5 OFFCURVE",
"141 -5 CURVE SMOOTH"
);
},
{
closed = 1;
nodes = (
"178 489 OFFCURVE",
"208 508 OFFCURVE",
"208 536 CURVE SMOOTH",
"208 556 OFFCURVE",
"183 576 OFFCURVE",
"183 619 CURVE SMOOTH",
"183 694 OFFCURVE",
"251 729 OFFCURVE",
"405 729 CURVE SMOOTH",
"577 729 OFFCURVE",
"657 691 OFFCURVE",
"730 691 CURVE SMOOTH",
"764 691 OFFCURVE",
"783 712 OFFCURVE",
"783 748 CURVE SMOOTH",
"783 775 OFFCURVE",
"776 796 OFFCURVE",
"733 808 CURVE SMOOTH",
"630 837 OFFCURVE",
"510 846 OFFCURVE",
"417 846 CURVE SMOOTH",
"219 846 OFFCURVE",
"64 781 OFFCURVE",
"64 617 CURVE SMOOTH",
"64 566 OFFCURVE",
"82 526 OFFCURVE",
"106 504 CURVE SMOOTH",
"117 494 OFFCURVE",
"132 489 OFFCURVE",
"147 489 CURVE SMOOTH"
);
},
{
closed = 1;
nodes = (
"819 223 OFFCURVE",
"810 221 OFFCURVE",
"800 209 CURVE SMOOTH",
"752 153 OFFCURVE",
"700 127 OFFCURVE",
"622 127 CURVE SMOOTH",
"537 127 OFFCURVE",
"372 200 OFFCURVE",
"184 200 CURVE",
"138 110 LINE",
"347 110 OFFCURVE",
"436 -5 OFFCURVE",
"601 -5 CURVE SMOOTH",
"698 -5 OFFCURVE",
"761 25 OFFCURVE",
"836 116 CURVE SMOOTH",
"853 137 OFFCURVE",
"855 159 OFFCURVE",
"855 178 CURVE SMOOTH",
"855 205 OFFCURVE",
"845 223 OFFCURVE",
"827 223 CURVE SMOOTH"
);
}
);
};
layerId = "ECEFE970-1BBB-4E0A-A452-CEB55884B4A3";
paths = (
{
closed = 1;
nodes = (
"231 -5 OFFCURVE",
"302 65 OFFCURVE",
"499 353 CURVE SMOOTH",
"597 496 OFFCURVE",
"673 617 OFFCURVE",
"747 739 CURVE",
"594 748 LINE",
"488 562 OFFCURVE",
"363 375 OFFCURVE",
"213 189 CURVE",
"189 181 LINE",
"179 181 LINE",
"179 200 LINE",
"79 200 OFFCURVE",
"15 149 OFFCURVE",
"15 87 CURVE SMOOTH",
"15 32 OFFCURVE",
"62 -5 OFFCURVE",
"136 -5 CURVE SMOOTH"
);
},
{
closed = 1;
nodes = (
"693 -5 OFFCURVE",
"756 25 OFFCURVE",
"831 116 CURVE SMOOTH",
"848 137 OFFCURVE",
"850 159 OFFCURVE",
"850 178 CURVE SMOOTH",
"850 205 OFFCURVE",
"840 223 OFFCURVE",
"822 223 CURVE SMOOTH",
"814 223 OFFCURVE",
"805 221 OFFCURVE",
"795 209 CURVE SMOOTH",
"747 153 OFFCURVE",
"695 127 OFFCURVE",
"617 127 CURVE SMOOTH",
"532 127 OFFCURVE",
"367 200 OFFCURVE",
"179 200 CURVE",
"133 110 LINE",
"342 110 OFFCURVE",
"431 -5 OFFCURVE",
"596 -5 CURVE SMOOTH"
);
},
{
closed = 1;
nodes = (
"173 489 OFFCURVE",
"203 508 OFFCURVE",
"203 536 CURVE SMOOTH",
"203 556 OFFCURVE",
"178 576 OFFCURVE",
"178 619 CURVE SMOOTH",
"178 694 OFFCURVE",
"246 729 OFFCURVE",
"400 729 CURVE SMOOTH",
"572 729 OFFCURVE",
"652 691 OFFCURVE",
"725 691 CURVE SMOOTH",
"759 691 OFFCURVE",
"778 712 OFFCURVE",
"778 748 CURVE SMOOTH",
"778 775 OFFCURVE",
"771 796 OFFCURVE",
"728 808 CURVE SMOOTH",
"625 837 OFFCURVE",
"505 846 OFFCURVE",
"412 846 CURVE SMOOTH",
"214 846 OFFCURVE",
"59 781 OFFCURVE",
"59 617 CURVE SMOOTH",
"59 566 OFFCURVE",
"77 526 OFFCURVE",
"101 504 CURVE SMOOTH",
"112 494 OFFCURVE",
"127 489 OFFCURVE",
"142 489 CURVE SMOOTH"
);
}
);
width = 721;
}
);
leftKerningGroup = Z;
note = Z;
rightKerningGroup = Z;
unicode = 005A;
},
{
color = 5;
glyphname = A.ss01;
lastChange = "2016-08-03 19:07:34 +0000";
layers = (
{
anchors = (
{
name = bottom;
position = "{384, 0}";
},
{
name = ogonek;
position = "{603, 10}";
},
{
name = top;
position = "{592, 840}";
}
);
background = {
paths = (
{
closed = 1;
nodes = (
"434 -4 OFFCURVE",
"510 82 OFFCURVE",
"553 237 CURVE",
"555 437 LINE",
"497 211 OFFCURVE",
"437 113 OFFCURVE",
"333 113 CURVE SMOOTH",
"260 113 OFFCURVE",
"209 163 OFFCURVE",
"209 290 CURVE SMOOTH",
"209 514 OFFCURVE",
"338 732 OFFCURVE",
"614 732 CURVE SMOOTH",
"661 732 OFFCURVE",
"698 728 OFFCURVE",
"744 719 CURVE SMOOTH",
"835 701 OFFCURVE",
"863 805 OFFCURVE",
"802 824 CURVE SMOOTH",
"746 841 OFFCURVE",
"683 848 OFFCURVE",
"626 848 CURVE SMOOTH",
"251 848 OFFCURVE",
"61 576 OFFCURVE",
"61 280 CURVE SMOOTH",
"61 75 OFFCURVE",
"190 -4 OFFCURVE",
"306 -4 CURVE SMOOTH"
);
},
{
closed = 1;
nodes = (
"615 -5 OFFCURVE",
"647 14 OFFCURVE",
"650 45 CURVE SMOOTH",
"655 94 LINE",
"661 231 OFFCURVE",
"702 493 OFFCURVE",
"741 611 CURVE SMOOTH",
"743 617 OFFCURVE",
"744 623 OFFCURVE",
"744 628 CURVE SMOOTH",
"744 661 OFFCURVE",
"713 672 OFFCURVE",
"683 672 CURVE SMOOTH",
"646 672 OFFCURVE",
"611 659 OFFCURVE",
"602 623 CURVE SMOOTH",
"555 437 LINE",
"538 347 OFFCURVE",
"518 172 OFFCURVE",
"507 60 CURVE SMOOTH",
"503 21 OFFCURVE",
"521 -5 OFFCURVE",
"573 -5 CURVE SMOOTH"
);
}
);
};
guideLines = (
{
angle = 255.7189;
position = "{564, 568}";
}
);
layerId = "ECEFE970-1BBB-4E0A-A452-CEB55884B4A3";
paths = (
{
closed = 1;
nodes = (
"429 -4 OFFCURVE",
"505 82 OFFCURVE",
"548 237 CURVE",
"550 437 LINE",
"492 211 OFFCURVE",
"432 113 OFFCURVE",
"328 113 CURVE SMOOTH",
"255 113 OFFCURVE",
"204 163 OFFCURVE",
"204 290 CURVE SMOOTH",
"204 514 OFFCURVE",
"333 732 OFFCURVE",
"609 732 CURVE SMOOTH",
"656 732 OFFCURVE",
"693 728 OFFCURVE",
"739 719 CURVE SMOOTH",
"830 701 OFFCURVE",
"858 805 OFFCURVE",
"797 824 CURVE SMOOTH",
"741 841 OFFCURVE",
"678 848 OFFCURVE",
"621 848 CURVE SMOOTH",
"246 848 OFFCURVE",
"56 576 OFFCURVE",
"56 280 CURVE SMOOTH",
"56 75 OFFCURVE",
"185 -4 OFFCURVE",
"301 -4 CURVE SMOOTH"
);
},
{
closed = 1;
nodes = (
"610 -5 OFFCURVE",
"642 14 OFFCURVE",
"645 45 CURVE SMOOTH",
"650 94 LINE",
"656 231 OFFCURVE",
"697 493 OFFCURVE",
"736 611 CURVE SMOOTH",
"738 617 OFFCURVE",
"739 623 OFFCURVE",
"739 628 CURVE SMOOTH",
"739 661 OFFCURVE",
"708 672 OFFCURVE",
"678 672 CURVE SMOOTH",
"641 672 OFFCURVE",
"606 659 OFFCURVE",
"597 623 CURVE SMOOTH",
"550 437 LINE",
"533 347 OFFCURVE",
"513 172 OFFCURVE",
"502 60 CURVE SMOOTH",
"498 21 OFFCURVE",
"516 -5 OFFCURVE",
"568 -5 CURVE SMOOTH"
);
}
);
width = 780;
}
);
leftKerningGroup = O;
leftMetricsKey = O;
note = A;
rightKerningGroup = A_ss01;
},
{
color = 5;
glyphname = Aringacute.ss01;
lastChange = "2016-08-03 16:50:09 +0000";
layers = (
{
components = (
{
name = A.ss01;
}
);
layerId = "ECEFE970-1BBB-4E0A-A452-CEB55884B4A3";
paths = (
{
closed = 1;
nodes = (
"684 912 OFFCURVE",
"752 966 OFFCURVE",
"752 1060 CURVE SMOOTH",
"752 1146 OFFCURVE",
"689 1192 OFFCURVE",
"623 1192 CURVE SMOOTH",
"550 1192 OFFCURVE",
"482 1138 OFFCURVE",
"482 1044 CURVE SMOOTH",
"482 958 OFFCURVE",
"545 912 OFFCURVE",
"611 912 CURVE SMOOTH"
);
},
{
closed = 1;
nodes = (
"593 1000 OFFCURVE",
"571 1018 OFFCURVE",
"571 1049 CURVE SMOOTH",
"571 1083 OFFCURVE",
"594 1104 OFFCURVE",
"619 1104 CURVE SMOOTH",
"641 1104 OFFCURVE",
"663 1086 OFFCURVE",
"663 1055 CURVE SMOOTH",
"663 1021 OFFCURVE",
"640 1000 OFFCURVE",
"615 1000 CURVE SMOOTH"
);
},
{
closed = 1;
nodes = (
"799 1127 OFFCURVE",
"806 1128 OFFCURVE",
"812 1131 CURVE SMOOTH",
"929 1183 LINE SMOOTH",
"961 1197 OFFCURVE",
"974 1222 OFFCURVE",
"974 1243 CURVE SMOOTH",
"974 1272 OFFCURVE",
"949 1297 OFFCURVE",
"919 1297 CURVE SMOOTH",
"908 1297 OFFCURVE",
"894 1293 OFFCURVE",
"882 1282 CURVE SMOOTH",
"778 1188 LINE SMOOTH",
"767 1178 OFFCURVE",
"762 1168 OFFCURVE",
"762 1158 CURVE SMOOTH",
"762 1141 OFFCURVE",
"775 1127 OFFCURVE",
"794 1127 CURVE SMOOTH"
);
}
);
width = 780;
}
);
leftKerningGroup = O;
rightKerningGroup = A_ss01;
},
{
color = 5;
glyphname = AE.ss01;
lastChange = "2016-08-03 20:21:08 +0000";
layers = (
{
anchors = (
{
name = bottom;
position = "{576, 0}";
},
{
name = top;
position = "{703, 840}";
}
);
background = {
paths = (
{
closed = 1;
nodes = (
"1049 38 OFFCURVE",
"1061 61 OFFCURVE",
"1061 98 CURVE SMOOTH",
"1061 126 OFFCURVE",
"1048 155 OFFCURVE",
"1002 144 CURVE SMOOTH",
"948 130 OFFCURVE",
"919 121 OFFCURVE",
"857 121 CURVE SMOOTH",
"700 121 OFFCURVE",
"660 212 OFFCURVE",
"694 361 CURVE",
"803 363 OFFCURVE",
"871 366 OFFCURVE",
"949 368 CURVE SMOOTH",
"992 369 OFFCURVE",
"1015 401 OFFCURVE",
"1015 441 CURVE SMOOTH",
"1015 471 OFFCURVE",
"1004 490 OFFCURVE",
"962 490 CURVE SMOOTH",
"891 490 OFFCURVE",
"807 486 OFFCURVE",
"718 483 CURVE",
"734 556 OFFCURVE",
"756 648 OFFCURVE",
"776 710 CURVE",
"817 713 OFFCURVE",
"961 720 OFFCURVE",
"1013 720 CURVE SMOOTH",
"1065 720 OFFCURVE",
"1085 759 OFFCURVE",
"1085 795 CURVE SMOOTH",
"1085 832 OFFCURVE",
"1070 849 OFFCURVE",
"1021 849 CURVE SMOOTH",
"945 849 OFFCURVE",
"825 842 OFFCURVE",
"771 840 CURVE SMOOTH",
"704 837 OFFCURVE",
"653 801 OFFCURVE",
"633 727 CURVE SMOOTH",
"552 431 LINE",
"543 264 LINE",
"537 121 OFFCURVE",
"619 -5 OFFCURVE",
"844 -5 CURVE SMOOTH",
"901 -5 OFFCURVE",
"955 4 OFFCURVE",
"1002 21 CURVE SMOOTH"
);
},
{
closed = 1;
nodes = (
"430 -5 OFFCURVE",
"525 64 OFFCURVE",
"579 237 CURVE",
"675 626 LINE",
"552 431 LINE",
"504 257 OFFCURVE",
"450 116 OFFCURVE",
"329 116 CURVE SMOOTH",
"263 116 OFFCURVE",
"212 177 OFFCURVE",
"212 290 CURVE SMOOTH",
"212 514 OFFCURVE",
"332 698 OFFCURVE",
"564 726 CURVE SMOOTH",
"591 729 OFFCURVE",
"602 750 OFFCURVE",
"602 779 CURVE SMOOTH",
"602 821 OFFCURVE",
"583 850 OFFCURVE",
"516 842 CURVE SMOOTH",
"252 810 OFFCURVE",
"61 576 OFFCURVE",
"61 280 CURVE SMOOTH",
"61 100 OFFCURVE",
"167 -5 OFFCURVE",
"317 -5 CURVE SMOOTH"
);
}
);
};
guideLines = (
{
angle = 254.6088;
position = "{1038, 602}";
}
);
layerId = "ECEFE970-1BBB-4E0A-A452-CEB55884B4A3";
paths = (
{
closed = 1;
nodes = (
"425 -5 OFFCURVE",
"520 64 OFFCURVE",
"574 237 CURVE",
"670 626 LINE",
"550 431 LINE",
"502 257 OFFCURVE",
"445 112 OFFCURVE",
"324 112 CURVE SMOOTH",
"254 112 OFFCURVE",
"203 174 OFFCURVE",
"203 290 CURVE SMOOTH",
"203 514 OFFCURVE",
"323 704 OFFCURVE",
"559 730 CURVE SMOOTH",
"586 733 OFFCURVE",
"597 754 OFFCURVE",
"597 780 CURVE SMOOTH",
"597 821 OFFCURVE",
"578 850 OFFCURVE",
"511 842 CURVE SMOOTH",
"247 810 OFFCURVE",
"56 576 OFFCURVE",
"56 280 CURVE SMOOTH",
"56 100 OFFCURVE",
"162 -5 OFFCURVE",
"312 -5 CURVE SMOOTH"
);
},
{
closed = 1;
nodes = (
"891 -5 OFFCURVE",
"949 4 OFFCURVE",
"1000 22 CURVE SMOOTH",
"1044 38 OFFCURVE",
"1056 61 OFFCURVE",
"1056 97 CURVE SMOOTH",
"1056 126 OFFCURVE",
"1043 155 OFFCURVE",
"990 139 CURVE SMOOTH",
"945 125 OFFCURVE",
"904 115 OFFCURVE",
"862 115 CURVE SMOOTH",
"693 115 OFFCURVE",
"652 212 OFFCURVE",
"686 361 CURVE",
"795 363 OFFCURVE",
"849 366 OFFCURVE",
"944 368 CURVE SMOOTH",
"987 369 OFFCURVE",
"1010 401 OFFCURVE",
"1010 441 CURVE SMOOTH",
"1010 471 OFFCURVE",
"999 490 OFFCURVE",
"957 490 CURVE SMOOTH",
"879 490 OFFCURVE",
"799 486 OFFCURVE",
"710 483 CURVE",
"726 556 OFFCURVE",
"748 650 OFFCURVE",
"768 710 CURVE",
"809 715 OFFCURVE",
"916 720 OFFCURVE",
"1008 720 CURVE SMOOTH",
"1060 720 OFFCURVE",
"1080 759 OFFCURVE",
"1080 795 CURVE SMOOTH",
"1080 832 OFFCURVE",
"1065 849 OFFCURVE",
"1016 849 CURVE SMOOTH",
"920 849 OFFCURVE",
"850 844 OFFCURVE",
"766 840 CURVE SMOOTH",
"699 837 OFFCURVE",
"651 801 OFFCURVE",
"631 727 CURVE SMOOTH",
"550 431 LINE",
"541 264 LINE",
"535 121 OFFCURVE",
"617 -5 OFFCURVE",
"839 -5 CURVE SMOOTH"
);
}
);
width = 1057;
}
);
leftKerningGroup = O;
leftMetricsKey = A.ss01;
note = AE;
rightKerningGroup = AE_ss01;
},
{
color = 5;
glyphname = B.ss01;
lastChange = "2016-08-03 19:31:33 +0000";
layers = (
{
background = {
paths = (
{
closed = 1;
nodes = (
"193 816 OFFCURVE",
"167 789 OFFCURVE",
"167 748 CURVE SMOOTH",
"167 719 OFFCURVE",
"189 698 OFFCURVE",
"215 705 CURVE SMOOTH",
"300 728 OFFCURVE",
"378 744 OFFCURVE",
"459 744 CURVE SMOOTH",
"594 744 OFFCURVE",
"662 692 OFFCURVE",
"662 623 CURVE SMOOTH",
"662 529 OFFCURVE",
"551 471 OFFCURVE",
"438 468 CURVE SMOOTH",
"393 467 OFFCURVE",
"383 438 OFFCURVE",
"382 406 CURVE SMOOTH",
"381 375 OFFCURVE",
"388 364 OFFCURVE",
"418 363 CURVE SMOOTH",
"559 359 OFFCURVE",
"595 307 OFFCURVE",
"595 256 CURVE SMOOTH",
"595 179 OFFCURVE",
"522 112 OFFCURVE",
"331 112 CURVE SMOOTH",
"280 112 OFFCURVE",
"262 113 OFFCURVE",
"238 115 CURVE",
"245 227 OFFCURVE",
"290 472 OFFCURVE",
"327 582 CURVE SMOOTH",
"332 597 OFFCURVE",
"333 603 OFFCURVE",
"333 614 CURVE SMOOTH",
"333 641 OFFCURVE",
"306 650 OFFCURVE",
"269 650 CURVE SMOOTH",
"222 650 OFFCURVE",
"194 639 OFFCURVE",
"184 603 CURVE SMOOTH",
"131 411 OFFCURVE",
"105 262 OFFCURVE",
"91 76 CURVE SMOOTH",
"88 37 OFFCURVE",
"106 19 OFFCURVE",
"158 13 CURVE SMOOTH",
"209 7 OFFCURVE",
"238 3 OFFCURVE",
"327 3 CURVE SMOOTH",
"594 3 OFFCURVE",
"746 104 OFFCURVE",
"746 261 CURVE SMOOTH",
"746 347 OFFCURVE",
"688 399 OFFCURVE",
"557 419 CURVE",
"554 400 LINE",
"723 432 OFFCURVE",
"815 517 OFFCURVE",
"815 640 CURVE SMOOTH",
"815 765 OFFCURVE",
"698 862 OFFCURVE",
"480 862 CURVE SMOOTH",
"357 862 OFFCURVE",
"291 844 OFFCURVE",
"227 826 CURVE SMOOTH"
);
}
);
};
layerId = "ECEFE970-1BBB-4E0A-A452-CEB55884B4A3";
paths = (
{
closed = 1;
nodes = (
"589 3 OFFCURVE",
"741 104 OFFCURVE",
"741 261 CURVE SMOOTH",
"741 347 OFFCURVE",
"683 399 OFFCURVE",
"552 419 CURVE",
"549 400 LINE",
"718 432 OFFCURVE",
"810 517 OFFCURVE",
"810 640 CURVE SMOOTH",
"810 765 OFFCURVE",
"693 862 OFFCURVE",
"475 862 CURVE SMOOTH",
"352 862 OFFCURVE",
"286 844 OFFCURVE",
"222 826 CURVE SMOOTH",
"188 816 OFFCURVE",
"162 793 OFFCURVE",
"162 752 CURVE SMOOTH",
"162 723 OFFCURVE",
"184 702 OFFCURVE",
"210 709 CURVE SMOOTH",
"295 732 OFFCURVE",
"373 748 OFFCURVE",
"454 748 CURVE SMOOTH",
"593 748 OFFCURVE",
"661 696 OFFCURVE",
"661 623 CURVE SMOOTH",
"661 529 OFFCURVE",
"550 471 OFFCURVE",
"433 468 CURVE SMOOTH",
"388 467 OFFCURVE",
"378 438 OFFCURVE",
"377 406 CURVE SMOOTH",
"376 375 OFFCURVE",
"383 364 OFFCURVE",
"413 363 CURVE SMOOTH",
"557 359 OFFCURVE",
"593 307 OFFCURVE",
"593 256 CURVE SMOOTH",
"593 179 OFFCURVE",
"520 112 OFFCURVE",
"326 112 CURVE SMOOTH",
"275 112 OFFCURVE",
"253 113 OFFCURVE",
"229 117 CURVE",
"236 227 OFFCURVE",
"281 472 OFFCURVE",
"315 582 CURVE SMOOTH",
"320 597 OFFCURVE",
"321 603 OFFCURVE",
"321 614 CURVE SMOOTH",
"321 641 OFFCURVE",
"294 650 OFFCURVE",
"260 650 CURVE SMOOTH",
"213 650 OFFCURVE",
"189 639 OFFCURVE",
"179 603 CURVE SMOOTH",
"126 411 OFFCURVE",
"100 262 OFFCURVE",
"86 76 CURVE SMOOTH",
"83 37 OFFCURVE",
"101 19 OFFCURVE",
"153 13 CURVE SMOOTH",
"204 7 OFFCURVE",
"253 3 OFFCURVE",
"322 3 CURVE SMOOTH"
);
}
);
width = 826;
}
);
leftKerningGroup = I_ss01;
leftMetricsKey = I.ss01;
note = B;
rightKerningGroup = B_ss01;
},
{
color = 5;
glyphname = C.ss01;
lastChange = "2016-08-03 20:21:15 +0000";
layers = (
{
anchors = (
{
name = bottom;
position = "{385, 0}";
},
{
name = top;
position = "{481, 840}";
}
);
background = {
paths = (
{
closed = 1;
nodes = (
"299 121 OFFCURVE",
"221 189 OFFCURVE",
"221 367 CURVE SMOOTH",
"221 606 OFFCURVE",
"353 730 OFFCURVE",
"477 730 CURVE SMOOTH",
"543 730 OFFCURVE",
"570 694 OFFCURVE",
"570 643 CURVE SMOOTH",
"570 619 OFFCURVE",
"560 584 OFFCURVE",
"560 562 CURVE SMOOTH",
"560 528 OFFCURVE",
"584 510 OFFCURVE",
"620 510 CURVE SMOOTH",
"678 510 OFFCURVE",
"707 567 OFFCURVE",
"707 646 CURVE SMOOTH",
"707 762 OFFCURVE",
"636 848 OFFCURVE",
"487 848 CURVE SMOOTH",
"262 848 OFFCURVE",
"70 649 OFFCURVE",
"70 350 CURVE SMOOTH",
"70 114 OFFCURVE",
"212 -5 OFFCURVE",
"400 -5 CURVE SMOOTH",
"497 -5 OFFCURVE",
"600 34 OFFCURVE",
"681 121 CURVE SMOOTH",
"732 175 OFFCURVE",
"706 273 OFFCURVE",
"644 218 CURVE SMOOTH",
"569 152 OFFCURVE",
"500 121 OFFCURVE",
"420 121 CURVE SMOOTH"
);
}
);
};
layerId = "ECEFE970-1BBB-4E0A-A452-CEB55884B4A3";
paths = (
{
closed = 1;
nodes = (
"492 -5 OFFCURVE",
"595 34 OFFCURVE",
"676 121 CURVE SMOOTH",
"727 175 OFFCURVE",
"700 275 OFFCURVE",
"639 218 CURVE SMOOTH",
"564 148 OFFCURVE",
"495 117 OFFCURVE",
"415 117 CURVE SMOOTH",
"290 117 OFFCURVE",
"212 185 OFFCURVE",
"212 367 CURVE SMOOTH",
"212 606 OFFCURVE",
"344 734 OFFCURVE",
"472 734 CURVE SMOOTH",
"542 734 OFFCURVE",
"569 698 OFFCURVE",
"569 643 CURVE SMOOTH",
"569 619 OFFCURVE",
"559 584 OFFCURVE",
"559 562 CURVE SMOOTH",
"559 528 OFFCURVE",
"583 510 OFFCURVE",
"619 510 CURVE SMOOTH",
"673 510 OFFCURVE",
"702 567 OFFCURVE",
"702 646 CURVE SMOOTH",
"702 762 OFFCURVE",
"631 848 OFFCURVE",
"482 848 CURVE SMOOTH",
"257 848 OFFCURVE",
"65 649 OFFCURVE",
"65 350 CURVE SMOOTH",
"65 114 OFFCURVE",
"207 -5 OFFCURVE",
"395 -5 CURVE SMOOTH"
);
}
);
width = 704;
}
);
leftKerningGroup = O;
leftMetricsKey = O;
note = C;
rightKerningGroup = C_ss01;
},
{
color = 5;
glyphname = D.ss01;
lastChange = "2016-08-02 19:36:42 +0000";
layers = (
{
anchors = (
{
name = bottom;
position = "{341, 0}";
},
{
name = center;
position = "{428, 420}";
},
{
name = top;
position = "{451, 840}";
}
);
layerId = "ECEFE970-1BBB-4E0A-A452-CEB55884B4A3";
paths = (
{
closed = 1;
nodes = (
"605 -5 OFFCURVE",
"791 194 OFFCURVE",
"791 494 CURVE SMOOTH",
"791 714 OFFCURVE",
"654 860 OFFCURVE",
"415 860 CURVE SMOOTH",
"350 860 OFFCURVE",
"289 850 OFFCURVE",
"244 834 CURVE SMOOTH",
"175 810 OFFCURVE",
"157 792 OFFCURVE",
"157 749 CURVE SMOOTH",
"157 722 OFFCURVE",
"170 697 OFFCURVE",
"223 714 CURVE SMOOTH",
"304 740 OFFCURVE",
"352 746 OFFCURVE",
"404 746 CURVE SMOOTH",
"539 746 OFFCURVE",
"644 665 OFFCURVE",
"644 489 CURVE SMOOTH",
"644 272 OFFCURVE",
"540 108 OFFCURVE",
"296 108 CURVE SMOOTH",
"280 108 OFFCURVE",
"255 109 OFFCURVE",
"229 111 CURVE",
"244 279 OFFCURVE",
"283 479 OFFCURVE",
"315 582 CURVE SMOOTH",
"320 597 OFFCURVE",
"321 603 OFFCURVE",
"321 614 CURVE SMOOTH",
"321 642 OFFCURVE",
"294 650 OFFCURVE",
"260 650 CURVE SMOOTH",
"221 650 OFFCURVE",
"189 639 OFFCURVE",
"179 603 CURVE SMOOTH",
"126 411 OFFCURVE",
"93 199 OFFCURVE",
"83 78 CURVE SMOOTH",
"79 29 OFFCURVE",
"98 12 OFFCURVE",
"151 5 CURVE SMOOTH",
"202 -2 OFFCURVE",
"231 -5 OFFCURVE",
"282 -5 CURVE SMOOTH"
);
}
);
width = 810;
}
);
leftKerningGroup = I_ss01;
note = D;
rightKerningGroup = O;
rightMetricsKey = O;
},
{
color = 5;
glyphname = E.ss01;
lastChange = "2016-08-03 20:22:04 +0000";
layers = (
{
anchors = (
{
name = bottom;
position = "{351, 0}";
},
{
name = ogonek;
position = "{485, 10}";
},
{
name = top;
position = "{458, 840}";
},
{
name = topleft;
position = "{43, 840}";
}
);
background = {
paths = (
{
closed = 1;
nodes = (
"265 119 OFFCURVE",
"199 164 OFFCURVE",
"199 240 CURVE SMOOTH",
"199 309 OFFCURVE",
"253 382 OFFCURVE",
"423 386 CURVE SMOOTH",
"471 387 OFFCURVE",
"482 417 OFFCURVE",
"483 449 CURVE SMOOTH",
"484 480 OFFCURVE",
"474 492 OFFCURVE",
"443 493 CURVE SMOOTH",
"323 497 OFFCURVE",
"268 548 OFFCURVE",
"268 604 CURVE SMOOTH",
"268 681 OFFCURVE",
"348 733 OFFCURVE",
"459 733 CURVE SMOOTH",
"555 733 OFFCURVE",
"582 694 OFFCURVE",
"582 656 CURVE SMOOTH",
"582 621 OFFCURVE",
"572 603 OFFCURVE",
"572 574 CURVE SMOOTH",
"572 540 OFFCURVE",
"596 522 OFFCURVE",
"632 522 CURVE SMOOTH",
"690 522 OFFCURVE",
"719 579 OFFCURVE",
"719 656 CURVE SMOOTH",
"719 762 OFFCURVE",
"644 848 OFFCURVE",
"461 848 CURVE SMOOTH",
"278 848 OFFCURVE",
"118 753 OFFCURVE",
"118 612 CURVE SMOOTH",
"118 523 OFFCURVE",
"189 450 OFFCURVE",
"292 441 CURVE",
"313 460 LINE",
"138 433 OFFCURVE",
"48 341 OFFCURVE",
"48 215 CURVE SMOOTH",
"48 94 OFFCURVE",
"156 -5 OFFCURVE",
"356 -5 CURVE SMOOTH",
"498 -5 OFFCURVE",
"605 36 OFFCURVE",
"684 121 CURVE SMOOTH",
"734 176 OFFCURVE",
"710 272 OFFCURVE",
"647 218 CURVE SMOOTH",
"570 152 OFFCURVE",
"486 119 OFFCURVE",
"381 119 CURVE SMOOTH"
);
}
);
};
layerId = "ECEFE970-1BBB-4E0A-A452-CEB55884B4A3";
paths = (
{
closed = 1;
nodes = (
"493 -5 OFFCURVE",
"600 36 OFFCURVE",
"679 121 CURVE SMOOTH",
"729 176 OFFCURVE",
"703 274 OFFCURVE",
"642 218 CURVE SMOOTH",
"565 148 OFFCURVE",
"481 115 OFFCURVE",
"376 115 CURVE SMOOTH",
"258 115 OFFCURVE",
"192 164 OFFCURVE",
"192 240 CURVE SMOOTH",
"192 309 OFFCURVE",
"246 382 OFFCURVE",
"418 386 CURVE SMOOTH",
"466 387 OFFCURVE",
"477 417 OFFCURVE",
"478 449 CURVE SMOOTH",
"479 480 OFFCURVE",
"469 492 OFFCURVE",
"438 493 CURVE SMOOTH",
"316 497 OFFCURVE",
"261 548 OFFCURVE",
"261 604 CURVE SMOOTH",
"261 685 OFFCURVE",
"335 737 OFFCURVE",
"451 737 CURVE SMOOTH",
"550 737 OFFCURVE",
"577 698 OFFCURVE",
"577 656 CURVE SMOOTH",
"577 621 OFFCURVE",
"567 603 OFFCURVE",
"567 574 CURVE SMOOTH",
"567 540 OFFCURVE",
"591 522 OFFCURVE",
"627 522 CURVE SMOOTH",
"685 522 OFFCURVE",
"714 579 OFFCURVE",
"714 656 CURVE SMOOTH",
"714 762 OFFCURVE",
"639 848 OFFCURVE",
"456 848 CURVE SMOOTH",
"273 848 OFFCURVE",
"113 753 OFFCURVE",
"113 612 CURVE SMOOTH",
"113 523 OFFCURVE",
"184 450 OFFCURVE",
"287 441 CURVE",
"308 460 LINE",
"133 433 OFFCURVE",
"43 341 OFFCURVE",
"43 215 CURVE SMOOTH",
"43 94 OFFCURVE",
"151 -5 OFFCURVE",
"351 -5 CURVE SMOOTH"
);
}
);
width = 720;
}
);
leftKerningGroup = E_ss01;
note = E;
rightKerningGroup = E_ss01;
},
{
color = 5;
glyphname = F.ss01;
lastChange = "2016-08-03 20:41:35 +0000";
layers = (
{
background = {
paths = (
{
closed = 1;
nodes = (
"150 334 OFFCURVE",
"253 338 OFFCURVE",
"298 338 CURVE SMOOTH",
"335 338 OFFCURVE",
"493 340 OFFCURVE",
"538 340 CURVE SMOOTH",
"589 340 OFFCURVE",
"615 369 OFFCURVE",
"615 413 CURVE SMOOTH",
"615 438 OFFCURVE",
"608 461 OFFCURVE",
"553 461 CURVE SMOOTH",
"510 461 OFFCURVE",
"167 454 OFFCURVE",
"133 454 CURVE SMOOTH",
"90 454 OFFCURVE",
"65 425 OFFCURVE",
"65 381 CURVE SMOOTH",
"65 337 OFFCURVE",
"95 334 OFFCURVE",
"116 334 CURVE SMOOTH"
);
},
{
closed = 1;
nodes = (
"250 716 OFFCURVE",
"326 716 OFFCURVE",
"427 716 CURVE SMOOTH",
"505 716 OFFCURVE",
"623 719 OFFCURVE",
"687 731 CURVE SMOOTH",
"731 739 OFFCURVE",
"749 764 OFFCURVE",
"749 796 CURVE SMOOTH",
"749 832 OFFCURVE",
"726 855 OFFCURVE",
"672 851 CURVE SMOOTH",
"568 843 OFFCURVE",
"496 840 OFFCURVE",
"407 840 CURVE SMOOTH",
"326 840 OFFCURVE",
"251 845 OFFCURVE",
"170 845 CURVE SMOOTH",
"117 845 OFFCURVE",
"94 831 OFFCURVE",
"94 793 CURVE SMOOTH",
"94 747 OFFCURVE",
"127 726 OFFCURVE",
"189 721 CURVE SMOOTH"
);
},
{
closed = 1;
nodes = (
"225 620 OFFCURVE",
"203 515 OFFCURVE",
"177 355 CURVE SMOOTH",
"156 228 OFFCURVE",
"133 105 OFFCURVE",
"133 55 CURVE SMOOTH",
"133 19 OFFCURVE",
"157 -5 OFFCURVE",
"206 -5 CURVE SMOOTH",
"248 -5 OFFCURVE",
"282 14 OFFCURVE",
"285 55 CURVE SMOOTH",
"290 128 OFFCURVE",
"309 267 OFFCURVE",
"324 357 CURVE SMOOTH",
"351 521 OFFCURVE",
"372 627 OFFCURVE",
"400 765 CURVE",
"252 754 LINE"
);
}
);
};
layerId = "ECEFE970-1BBB-4E0A-A452-CEB55884B4A3";
paths = (
{
closed = 1;
nodes = (
"243 -5 OFFCURVE",
"269 14 OFFCURVE",
"272 55 CURVE SMOOTH",
"277 128 OFFCURVE",
"298 267 OFFCURVE",
"313 357 CURVE SMOOTH",
"340 521 OFFCURVE",
"361 627 OFFCURVE",
"389 765 CURVE",
"247 754 LINE",
"220 620 OFFCURVE",
"198 515 OFFCURVE",
"172 355 CURVE SMOOTH",
"151 228 OFFCURVE",
"130 105 OFFCURVE",
"130 55 CURVE SMOOTH",
"130 19 OFFCURVE",
"152 -5 OFFCURVE",
"201 -5 CURVE SMOOTH"
);
},
{
closed = 1;
nodes = (
"145 336 OFFCURVE",
"248 340 OFFCURVE",
"293 340 CURVE SMOOTH",
"330 340 OFFCURVE",
"488 342 OFFCURVE",
"533 342 CURVE SMOOTH",
"584 342 OFFCURVE",
"610 369 OFFCURVE",
"610 413 CURVE SMOOTH",
"610 438 OFFCURVE",
"603 461 OFFCURVE",
"548 461 CURVE SMOOTH",
"505 461 OFFCURVE",
"162 454 OFFCURVE",
"128 454 CURVE SMOOTH",
"85 454 OFFCURVE",
"60 425 OFFCURVE",
"60 381 CURVE SMOOTH",
"60 339 OFFCURVE",
"90 336 OFFCURVE",
"111 336 CURVE SMOOTH"
);
},
{
closed = 1;
nodes = (
"500 718 OFFCURVE",
"618 721 OFFCURVE",
"682 733 CURVE SMOOTH",
"726 741 OFFCURVE",
"744 764 OFFCURVE",
"744 796 CURVE SMOOTH",
"744 832 OFFCURVE",
"721 855 OFFCURVE",
"667 851 CURVE SMOOTH",
"563 843 OFFCURVE",
"491 840 OFFCURVE",
"402 840 CURVE SMOOTH",
"321 840 OFFCURVE",
"246 845 OFFCURVE",
"165 845 CURVE SMOOTH",
"112 845 OFFCURVE",
"89 831 OFFCURVE",
"89 793 CURVE SMOOTH",
"89 747 OFFCURVE",
"122 728 OFFCURVE",
"184 723 CURVE SMOOTH",
"245 718 OFFCURVE",
"321 718 OFFCURVE",
"422 718 CURVE SMOOTH"
);
}
);
width = 671;
}
);
leftKerningGroup = H_ss01;
note = F;
rightKerningGroup = F_ss01;
},
{
color = 5;
glyphname = G.ss01;
lastChange = "2016-08-03 20:41:40 +0000";
layers = (
{
anchors = (
{
name = bottom;
position = "{411, 0}";
},
{
name = top;
position = "{496, 840}";
}
);
background = {
paths = (
{
closed = 1;
nodes = (
"540 386 LINE SMOOTH",
"497 386 OFFCURVE",
"470 363 OFFCURVE",
"470 326 CURVE SMOOTH",
"470 283 OFFCURVE",
"497 268 OFFCURVE",
"543 268 CURVE SMOOTH",
"628 268 LINE",
"624 222 OFFCURVE",
"618 163 OFFCURVE",
"606 75 CURVE SMOOTH",
"590 -42 OFFCURVE",
"575 -119 OFFCURVE",
"569 -175 CURVE SMOOTH",
"564 -221 OFFCURVE",
"583 -247 OFFCURVE",
"625 -247 CURVE SMOOTH",
"665 -247 OFFCURVE",
"688 -226 OFFCURVE",
"696 -185 CURVE SMOOTH",
"711 -112 OFFCURVE",
"723 -18 OFFCURVE",
"738 87 CURVE SMOOTH",
"749 167 OFFCURVE",
"762 260 OFFCURVE",
"765 320 CURVE SMOOTH",
"767 368 OFFCURVE",
"741 386 OFFCURVE",
"695 386 CURVE SMOOTH"
);
},
{
closed = 1;
nodes = (
"630 146 LINE",
"579 129 OFFCURVE",
"528 119 OFFCURVE",
"482 119 CURVE SMOOTH",
"309 119 OFFCURVE",
"221 212 OFFCURVE",
"221 366 CURVE SMOOTH",
"221 606 OFFCURVE",
"353 730 OFFCURVE",
"491 730 CURVE SMOOTH",
"571 730 OFFCURVE",
"598 694 OFFCURVE",
"598 646 CURVE SMOOTH",
"598 617 OFFCURVE",
"588 590 OFFCURVE",
"588 568 CURVE SMOOTH",
"588 537 OFFCURVE",
"612 519 OFFCURVE",
"648 519 CURVE SMOOTH",
"706 519 OFFCURVE",
"735 573 OFFCURVE",
"735 649 CURVE SMOOTH",
"735 762 OFFCURVE",
"664 848 OFFCURVE",
"501 848 CURVE SMOOTH",
"255 848 OFFCURVE",
"70 649 OFFCURVE",
"70 348 CURVE SMOOTH",
"70 134 OFFCURVE",
"218 -5 OFFCURVE",
"459 -5 CURVE SMOOTH",
"512 -5 OFFCURVE",
"566 7 OFFCURVE",
"619 27 CURVE"
);
}
);
};
layerId = "ECEFE970-1BBB-4E0A-A452-CEB55884B4A3";
paths = (
{
closed = 1;
nodes = (
"507 -5 OFFCURVE",
"561 9 OFFCURVE",
"614 31 CURVE",
"625 146 LINE",
"574 127 OFFCURVE",
"523 115 OFFCURVE",
"467 115 CURVE SMOOTH",
"300 115 OFFCURVE",
"212 208 OFFCURVE",
"212 366 CURVE SMOOTH",
"212 610 OFFCURVE",
"344 734 OFFCURVE",
"486 734 CURVE SMOOTH",
"570 734 OFFCURVE",
"597 698 OFFCURVE",
"597 646 CURVE SMOOTH",
"597 617 OFFCURVE",
"587 590 OFFCURVE",
"587 568 CURVE SMOOTH",
"587 537 OFFCURVE",
"611 519 OFFCURVE",
"647 519 CURVE SMOOTH",
"701 519 OFFCURVE",
"730 573 OFFCURVE",
"730 649 CURVE SMOOTH",
"730 762 OFFCURVE",
"659 848 OFFCURVE",
"496 848 CURVE SMOOTH",
"250 848 OFFCURVE",
"65 649 OFFCURVE",
"65 348 CURVE SMOOTH",
"65 134 OFFCURVE",
"216 -5 OFFCURVE",
"441 -5 CURVE SMOOTH"
);
},
{
closed = 1;
nodes = (
"660 -247 OFFCURVE",
"683 -226 OFFCURVE",
"691 -185 CURVE SMOOTH",
"706 -112 OFFCURVE",
"718 -18 OFFCURVE",
"733 87 CURVE SMOOTH",
"744 167 OFFCURVE",
"757 260 OFFCURVE",
"760 320 CURVE SMOOTH",
"762 368 OFFCURVE",
"736 386 OFFCURVE",
"690 386 CURVE SMOOTH",
"535 386 LINE SMOOTH",
"492 386 OFFCURVE",
"465 363 OFFCURVE",
"465 326 CURVE SMOOTH",
"465 283 OFFCURVE",
"492 268 OFFCURVE",
"538 268 CURVE SMOOTH",
"625 268 LINE",
"621 222 OFFCURVE",
"615 163 OFFCURVE",
"603 75 CURVE SMOOTH",
"587 -42 OFFCURVE",
"572 -119 OFFCURVE",
"566 -175 CURVE SMOOTH",
"561 -221 OFFCURVE",
"578 -247 OFFCURVE",
"620 -247 CURVE SMOOTH"
);
}
);
width = 811;
}
);
leftKerningGroup = O;
leftMetricsKey = C.ss01;
note = G;
rightKerningGroup = G_ss01;
},
{
color = 5;
glyphname = H.ss01;
lastChange = "2016-08-02 22:02:31 +0000";
layers = (
{
anchors = (
{
name = bottom;
position = "{390, 0}";
},
{
name = center;
position = "{447, 420}";
},
{
name = top;
position = "{505, 840}";
},
{
name = topleft;
position = "{195, 840}";
}
);
background = {
paths = (
{
closed = 1;
nodes = (
"166 366 OFFCURVE",
"348 371 OFFCURVE",
"418 371 CURVE SMOOTH",
"476 371 OFFCURVE",
"679 370 OFFCURVE",
"763 370 CURVE SMOOTH",
"833 370 OFFCURVE",
"848 399 OFFCURVE",
"848 440 CURVE SMOOTH",
"848 468 OFFCURVE",
"832 491 OFFCURVE",
"787 491 CURVE SMOOTH",
"744 491 OFFCURVE",
"577 487 OFFCURVE",
"436 485 CURVE SMOOTH",
"298 484 OFFCURVE",
"166 484 OFFCURVE",
"140 484 CURVE SMOOTH",
"75 484 OFFCURVE",
"56 455 OFFCURVE",
"56 411 CURVE SMOOTH",
"56 374 OFFCURVE",
"80 363 OFFCURVE",
"113 364 CURVE SMOOTH"
);
},
{
closed = 1;
nodes = (
"232 848 OFFCURVE",
"204 829 OFFCURVE",
"200 778 CURVE SMOOTH",
"196 715 OFFCURVE",
"178 576 OFFCURVE",
"162 486 CURVE SMOOTH",
"155 446 OFFCURVE",
"147 403 OFFCURVE",
"139 355 CURVE SMOOTH",
"118 228 OFFCURVE",
"95 105 OFFCURVE",
"95 55 CURVE SMOOTH",
"95 19 OFFCURVE",
"115 -5 OFFCURVE",
"166 -5 CURVE SMOOTH",
"216 -5 OFFCURVE",
"243 14 OFFCURVE",
"247 65 CURVE SMOOTH",
"251 128 OFFCURVE",
"270 267 OFFCURVE",
"285 357 CURVE SMOOTH",
"307 488 LINE SMOOTH",
"328 615 OFFCURVE",
"352 738 OFFCURVE",
"352 788 CURVE SMOOTH",
"352 824 OFFCURVE",
"333 848 OFFCURVE",
"284 848 CURVE SMOOTH"
);
},
{
closed = 1;
nodes = (
"683 848 OFFCURVE",
"655 829 OFFCURVE",
"651 778 CURVE SMOOTH",
"646 715 OFFCURVE",
"629 576 OFFCURVE",
"613 486 CURVE SMOOTH",
"606 446 OFFCURVE",
"598 403 OFFCURVE",
"590 355 CURVE SMOOTH",
"569 228 OFFCURVE",
"546 105 OFFCURVE",
"546 55 CURVE SMOOTH",
"546 19 OFFCURVE",
"566 -5 OFFCURVE",
"617 -5 CURVE SMOOTH",
"667 -5 OFFCURVE",
"694 14 OFFCURVE",
"698 65 CURVE SMOOTH",
"703 128 OFFCURVE",
"721 267 OFFCURVE",
"736 357 CURVE SMOOTH",
"758 488 LINE SMOOTH",
"779 615 OFFCURVE",
"803 738 OFFCURVE",
"803 788 CURVE SMOOTH",
"803 824 OFFCURVE",
"784 848 OFFCURVE",
"735 848 CURVE SMOOTH"
);
}
);
};
layerId = "ECEFE970-1BBB-4E0A-A452-CEB55884B4A3";
paths = (
{
closed = 1;
nodes = (
"662 -5 OFFCURVE",
"689 14 OFFCURVE",
"693 65 CURVE SMOOTH",
"698 128 OFFCURVE",
"716 267 OFFCURVE",
"731 357 CURVE SMOOTH",
"753 488 LINE SMOOTH",
"774 615 OFFCURVE",
"796 738 OFFCURVE",
"796 788 CURVE SMOOTH",
"796 824 OFFCURVE",
"779 848 OFFCURVE",
"733 848 CURVE SMOOTH",
"684 848 OFFCURVE",
"656 829 OFFCURVE",
"652 778 CURVE SMOOTH",
"647 715 OFFCURVE",
"630 576 OFFCURVE",
"614 486 CURVE SMOOTH",
"607 446 OFFCURVE",
"599 403 OFFCURVE",
"591 355 CURVE SMOOTH",
"570 228 OFFCURVE",
"549 105 OFFCURVE",
"549 55 CURVE SMOOTH",
"549 19 OFFCURVE",
"567 -5 OFFCURVE",
"618 -5 CURVE SMOOTH"
);
},
{
closed = 1;
nodes = (
"205 -5 OFFCURVE",
"232 14 OFFCURVE",
"236 65 CURVE SMOOTH",
"241 128 OFFCURVE",
"259 267 OFFCURVE",
"274 357 CURVE SMOOTH",
"296 488 LINE SMOOTH",
"317 615 OFFCURVE",
"339 738 OFFCURVE",
"339 788 CURVE SMOOTH",
"339 824 OFFCURVE",
"322 848 OFFCURVE",
"276 848 CURVE SMOOTH",
"227 848 OFFCURVE",
"199 829 OFFCURVE",
"195 778 CURVE SMOOTH",
"191 715 OFFCURVE",
"173 576 OFFCURVE",
"157 486 CURVE SMOOTH",
"150 446 OFFCURVE",
"142 403 OFFCURVE",
"134 355 CURVE SMOOTH",
"113 228 OFFCURVE",
"92 105 OFFCURVE",
"92 55 CURVE SMOOTH",
"92 19 OFFCURVE",
"110 -5 OFFCURVE",
"161 -5 CURVE SMOOTH"
);
},
{
closed = 1;
nodes = (
"161 366 OFFCURVE",
"343 370 OFFCURVE",
"413 370 CURVE SMOOTH",
"471 370 OFFCURVE",
"674 370 OFFCURVE",
"758 370 CURVE SMOOTH",
"828 370 OFFCURVE",
"843 399 OFFCURVE",
"843 440 CURVE SMOOTH",
"843 468 OFFCURVE",
"827 491 OFFCURVE",
"782 491 CURVE SMOOTH",
"739 491 OFFCURVE",
"572 488 OFFCURVE",
"431 486 CURVE SMOOTH",
"293 485 OFFCURVE",
"161 484 OFFCURVE",
"135 484 CURVE SMOOTH",
"70 484 OFFCURVE",
"51 455 OFFCURVE",
"51 411 CURVE SMOOTH",
"51 374 OFFCURVE",
"75 363 OFFCURVE",
"108 364 CURVE SMOOTH"
);
}
);
width = 846;
}
);
leftKerningGroup = H_ss01;
note = H;
rightKerningGroup = H_ss01;
},
{
color = 5;
glyphname = Hbar.ss01;
lastChange = "2016-08-02 20:06:28 +0000";
layers = (
{
background = {
paths = (
{
closed = 1;
nodes = (
"171 366 OFFCURVE",
"353 370 OFFCURVE",
"423 370 CURVE SMOOTH",
"481 370 OFFCURVE",
"684 370 OFFCURVE",
"768 370 CURVE SMOOTH",
"838 370 OFFCURVE",
"853 399 OFFCURVE",
"853 440 CURVE SMOOTH",
"853 468 OFFCURVE",
"837 491 OFFCURVE",
"792 491 CURVE SMOOTH",
"749 491 OFFCURVE",
"582 488 OFFCURVE",
"441 486 CURVE SMOOTH",
"303 485 OFFCURVE",
"171 484 OFFCURVE",
"145 484 CURVE SMOOTH",
"80 484 OFFCURVE",
"61 455 OFFCURVE",
"61 411 CURVE SMOOTH",
"61 374 OFFCURVE",
"85 363 OFFCURVE",
"118 364 CURVE SMOOTH"
);
},
{
closed = 1;
nodes = (
"237 848 OFFCURVE",
"209 829 OFFCURVE",
"205 778 CURVE SMOOTH",
"201 715 OFFCURVE",
"183 576 OFFCURVE",
"167 486 CURVE SMOOTH",
"160 446 OFFCURVE",
"152 403 OFFCURVE",
"144 355 CURVE SMOOTH",
"123 228 OFFCURVE",
"102 105 OFFCURVE",
"102 55 CURVE SMOOTH",
"102 19 OFFCURVE",
"120 -5 OFFCURVE",
"171 -5 CURVE SMOOTH",
"215 -5 OFFCURVE",
"242 14 OFFCURVE",
"246 65 CURVE SMOOTH",
"251 128 OFFCURVE",
"269 267 OFFCURVE",
"284 357 CURVE SMOOTH",
"306 488 LINE SMOOTH",
"327 615 OFFCURVE",
"349 738 OFFCURVE",
"349 788 CURVE SMOOTH",
"349 824 OFFCURVE",
"332 848 OFFCURVE",
"286 848 CURVE SMOOTH"
);
},
{
closed = 1;
nodes = (
"694 848 OFFCURVE",
"666 829 OFFCURVE",
"662 778 CURVE SMOOTH",
"657 715 OFFCURVE",
"640 576 OFFCURVE",
"624 486 CURVE SMOOTH",
"617 446 OFFCURVE",
"609 403 OFFCURVE",
"601 355 CURVE SMOOTH",
"580 228 OFFCURVE",
"559 105 OFFCURVE",
"559 55 CURVE SMOOTH",
"559 19 OFFCURVE",
"577 -5 OFFCURVE",
"628 -5 CURVE SMOOTH",
"672 -5 OFFCURVE",
"699 14 OFFCURVE",
"703 65 CURVE SMOOTH",
"708 128 OFFCURVE",
"726 267 OFFCURVE",
"741 357 CURVE SMOOTH",
"763 488 LINE SMOOTH",
"784 615 OFFCURVE",
"806 738 OFFCURVE",
"806 788 CURVE SMOOTH",
"806 824 OFFCURVE",
"789 848 OFFCURVE",
"743 848 CURVE SMOOTH"
);
}
);
};
layerId = "ECEFE970-1BBB-4E0A-A452-CEB55884B4A3";
paths = (
{
closed = 1;
nodes = (
"667 -5 OFFCURVE",
"694 14 OFFCURVE",
"698 65 CURVE SMOOTH",
"703 128 OFFCURVE",
"721 267 OFFCURVE",
"736 357 CURVE SMOOTH",
"758 488 LINE SMOOTH",
"779 615 OFFCURVE",
"801 738 OFFCURVE",
"801 788 CURVE SMOOTH",
"801 824 OFFCURVE",
"784 848 OFFCURVE",
"738 848 CURVE SMOOTH",
"689 848 OFFCURVE",
"661 829 OFFCURVE",
"657 778 CURVE SMOOTH",
"652 715 OFFCURVE",
"635 576 OFFCURVE",
"619 486 CURVE SMOOTH",
"612 446 OFFCURVE",
"604 403 OFFCURVE",
"596 355 CURVE SMOOTH",
"575 228 OFFCURVE",
"554 105 OFFCURVE",
"554 55 CURVE SMOOTH",
"554 19 OFFCURVE",
"572 -5 OFFCURVE",
"623 -5 CURVE SMOOTH"
);
},
{
closed = 1;
nodes = (
"210 -5 OFFCURVE",
"237 14 OFFCURVE",
"241 65 CURVE SMOOTH",
"246 128 OFFCURVE",
"264 267 OFFCURVE",
"279 357 CURVE SMOOTH",
"301 488 LINE SMOOTH",
"322 615 OFFCURVE",
"344 738 OFFCURVE",
"344 788 CURVE SMOOTH",
"344 824 OFFCURVE",
"327 848 OFFCURVE",
"281 848 CURVE SMOOTH",
"232 848 OFFCURVE",
"204 829 OFFCURVE",
"200 778 CURVE SMOOTH",
"196 715 OFFCURVE",
"178 576 OFFCURVE",
"162 486 CURVE SMOOTH",
"155 446 OFFCURVE",
"147 403 OFFCURVE",
"139 355 CURVE SMOOTH",
"118 228 OFFCURVE",
"97 105 OFFCURVE",
"97 55 CURVE SMOOTH",
"97 19 OFFCURVE",
"115 -5 OFFCURVE",
"166 -5 CURVE SMOOTH"
);
},
{
closed = 1;
nodes = (
"166 366 OFFCURVE",
"348 370 OFFCURVE",
"418 370 CURVE SMOOTH",
"476 370 OFFCURVE",
"679 370 OFFCURVE",
"763 370 CURVE SMOOTH",
"833 370 OFFCURVE",
"848 399 OFFCURVE",
"848 440 CURVE SMOOTH",
"848 468 OFFCURVE",
"832 491 OFFCURVE",
"787 491 CURVE SMOOTH",
"744 491 OFFCURVE",
"577 488 OFFCURVE",
"436 486 CURVE SMOOTH",
"298 485 OFFCURVE",
"166 484 OFFCURVE",
"140 484 CURVE SMOOTH",
"75 484 OFFCURVE",
"56 455 OFFCURVE",
"56 411 CURVE SMOOTH",
"56 374 OFFCURVE",
"80 363 OFFCURVE",
"113 364 CURVE SMOOTH"
);
},
{
closed = 1;
nodes = (
"198 596 OFFCURVE",
"380 599 OFFCURVE",
"450 599 CURVE SMOOTH",
"508 599 OFFCURVE",
"711 599 OFFCURVE",
"795 599 CURVE SMOOTH",
"865 599 OFFCURVE",
"880 624 OFFCURVE",
"880 659 CURVE SMOOTH",
"880 683 OFFCURVE",
"864 703 OFFCURVE",
"819 703 CURVE SMOOTH",
"776 703 OFFCURVE",
"609 700 OFFCURVE",
"468 699 CURVE SMOOTH",
"330 698 OFFCURVE",
"198 697 OFFCURVE",
"172 697 CURVE SMOOTH",
"107 697 OFFCURVE",
"88 672 OFFCURVE",
"88 634 CURVE SMOOTH",
"88 602 OFFCURVE",
"112 593 OFFCURVE",
"145 594 CURVE SMOOTH"
);
}
);
width = 856;
}
);
leftKerningGroup = H_ss01;
leftMetricsKey = "=H.ss01+5";
rightKerningGroup = H_ss01;
},
{
color = 5;
glyphname = I.ss01;
lastChange = "2016-08-02 21:28:16 +0000";
layers = (
{
anchors = (
{
name = bottom;
position = "{145, 0}";
},
{
name = ogonek;
position = "{198, 10}";
},
{
name = top;
position = "{262, 840}";
},
{
name = topleft;
position = "{194, 840}";
}
);
background = {
paths = (
{
closed = 1;
nodes = (
"215 848 OFFCURVE",
"187 829 OFFCURVE",
"183 778 CURVE SMOOTH",
"178 715 OFFCURVE",
"161 576 OFFCURVE",
"145 486 CURVE SMOOTH",
"138 446 OFFCURVE",
"130 403 OFFCURVE",
"122 355 CURVE SMOOTH",
"101 228 OFFCURVE",
"78 105 OFFCURVE",
"78 55 CURVE SMOOTH",
"78 19 OFFCURVE",
"98 -5 OFFCURVE",
"149 -5 CURVE SMOOTH",
"199 -5 OFFCURVE",
"226 14 OFFCURVE",
"230 65 CURVE SMOOTH",
"235 128 OFFCURVE",
"253 267 OFFCURVE",
"268 357 CURVE SMOOTH",
"290 488 LINE SMOOTH",
"311 615 OFFCURVE",
"335 738 OFFCURVE",
"335 788 CURVE SMOOTH",
"335 824 OFFCURVE",
"316 848 OFFCURVE",
"267 848 CURVE SMOOTH"
);
}
);
};
layerId = "ECEFE970-1BBB-4E0A-A452-CEB55884B4A3";
paths = (
{
closed = 1;
nodes = (
"191 -5 OFFCURVE",
"218 14 OFFCURVE",
"222 65 CURVE SMOOTH",
"227 128 OFFCURVE",
"245 267 OFFCURVE",
"260 357 CURVE SMOOTH",
"282 488 LINE SMOOTH",
"303 615 OFFCURVE",
"325 738 OFFCURVE",
"325 788 CURVE SMOOTH",
"325 824 OFFCURVE",
"308 848 OFFCURVE",
"262 848 CURVE SMOOTH",
"213 848 OFFCURVE",
"185 829 OFFCURVE",
"181 778 CURVE SMOOTH",
"176 715 OFFCURVE",
"159 576 OFFCURVE",
"143 486 CURVE SMOOTH",
"136 446 OFFCURVE",
"128 403 OFFCURVE",
"120 355 CURVE SMOOTH",
"99 228 OFFCURVE",
"78 105 OFFCURVE",
"78 55 CURVE SMOOTH",
"78 19 OFFCURVE",
"96 -5 OFFCURVE",
"147 -5 CURVE SMOOTH"
);
}
);
width = 357;
}
);
leftKerningGroup = I_ss01;
note = I;
rightKerningGroup = I_ss01;
},
{
color = 5;
glyphname = J.ss01;
lastChange = "2016-08-03 20:41:57 +0000";
layers = (
{
anchors = (
{
name = bottom;
position = "{310, 0}";
},
{
name = top;
position = "{447, 840}";
}
);
background = {
paths = (
{
closed = 1;
nodes = (
"488 -8 OFFCURVE",
"586 107 OFFCURVE",
"630 391 CURVE SMOOTH",
"650 521 OFFCURVE",
"661 593 OFFCURVE",
"684 765 CURVE",
"533 754 LINE",
"513 601 OFFCURVE",
"502 525 OFFCURVE",
"467 280 CURVE SMOOTH",
"445 127 OFFCURVE",
"382 98 OFFCURVE",
"322 96 CURVE SMOOTH",
"259 94 OFFCURVE",
"220 126 OFFCURVE",
"185 181 CURVE SMOOTH",
"164 215 OFFCURVE",
"149 224 OFFCURVE",
"132 224 CURVE SMOOTH",
"81 224 OFFCURVE",
"65 158 OFFCURVE",
"91 111 CURVE SMOOTH",
"128 43 OFFCURVE",
"218 -8 OFFCURVE",
"315 -8 CURVE SMOOTH"
);
},
{
closed = 1;
nodes = (
"147 438 OFFCURVE",
"253 493 OFFCURVE",
"221 548 CURVE SMOOTH",
"213 562 OFFCURVE",
"201 585 OFFCURVE",
"201 613 CURVE SMOOTH",
"201 696 OFFCURVE",
"289 724 OFFCURVE",
"422 724 CURVE SMOOTH",
"501 724 OFFCURVE",
"553 717 OFFCURVE",
"657 704 CURVE SMOOTH",
"711 697 OFFCURVE",
"729 723 OFFCURVE",
"729 767 CURVE SMOOTH",
"729 791 OFFCURVE",
"716 812 OFFCURVE",
"672 823 CURVE SMOOTH",
"608 839 OFFCURVE",
"530 847 OFFCURVE",
"462 847 CURVE SMOOTH",
"247 847 OFFCURVE",
"82 781 OFFCURVE",
"82 607 CURVE SMOOTH",
"82 566 OFFCURVE",
"93 528 OFFCURVE",
"110 500 CURVE SMOOTH"
);
}
);
};
layerId = "ECEFE970-1BBB-4E0A-A452-CEB55884B4A3";
paths = (
{
closed = 1;
nodes = (
"483 -8 OFFCURVE",
"581 107 OFFCURVE",
"627 411 CURVE SMOOTH",
"644 521 OFFCURVE",
"656 593 OFFCURVE",
"676 765 CURVE",
"532 754 LINE",
"514 601 OFFCURVE",
"504 525 OFFCURVE",
"476 330 CURVE SMOOTH",
"447 127 OFFCURVE",
"379 98 OFFCURVE",
"321 96 CURVE SMOOTH",
"256 94 OFFCURVE",
"215 126 OFFCURVE",
"180 181 CURVE SMOOTH",
"159 215 OFFCURVE",
"144 224 OFFCURVE",
"127 224 CURVE SMOOTH",
"76 224 OFFCURVE",
"60 158 OFFCURVE",
"86 111 CURVE SMOOTH",
"123 43 OFFCURVE",
"213 -8 OFFCURVE",
"310 -8 CURVE SMOOTH"
);
},
{
closed = 1;
nodes = (
"142 438 OFFCURVE",
"248 493 OFFCURVE",
"216 548 CURVE SMOOTH",
"208 562 OFFCURVE",
"196 585 OFFCURVE",
"196 613 CURVE SMOOTH",
"196 696 OFFCURVE",
"284 726 OFFCURVE",
"417 726 CURVE SMOOTH",
"496 726 OFFCURVE",
"548 719 OFFCURVE",
"652 706 CURVE SMOOTH",
"706 699 OFFCURVE",
"724 723 OFFCURVE",
"724 767 CURVE SMOOTH",
"724 791 OFFCURVE",
"711 812 OFFCURVE",
"667 823 CURVE SMOOTH",
"603 839 OFFCURVE",
"525 847 OFFCURVE",
"457 847 CURVE SMOOTH",
"242 847 OFFCURVE",
"77 781 OFFCURVE",
"77 607 CURVE SMOOTH",
"77 566 OFFCURVE",
"88 528 OFFCURVE",
"105 500 CURVE SMOOTH"
);
}
);
width = 716;
}
);
leftKerningGroup = J_ss01;
note = J;
rightKerningGroup = J;
},
{
color = 5;
glyphname = K.ss01;
lastChange = "2016-08-03 20:42:01 +0000";
layers = (
{
anchors = (
{
name = bottom;
position = "{365, 0}";
},
{
name = top;
position = "{489, 840}";
}
);
background = {
paths = (
{
closed = 1;
nodes = (
"1809 51 OFFCURVE",
"1790 135 OFFCURVE",
"1733 122 CURVE SMOOTH",
"1715 118 OFFCURVE",
"1698 114 OFFCURVE",
"1682 114 CURVE SMOOTH",
"1642 114 OFFCURVE",
"1610 147 OFFCURVE",
"1565 235 CURVE SMOOTH",
"1509 344 OFFCURVE",
"1482 390 OFFCURVE",
"1316 390 CURVE",
"1277 336 LINE",
"1346 336 OFFCURVE",
"1363 314 OFFCURVE",
"1431 174 CURVE SMOOTH",
"1486 61 OFFCURVE",
"1541 -5 OFFCURVE",
"1647 -5 CURVE SMOOTH",
"1685 -5 OFFCURVE",
"1723 6 OFFCURVE",
"1746 18 CURVE SMOOTH"
);
},
{
closed = 1;
nodes = (
"1784 814 OFFCURVE",
"1761 842 OFFCURVE",
"1718 842 CURVE SMOOTH",
"1669 842 OFFCURVE",
"1640 821 OFFCURVE",
"1628 784 CURVE SMOOTH",
"1565 591 OFFCURVE",
"1471 441 OFFCURVE",
"1280 441 CURVE SMOOTH",
"1234 441 OFFCURVE",
"1181 441 OFFCURVE",
"1122 441 CURVE SMOOTH",
"1097 441 OFFCURVE",
"1075 420 OFFCURVE",
"1075 384 CURVE SMOOTH",
"1075 354 OFFCURVE",
"1093 335 OFFCURVE",
"1124 335 CURVE SMOOTH",
"1297 336 LINE",
"1351 367 LINE",
"1501 380 OFFCURVE",
"1687 493 OFFCURVE",
"1771 771 CURVE SMOOTH"
);
},
{
closed = 1;
nodes = (
"1226 848 OFFCURVE",
"1198 829 OFFCURVE",
"1194 778 CURVE SMOOTH",
"1189 715 OFFCURVE",
"1172 576 OFFCURVE",
"1156 486 CURVE SMOOTH",
"1149 446 OFFCURVE",
"1141 403 OFFCURVE",
"1133 355 CURVE SMOOTH",
"1112 228 OFFCURVE",
"1089 105 OFFCURVE",
"1089 55 CURVE SMOOTH",
"1089 19 OFFCURVE",
"1109 -5 OFFCURVE",
"1160 -5 CURVE SMOOTH",
"1210 -5 OFFCURVE",
"1237 14 OFFCURVE",
"1241 65 CURVE SMOOTH",
"1246 128 OFFCURVE",
"1264 267 OFFCURVE",
"1279 357 CURVE SMOOTH",
"1301 488 LINE SMOOTH",
"1322 615 OFFCURVE",
"1346 738 OFFCURVE",
"1346 788 CURVE SMOOTH",
"1346 824 OFFCURVE",
"1327 848 OFFCURVE",
"1278 848 CURVE SMOOTH"
);
},
{
closed = 1;
nodes = (
"741 -5 OFFCURVE",
"801 49 OFFCURVE",
"856 116 CURVE",
"820 209 LINE",
"764 142 OFFCURVE",
"730 114 OFFCURVE",
"686 114 CURVE SMOOTH",
"638 114 OFFCURVE",
"606 147 OFFCURVE",
"565 235 CURVE SMOOTH",
"513 346 OFFCURVE",
"482 390 OFFCURVE",
"316 390 CURVE",
"277 336 LINE",
"349 336 OFFCURVE",
"370 315 OFFCURVE",
"434 174 CURVE SMOOTH",
"485 61 OFFCURVE",
"538 -5 OFFCURVE",
"643 -5 CURVE SMOOTH"
);
},
{
closed = 1;
nodes = (
"781 814 OFFCURVE",
"758 842 OFFCURVE",
"713 842 CURVE SMOOTH",
"669 842 OFFCURVE",
"640 821 OFFCURVE",
"628 784 CURVE SMOOTH",
"565 591 OFFCURVE",
"471 441 OFFCURVE",
"280 441 CURVE SMOOTH",
"234 441 OFFCURVE",
"201 441 OFFCURVE",
"142 441 CURVE SMOOTH",
"117 441 OFFCURVE",
"95 420 OFFCURVE",
"95 384 CURVE SMOOTH",
"95 354 OFFCURVE",
"113 335 OFFCURVE",
"144 335 CURVE SMOOTH",
"297 336 LINE",
"351 367 LINE",
"501 380 OFFCURVE",
"684 493 OFFCURVE",
"768 771 CURVE SMOOTH"
);
}
);
};
layerId = "ECEFE970-1BBB-4E0A-A452-CEB55884B4A3";
paths = (
{
closed = 1;
nodes = (
"292 336 LINE",
"346 367 LINE",
"496 380 OFFCURVE",
"679 493 OFFCURVE",
"763 771 CURVE SMOOTH",
"776 814 OFFCURVE",
"751 842 OFFCURVE",
"708 842 CURVE SMOOTH",
"659 842 OFFCURVE",
"635 821 OFFCURVE",
"623 784 CURVE SMOOTH",
"560 591 OFFCURVE",
"466 441 OFFCURVE",
"275 441 CURVE SMOOTH",
"229 441 OFFCURVE",
"176 441 OFFCURVE",
"117 441 CURVE SMOOTH",
"92 441 OFFCURVE",
"70 420 OFFCURVE",
"70 384 CURVE SMOOTH",
"70 354 OFFCURVE",
"88 335 OFFCURVE",
"119 335 CURVE SMOOTH"
);
},
{
closed = 1;
nodes = (
"198 -5 OFFCURVE",
"225 14 OFFCURVE",
"229 65 CURVE SMOOTH",
"234 128 OFFCURVE",
"252 267 OFFCURVE",
"267 357 CURVE SMOOTH",
"289 488 LINE SMOOTH",
"310 615 OFFCURVE",
"332 738 OFFCURVE",
"332 788 CURVE SMOOTH",
"332 824 OFFCURVE",
"315 848 OFFCURVE",
"269 848 CURVE SMOOTH",
"220 848 OFFCURVE",
"192 829 OFFCURVE",
"188 778 CURVE SMOOTH",
"183 715 OFFCURVE",
"166 576 OFFCURVE",
"150 486 CURVE SMOOTH",
"143 446 OFFCURVE",
"135 403 OFFCURVE",
"127 355 CURVE SMOOTH",
"106 228 OFFCURVE",
"85 105 OFFCURVE",
"85 55 CURVE SMOOTH",
"85 19 OFFCURVE",
"103 -5 OFFCURVE",
"154 -5 CURVE SMOOTH"
);
},
{
closed = 1;
nodes = (
"676 -5 OFFCURVE",
"718 6 OFFCURVE",
"741 18 CURVE SMOOTH",
"804 52 OFFCURVE",
"785 136 OFFCURVE",
"728 122 CURVE SMOOTH",
"710 118 OFFCURVE",
"693 114 OFFCURVE",
"677 114 CURVE SMOOTH",
"637 114 OFFCURVE",
"602 145 OFFCURVE",
"560 235 CURVE SMOOTH",
"508 346 OFFCURVE",
"477 390 OFFCURVE",
"311 390 CURVE",
"272 336 LINE",
"344 336 OFFCURVE",
"365 316 OFFCURVE",
"429 174 CURVE SMOOTH",
"480 61 OFFCURVE",
"533 -5 OFFCURVE",
"638 -5 CURVE SMOOTH"
);
}
);
width = 779;
}
);
leftKerningGroup = H_ss01;
note = K;
rightKerningGroup = K_ss01;
},
{
color = 5;
glyphname = L.ss01;
lastChange = "2016-08-03 20:42:07 +0000";
layers = (
{
anchors = (
{
name = bottom;
position = "{344, 0}";
},
{
name = center;
position = "{489, 420}";
},
{
name = top;
position = "{259, 840}";
},
{
name = topright;
position = "{491, 840}";
}
);
background = {
paths = (
{
closed = 1;
nodes = (
"393 124 OFFCURVE",
"309 122 OFFCURVE",
"236 118 CURVE",
"245 187 OFFCURVE",
"259 285 OFFCURVE",
"271 357 CURVE SMOOTH",
"292 488 LINE SMOOTH",
"312 615 OFFCURVE",
"336 738 OFFCURVE",
"336 788 CURVE SMOOTH",
"336 824 OFFCURVE",
"317 848 OFFCURVE",
"267 848 CURVE SMOOTH",
"215 848 OFFCURVE",
"188 829 OFFCURVE",
"183 778 CURVE SMOOTH",
"172 657 OFFCURVE",
"145 511 OFFCURVE",
"122 355 CURVE SMOOTH",
"106 248 OFFCURVE",
"83 91 OFFCURVE",
"81 41 CURVE SMOOTH",
"80 9 OFFCURVE",
"103 -13 OFFCURVE",
"147 -11 CURVE SMOOTH",
"282 -5 OFFCURVE",
"368 -2 OFFCURVE",
"548 -2 CURVE SMOOTH",
"593 -2 OFFCURVE",
"616 28 OFFCURVE",
"616 68 CURVE SMOOTH",
"616 112 OFFCURVE",
"593 124 OFFCURVE",
"561 124 CURVE SMOOTH"
);
}
);
};
layerId = "ECEFE970-1BBB-4E0A-A452-CEB55884B4A3";
paths = (
{
closed = 1;
nodes = (
"277 -5 OFFCURVE",
"363 -2 OFFCURVE",
"543 -2 CURVE SMOOTH",
"588 -2 OFFCURVE",
"611 28 OFFCURVE",
"611 68 CURVE SMOOTH",
"611 110 OFFCURVE",
"588 122 OFFCURVE",
"556 122 CURVE SMOOTH",
"388 122 OFFCURVE",
"304 120 OFFCURVE",
"224 116 CURVE",
"233 185 OFFCURVE",
"248 285 OFFCURVE",
"259 357 CURVE SMOOTH",
"279 488 LINE SMOOTH",
"298 615 OFFCURVE",
"322 738 OFFCURVE",
"322 788 CURVE SMOOTH",
"322 824 OFFCURVE",
"305 848 OFFCURVE",
"259 848 CURVE SMOOTH",
"210 848 OFFCURVE",
"183 829 OFFCURVE",
"178 778 CURVE SMOOTH",
"167 657 OFFCURVE",
"140 511 OFFCURVE",
"117 355 CURVE SMOOTH",
"101 248 OFFCURVE",
"78 91 OFFCURVE",
"76 41 CURVE SMOOTH",
"75 9 OFFCURVE",
"98 -13 OFFCURVE",
"142 -11 CURVE SMOOTH"
);
}
);
width = 625;
}
);
leftKerningGroup = I_ss01;
leftMetricsKey = I.ss01;
note = L;
rightKerningGroup = L_ss01;
},
{
color = 5;
glyphname = Lslash.ss01;
lastChange = "2016-08-02 19:36:42 +0000";
layers = (
{
background = {
paths = (
{
closed = 1;
nodes = (
"282 -5 OFFCURVE",
"368 -2 OFFCURVE",
"548 -2 CURVE SMOOTH",
"593 -2 OFFCURVE",
"616 28 OFFCURVE",
"616 68 CURVE SMOOTH",
"616 110 OFFCURVE",
"593 122 OFFCURVE",
"561 122 CURVE SMOOTH",
"393 122 OFFCURVE",
"309 120 OFFCURVE",
"229 116 CURVE",
"238 185 OFFCURVE",
"253 285 OFFCURVE",
"264 357 CURVE SMOOTH",
"284 488 LINE SMOOTH",
"303 615 OFFCURVE",
"327 738 OFFCURVE",
"327 788 CURVE SMOOTH",
"327 824 OFFCURVE",
"310 848 OFFCURVE",
"264 848 CURVE SMOOTH",
"215 848 OFFCURVE",
"188 829 OFFCURVE",
"183 778 CURVE SMOOTH",
"172 657 OFFCURVE",
"145 511 OFFCURVE",
"122 355 CURVE SMOOTH",
"106 248 OFFCURVE",
"83 91 OFFCURVE",
"81 41 CURVE SMOOTH",
"80 9 OFFCURVE",
"103 -13 OFFCURVE",
"147 -11 CURVE SMOOTH"
);
},
{
closed = 1;
nodes = (
"236 422 OFFCURVE",
"285 453 OFFCURVE",
"413 529 CURVE SMOOTH",
"460 557 OFFCURVE",
"484 595 OFFCURVE",
"459 640 CURVE SMOOTH",
"449 658 OFFCURVE",
"427 661 OFFCURVE",
"401 647 CURVE SMOOTH",
"388 640 OFFCURVE",
"93 461 OFFCURVE",
"66 444 CURVE SMOOTH",
"24 418 OFFCURVE",
"71 327 OFFCURVE",
"125 358 CURVE SMOOTH"
);
}
);
};
layerId = "ECEFE970-1BBB-4E0A-A452-CEB55884B4A3";
paths = (
{
closed = 1;
nodes = (
"277 -5 OFFCURVE",
"363 -2 OFFCURVE",
"543 -2 CURVE SMOOTH",
"588 -2 OFFCURVE",
"611 28 OFFCURVE",
"611 68 CURVE SMOOTH",
"611 110 OFFCURVE",
"588 122 OFFCURVE",
"556 122 CURVE SMOOTH",
"388 122 OFFCURVE",
"304 120 OFFCURVE",
"224 116 CURVE",
"233 185 OFFCURVE",
"248 285 OFFCURVE",
"259 357 CURVE SMOOTH",
"279 488 LINE SMOOTH",
"298 615 OFFCURVE",
"322 738 OFFCURVE",
"322 788 CURVE SMOOTH",
"322 824 OFFCURVE",
"305 848 OFFCURVE",
"259 848 CURVE SMOOTH",
"210 848 OFFCURVE",
"183 829 OFFCURVE",
"178 778 CURVE SMOOTH",
"167 657 OFFCURVE",
"140 511 OFFCURVE",
"117 355 CURVE SMOOTH",
"101 248 OFFCURVE",
"78 91 OFFCURVE",
"76 41 CURVE SMOOTH",
"75 9 OFFCURVE",
"98 -13 OFFCURVE",
"142 -11 CURVE SMOOTH"
);
},
{
closed = 1;
nodes = (
"208 402 OFFCURVE",
"323 470 OFFCURVE",
"451 546 CURVE SMOOTH",
"498 574 OFFCURVE",
"522 612 OFFCURVE",
"497 657 CURVE SMOOTH",
"487 675 OFFCURVE",
"465 678 OFFCURVE",
"439 664 CURVE SMOOTH",
"426 657 OFFCURVE",
"65 441 OFFCURVE",
"38 424 CURVE SMOOTH",
"-4 398 OFFCURVE",
"43 307 OFFCURVE",
"97 338 CURVE SMOOTH"
);
}
);
width = 625;
}
);
leftKerningGroup = I_ss01;
widthMetricsKey = L.ss01;
rightKerningGroup = L_ss01;
rightMetricsKey = L.ss01;
},
{
color = 5;
glyphname = M.ss01;
lastChange = "2016-08-02 20:07:44 +0000";
layers = (
{
anchors = (
{
name = bottom;
position = "{547, 0}";
},
{
name = top;
position = "{651, 840}";
}
);
background = {
paths = (
{
closed = 1;
nodes = (
"1944 848 OFFCURVE",
"1852 782 OFFCURVE",
"1782 590 CURVE",
"1789 628 OFFCURVE",
"1791 653 OFFCURVE",
"1791 672 CURVE SMOOTH",
"1791 785 OFFCURVE",
"1738 848 OFFCURVE",
"1651 848 CURVE SMOOTH",
"1548 848 OFFCURVE",
"1457 790 OFFCURVE",
"1379 590 CURVE",
"1392 666 OFFCURVE",
"1406 744 OFFCURVE",
"1410 782 CURVE SMOOTH",
"1415 829 OFFCURVE",
"1404 852 OFFCURVE",
"1351 852 CURVE SMOOTH",
"1316 852 OFFCURVE",
"1280 839 OFFCURVE",
"1273 794 CURVE SMOOTH",
"1242 592 OFFCURVE",
"1184 210 OFFCURVE",
"1174 84 CURVE SMOOTH",
"1169 20 OFFCURVE",
"1199 -5 OFFCURVE",
"1247 -5 CURVE SMOOTH",
"1298 -5 OFFCURVE",
"1317 25 OFFCURVE",
"1325 86 CURVE SMOOTH",
"1392 594 OFFCURVE",
"1525 721 OFFCURVE",
"1609 721 CURVE SMOOTH",
"1645 721 OFFCURVE",
"1664 698 OFFCURVE",
"1664 647 CURVE SMOOTH",
"1664 587 OFFCURVE",
"1638 456 OFFCURVE",
"1615 335 CURVE SMOOTH",
"1603 272 OFFCURVE",
"1576 135 OFFCURVE",
"1576 81 CURVE SMOOTH",
"1576 20 OFFCURVE",
"1598 -5 OFFCURVE",
"1645 -5 CURVE SMOOTH",
"1699 -5 OFFCURVE",
"1719 25 OFFCURVE",
"1728 96 CURVE SMOOTH",
"1787 565 OFFCURVE",
"1926 721 OFFCURVE",
"2010 721 CURVE SMOOTH",
"2041 721 OFFCURVE",
"2063 698 OFFCURVE",
"2063 651 CURVE SMOOTH",
"2063 619 OFFCURVE",
"2053 549 OFFCURVE",
"2042 486 CURVE SMOOTH",
"2018 353 LINE SMOOTH",
"1995 226 OFFCURVE",
"1974 105 OFFCURVE",
"1974 55 CURVE SMOOTH",
"1974 19 OFFCURVE",
"1994 -5 OFFCURVE",
"2045 -5 CURVE SMOOTH",
"2095 -5 OFFCURVE",
"2122 14 OFFCURVE",
"2126 65 CURVE SMOOTH",
"2131 128 OFFCURVE",
"2149 267 OFFCURVE",
"2165 357 CURVE SMOOTH",
"2187 480 LINE SMOOTH",
"2200 551 OFFCURVE",
"2213 625 OFFCURVE",
"2213 677 CURVE SMOOTH",
"2213 783 OFFCURVE",
"2152 848 OFFCURVE",
"2063 848 CURVE SMOOTH"
);
},
{
closed = 1;
nodes = (
"1226 209 LINE",
"1170 142 OFFCURVE",
"1132 114 OFFCURVE",
"1087 114 CURVE SMOOTH",
"1041 114 OFFCURVE",
"1013 141 OFFCURVE",
"1013 198 CURVE SMOOTH",
"1013 229 OFFCURVE",
"1017 254 OFFCURVE",
"1023 284 CURVE SMOOTH",
"1084 570 LINE SMOOTH",
"1092 609 OFFCURVE",
"1097 645 OFFCURVE",
"1097 677 CURVE SMOOTH",
"1097 783 OFFCURVE",
"1047 848 OFFCURVE",
"952 848 CURVE SMOOTH",
"842 848 OFFCURVE",
"751 782 OFFCURVE",
"681 590 CURVE",
"688 628 OFFCURVE",
"690 653 OFFCURVE",
"690 672 CURVE SMOOTH",
"690 785 OFFCURVE",
"636 848 OFFCURVE",
"550 848 CURVE SMOOTH",
"449 848 OFFCURVE",
"348 790 OFFCURVE",
"266 556 CURVE",
"276 614 OFFCURVE",
"286 666 OFFCURVE",
"286 711 CURVE SMOOTH",
"286 801 OFFCURVE",
"244 848 OFFCURVE",
"172 848 CURVE SMOOTH",
"93 848 OFFCURVE",
"11 797 OFFCURVE",
"-53 708 CURVE SMOOTH",
"-74 679 OFFCURVE",
"-81 659 OFFCURVE",
"-81 638 CURVE SMOOTH",
"-81 603 OFFCURVE",
"-45 573 OFFCURVE",
"-15 613 CURVE SMOOTH",
"48 697 OFFCURVE",
"98 724 OFFCURVE",
"128 724 CURVE SMOOTH",
"148 724 OFFCURVE",
"161 713 OFFCURVE",
"161 679 CURVE SMOOTH",
"161 653 OFFCURVE",
"159 615 OFFCURVE",
"152 559 CURVE SMOOTH",
"124 333 OFFCURVE",
"83 159 OFFCURVE",
"83 84 CURVE SMOOTH",
"83 20 OFFCURVE",
"106 -5 OFFCURVE",
"152 -5 CURVE SMOOTH",
"207 -5 OFFCURVE",
"217 25 OFFCURVE",
"225 86 CURVE SMOOTH",
"293 604 OFFCURVE",
"426 721 OFFCURVE",
"510 721 CURVE SMOOTH",
"549 721 OFFCURVE",
"568 698 OFFCURVE",
"568 647 CURVE SMOOTH",
"568 587 OFFCURVE",
"545 456 OFFCURVE",
"522 335 CURVE SMOOTH",
"510 272 OFFCURVE",
"483 135 OFFCURVE",
"483 81 CURVE SMOOTH",
"483 20 OFFCURVE",
"505 -5 OFFCURVE",
"548 -5 CURVE SMOOTH",
"599 -5 OFFCURVE",
"620 25 OFFCURVE",
"629 96 CURVE SMOOTH",
"690 575 OFFCURVE",
"816 721 OFFCURVE",
"901 721 CURVE SMOOTH",
"934 721 OFFCURVE",
"953 698 OFFCURVE",
"953 651 CURVE SMOOTH",
"953 607 OFFCURVE",
"943 572 OFFCURVE",
"935 535 CURVE SMOOTH",
"895 352 LINE SMOOTH",
"878 273 OFFCURVE",
"871 221 OFFCURVE",
"871 181 CURVE SMOOTH",
"871 69 OFFCURVE",
"937 -5 OFFCURVE",
"1052 -5 CURVE SMOOTH",
"1126 -5 OFFCURVE",
"1192 31 OFFCURVE",
"1262 116 CURVE"
);
}
);
};
layerId = "ECEFE970-1BBB-4E0A-A452-CEB55884B4A3";
paths = (
{
closed = 1;
nodes = (
"194 -5 OFFCURVE",
"213 25 OFFCURVE",
"218 66 CURVE SMOOTH",
"289 604 OFFCURVE",
"422 721 OFFCURVE",
"505 721 CURVE SMOOTH",
"545 721 OFFCURVE",
"564 698 OFFCURVE",
"564 647 CURVE SMOOTH",
"564 587 OFFCURVE",
"541 456 OFFCURVE",
"518 335 CURVE SMOOTH",
"506 272 OFFCURVE",
"479 135 OFFCURVE",
"479 61 CURVE SMOOTH",
"479 10 OFFCURVE",
"501 -5 OFFCURVE",
"544 -5 CURVE SMOOTH",
"598 -5 OFFCURVE",
"615 15 OFFCURVE",
"623 76 CURVE SMOOTH",
"686 575 OFFCURVE",
"812 721 OFFCURVE",
"897 721 CURVE SMOOTH",
"928 721 OFFCURVE",
"949 699 OFFCURVE",
"949 652 CURVE SMOOTH",
"949 620 OFFCURVE",
"939 549 OFFCURVE",
"928 486 CURVE SMOOTH",
"904 353 LINE SMOOTH",
"881 226 OFFCURVE",
"860 105 OFFCURVE",
"860 55 CURVE SMOOTH",
"860 19 OFFCURVE",
"880 -5 OFFCURVE",
"931 -5 CURVE SMOOTH",
"981 -5 OFFCURVE",
"1001 14 OFFCURVE",
"1005 65 CURVE SMOOTH",
"1010 128 OFFCURVE",
"1029 267 OFFCURVE",
"1045 357 CURVE SMOOTH",
"1067 480 LINE SMOOTH",
"1080 551 OFFCURVE",
"1093 625 OFFCURVE",
"1093 677 CURVE SMOOTH",
"1093 783 OFFCURVE",
"1043 848 OFFCURVE",
"948 848 CURVE SMOOTH",
"838 848 OFFCURVE",
"747 782 OFFCURVE",
"677 590 CURVE",
"684 628 OFFCURVE",
"686 653 OFFCURVE",
"686 672 CURVE SMOOTH",
"686 785 OFFCURVE",
"632 848 OFFCURVE",
"546 848 CURVE SMOOTH",
"445 848 OFFCURVE",
"353 790 OFFCURVE",
"275 590 CURVE",
"292 666 OFFCURVE",
"306 744 OFFCURVE",
"310 782 CURVE SMOOTH",
"315 829 OFFCURVE",
"314 852 OFFCURVE",
"257 852 CURVE SMOOTH",
"216 852 OFFCURVE",
"186 839 OFFCURVE",
"179 794 CURVE SMOOTH",
"148 592 OFFCURVE",
"90 210 OFFCURVE",
"78 64 CURVE SMOOTH",
"74 10 OFFCURVE",
"105 -5 OFFCURVE",
"143 -5 CURVE SMOOTH"
);
}
);
width = 1139;
}
);
leftKerningGroup = I_ss01;
leftMetricsKey = N.ss01;
note = M;
rightKerningGroup = I_ss01;
rightMetricsKey = N.ss01;
},
{
color = 5;
glyphname = N.ss01;
lastChange = "2016-08-02 19:36:42 +0000";
layers = (
{
anchors = (
{
name = bottom;
position = "{365, 0}";
},
{
name = top;
position = "{479, 840}";
}
);
background = {
paths = (
{
closed = 1;
nodes = (
"1437 848 OFFCURVE",
"1338 746 OFFCURVE",
"1271 590 CURVE",
"1284 666 OFFCURVE",
"1298 744 OFFCURVE",
"1302 782 CURVE SMOOTH",
"1307 829 OFFCURVE",
"1296 852 OFFCURVE",
"1243 852 CURVE SMOOTH",
"1208 852 OFFCURVE",
"1172 840 OFFCURVE",
"1165 794 CURVE SMOOTH",
"1134 592 OFFCURVE",
"1079 210 OFFCURVE",
"1069 84 CURVE SMOOTH",
"1064 20 OFFCURVE",
"1091 -5 OFFCURVE",
"1139 -5 CURVE SMOOTH",
"1187 -5 OFFCURVE",
"1209 25 OFFCURVE",
"1216 86 CURVE SMOOTH",
"1265 513 OFFCURVE",
"1413 721 OFFCURVE",
"1539 721 CURVE SMOOTH",
"1575 721 OFFCURVE",
"1598 700 OFFCURVE",
"1598 649 CURVE SMOOTH",
"1598 619 OFFCURVE",
"1588 549 OFFCURVE",
"1577 486 CURVE SMOOTH",
"1553 353 LINE SMOOTH",
"1530 226 OFFCURVE",
"1509 105 OFFCURVE",
"1509 55 CURVE SMOOTH",
"1509 19 OFFCURVE",
"1529 -5 OFFCURVE",
"1580 -5 CURVE SMOOTH",
"1630 -5 OFFCURVE",
"1657 14 OFFCURVE",
"1661 65 CURVE SMOOTH",
"1666 128 OFFCURVE",
"1684 267 OFFCURVE",
"1700 357 CURVE SMOOTH",
"1722 480 LINE SMOOTH",
"1735 551 OFFCURVE",
"1748 625 OFFCURVE",
"1748 677 CURVE SMOOTH",
"1748 776 OFFCURVE",
"1696 848 OFFCURVE",
"1577 848 CURVE SMOOTH"
);
},
{
closed = 1;
nodes = (
"503 848 OFFCURVE",
"412 782 OFFCURVE",
"342 590 CURVE",
"349 628 OFFCURVE",
"351 653 OFFCURVE",
"351 672 CURVE SMOOTH",
"351 785 OFFCURVE",
"297 848 OFFCURVE",
"211 848 CURVE SMOOTH",
"110 848 OFFCURVE",
"18 790 OFFCURVE",
"-60 590 CURVE",
"-43 666 OFFCURVE",
"-29 744 OFFCURVE",
"-25 782 CURVE SMOOTH",
"-20 829 OFFCURVE",
"-21 852 OFFCURVE",
"-78 852 CURVE SMOOTH",
"-119 852 OFFCURVE",
"-149 839 OFFCURVE",
"-156 794 CURVE SMOOTH",
"-187 592 OFFCURVE",
"-245 210 OFFCURVE",
"-255 84 CURVE SMOOTH",
"-260 20 OFFCURVE",
"-230 -5 OFFCURVE",
"-192 -5 CURVE SMOOTH",
"-141 -5 OFFCURVE",
"-122 25 OFFCURVE",
"-114 86 CURVE SMOOTH",
"-46 604 OFFCURVE",
"87 721 OFFCURVE",
"170 721 CURVE SMOOTH",
"210 721 OFFCURVE",
"229 698 OFFCURVE",
"229 647 CURVE SMOOTH",
"229 587 OFFCURVE",
"206 456 OFFCURVE",
"183 335 CURVE SMOOTH",
"171 272 OFFCURVE",
"144 135 OFFCURVE",
"144 81 CURVE SMOOTH",
"144 20 OFFCURVE",
"166 -5 OFFCURVE",
"209 -5 CURVE SMOOTH",
"263 -5 OFFCURVE",
"281 25 OFFCURVE",
"290 96 CURVE SMOOTH",
"351 575 OFFCURVE",
"477 721 OFFCURVE",
"562 721 CURVE SMOOTH",
"593 721 OFFCURVE",
"614 699 OFFCURVE",
"614 652 CURVE SMOOTH",
"614 620 OFFCURVE",
"604 549 OFFCURVE",
"593 486 CURVE SMOOTH",
"569 353 LINE SMOOTH",
"546 226 OFFCURVE",
"525 105 OFFCURVE",
"525 55 CURVE SMOOTH",
"525 19 OFFCURVE",
"545 -5 OFFCURVE",
"596 -5 CURVE SMOOTH",
"646 -5 OFFCURVE",
"666 14 OFFCURVE",
"670 65 CURVE SMOOTH",
"675 128 OFFCURVE",
"694 267 OFFCURVE",
"710 357 CURVE SMOOTH",
"732 480 LINE SMOOTH",
"745 551 OFFCURVE",
"758 625 OFFCURVE",
"758 677 CURVE SMOOTH",
"758 783 OFFCURVE",
"708 848 OFFCURVE",
"613 848 CURVE SMOOTH"
);
}
);
};
layerId = "ECEFE970-1BBB-4E0A-A452-CEB55884B4A3";
paths = (
{
closed = 1;
nodes = (
"192 -5 OFFCURVE",
"214 25 OFFCURVE",
"219 66 CURVE SMOOTH",
"270 513 OFFCURVE",
"418 721 OFFCURVE",
"547 721 CURVE SMOOTH",
"586 721 OFFCURVE",
"609 700 OFFCURVE",
"609 649 CURVE SMOOTH",
"609 619 OFFCURVE",
"599 549 OFFCURVE",
"588 486 CURVE SMOOTH",
"564 353 LINE SMOOTH",
"541 226 OFFCURVE",
"520 105 OFFCURVE",
"520 55 CURVE SMOOTH",
"520 19 OFFCURVE",
"540 -5 OFFCURVE",
"585 -5 CURVE SMOOTH",
"635 -5 OFFCURVE",
"662 14 OFFCURVE",
"666 65 CURVE SMOOTH",
"671 128 OFFCURVE",
"689 267 OFFCURVE",
"705 357 CURVE SMOOTH",
"727 480 LINE SMOOTH",
"740 551 OFFCURVE",
"753 625 OFFCURVE",
"753 677 CURVE SMOOTH",
"753 776 OFFCURVE",
"701 848 OFFCURVE",
"584 848 CURVE SMOOTH",
"442 848 OFFCURVE",
"343 746 OFFCURVE",
"276 590 CURVE",
"292 666 OFFCURVE",
"306 744 OFFCURVE",
"310 782 CURVE SMOOTH",
"315 829 OFFCURVE",
"314 852 OFFCURVE",
"254 852 CURVE SMOOTH",
"221 852 OFFCURVE",
"185 840 OFFCURVE",
"178 794 CURVE SMOOTH",
"147 592 OFFCURVE",
"90 210 OFFCURVE",
"78 64 CURVE SMOOTH",
"74 10 OFFCURVE",
"102 -5 OFFCURVE",
"144 -5 CURVE SMOOTH"
);
}
);
width = 799;
}
);
leftKerningGroup = I_ss01;
leftMetricsKey = I.ss01;
note = N;
rightKerningGroup = I_ss01;
rightMetricsKey = I.ss01;
},
{
color = 5;
glyphname = Eng.ss01;
lastChange = "2016-08-02 19:36:44 +0000";
layers = (
{
background = {
paths = (
{
closed = 1;
nodes = (
"1379 -347 OFFCURVE",
"1465 -169 OFFCURVE",
"1537 139 CURVE SMOOTH",
"1605 430 LINE SMOOTH",
"1620 492 OFFCURVE",
"1645 598 OFFCURVE",
"1645 682 CURVE SMOOTH",
"1645 776 OFFCURVE",
"1598 848 OFFCURVE",
"1485 848 CURVE SMOOTH",
"1345 848 OFFCURVE",
"1243 741 OFFCURVE",
"1177 547 CURVE",
"1186 609 OFFCURVE",
"1193 668 OFFCURVE",
"1193 715 CURVE SMOOTH",
"1193 801 OFFCURVE",
"1157 848 OFFCURVE",
"1083 848 CURVE SMOOTH",
"994 848 OFFCURVE",
"912 797 OFFCURVE",
"848 708 CURVE SMOOTH",
"827 679 OFFCURVE",
"820 661 OFFCURVE",
"820 638 CURVE SMOOTH",
"820 615 OFFCURVE",
"836 594 OFFCURVE",
"855 594 CURVE SMOOTH",
"865 594 OFFCURVE",
"876 599 OFFCURVE",
"886 613 CURVE SMOOTH",
"946 697 OFFCURVE",
"999 724 OFFCURVE",
"1029 724 CURVE SMOOTH",
"1049 724 OFFCURVE",
"1062 713 OFFCURVE",
"1062 679 CURVE SMOOTH",
"1062 653 OFFCURVE",
"1059 615 OFFCURVE",
"1052 559 CURVE SMOOTH",
"1024 333 OFFCURVE",
"984 159 OFFCURVE",
"984 84 CURVE SMOOTH",
"984 20 OFFCURVE",
"1007 -5 OFFCURVE",
"1053 -5 CURVE SMOOTH",
"1108 -5 OFFCURVE",
"1118 25 OFFCURVE",
"1126 86 CURVE SMOOTH",
"1188 556 OFFCURVE",
"1326 721 OFFCURVE",
"1437 721 CURVE SMOOTH",
"1482 721 OFFCURVE",
"1502 692 OFFCURVE",
"1502 652 CURVE SMOOTH",
"1502 597 OFFCURVE",
"1482 517 OFFCURVE",
"1460 415 CURVE SMOOTH",
"1397 120 LINE SMOOTH",
"1329 -198 OFFCURVE",
"1285 -248 OFFCURVE",
"1217 -248 CURVE SMOOTH",
"1178 -248 OFFCURVE",
"1135 -232 OFFCURVE",
"1096 -176 CURVE SMOOTH",
"1082 -156 OFFCURVE",
"1064 -148 OFFCURVE",
"1047 -148 CURVE SMOOTH",
"1017 -148 OFFCURVE",
"989 -175 OFFCURVE",
"989 -208 CURVE SMOOTH",
"989 -220 OFFCURVE",
"993 -233 OFFCURVE",
"1002 -246 CURVE SMOOTH",
"1049 -314 OFFCURVE",
"1129 -347 OFFCURVE",
"1206 -347 CURVE SMOOTH"
);
},
{
closed = 1;
nodes = (
"198 -5 OFFCURVE",
"220 25 OFFCURVE",
"225 66 CURVE SMOOTH",
"280 513 OFFCURVE",
"424 721 OFFCURVE",
"553 721 CURVE",
"590 848 LINE",
"448 848 OFFCURVE",
"349 746 OFFCURVE",
"282 590 CURVE",
"298 666 OFFCURVE",
"312 744 OFFCURVE",
"316 782 CURVE SMOOTH",
"321 829 OFFCURVE",
"320 852 OFFCURVE",
"260 852 CURVE SMOOTH",
"227 852 OFFCURVE",
"191 840 OFFCURVE",
"184 794 CURVE SMOOTH",
"153 592 OFFCURVE",
"95 210 OFFCURVE",
"84 64 CURVE SMOOTH",
"80 10 OFFCURVE",
"108 -5 OFFCURVE",
"150 -5 CURVE SMOOTH"
);
}
);
};
layerId = "ECEFE970-1BBB-4E0A-A452-CEB55884B4A3";
paths = (
{
closed = 1;
nodes = (
"479 -347 OFFCURVE",
"565 -169 OFFCURVE",
"637 139 CURVE SMOOTH",
"705 430 LINE SMOOTH",
"720 492 OFFCURVE",
"745 598 OFFCURVE",
"745 682 CURVE SMOOTH",
"745 776 OFFCURVE",
"698 848 OFFCURVE",
"585 848 CURVE SMOOTH",
"443 848 OFFCURVE",
"344 746 OFFCURVE",
"277 590 CURVE",
"293 666 OFFCURVE",
"307 744 OFFCURVE",
"311 782 CURVE SMOOTH",
"316 829 OFFCURVE",
"315 852 OFFCURVE",
"255 852 CURVE SMOOTH",
"222 852 OFFCURVE",
"186 840 OFFCURVE",
"179 794 CURVE SMOOTH",
"148 592 OFFCURVE",
"90 210 OFFCURVE",
"79 64 CURVE SMOOTH",
"75 10 OFFCURVE",
"103 -5 OFFCURVE",
"145 -5 CURVE SMOOTH",
"193 -5 OFFCURVE",
"215 25 OFFCURVE",
"220 66 CURVE SMOOTH",
"275 513 OFFCURVE",
"419 721 OFFCURVE",
"542 721 CURVE SMOOTH",
"582 721 OFFCURVE",
"602 692 OFFCURVE",
"602 652 CURVE SMOOTH",
"602 597 OFFCURVE",
"582 517 OFFCURVE",
"560 415 CURVE SMOOTH",
"497 120 LINE SMOOTH",
"430 -198 OFFCURVE",
"385 -248 OFFCURVE",
"317 -248 CURVE SMOOTH",
"278 -248 OFFCURVE",
"236 -231 OFFCURVE",
"196 -176 CURVE SMOOTH",
"182 -156 OFFCURVE",
"164 -148 OFFCURVE",
"147 -148 CURVE SMOOTH",
"117 -148 OFFCURVE",
"89 -175 OFFCURVE",
"89 -208 CURVE SMOOTH",
"89 -220 OFFCURVE",
"93 -233 OFFCURVE",
"102 -246 CURVE SMOOTH",
"149 -314 OFFCURVE",
"229 -347 OFFCURVE",
"306 -347 CURVE SMOOTH"
);
}
);
width = 792;
}
);
leftKerningGroup = I_ss01;
leftMetricsKey = I.ss01;
rightKerningGroup = I_ss01;
rightMetricsKey = N.ss01;
},
